<svg xmlns="http://www.w3.org/2000/svg" xmlns:xlink="http://www.w3.org/1999/xlink" width="920" height="533.295" viewBox="0 0 920 533.295">
  <defs>
    <linearGradient id="linear-gradient" x1="0.068" x2="0.528" y2="0.937" gradientUnits="objectBoundingBox">
      <stop offset="0" stop-color="#01ffc3"/>
      <stop offset="1" stop-color="#f6019d"/>
    </linearGradient>
    <filter id="Triangle" x="160" y="0" width="600" height="533.295" filterUnits="userSpaceOnUse">
      <feOffset input="SourceAlpha"/>
      <feGaussianBlur stdDeviation="16" result="blur"/>
      <feFlood flood-color="#7e1994"/>
      <feComposite operator="in" in2="blur"/>
      <feComposite in="SourceGraphic"/>
    </filter>
    <filter id="Kevin_Mees" x="0" y="59" width="920" height="273" filterUnits="userSpaceOnUse">
      <feOffset input="SourceAlpha"/>
      <feGaussianBlur stdDeviation="8" result="blur-2"/>
      <feFlood flood-color="#0d0221"/>
      <feComposite operator="in" in2="blur-2"/>
      <feComposite in="SourceGraphic"/>
    </filter>
    <filter id="Developer" x="280.001" y="241.948" width="360.573" height="205.381" filterUnits="userSpaceOnUse">
      <feOffset input="SourceAlpha"/>
      <feGaussianBlur stdDeviation="6" result="blur-3"/>
      <feFlood flood-opacity="0.757"/>
      <feComposite operator="in" in2="blur-3"/>
      <feComposite in="SourceGraphic"/>
    </filter>
  </defs>
  <g id="logo_with_claim" transform="translate(-482 1)">
    <g transform="matrix(1, 0, 0, 1, 482, -1)" filter="url(#Triangle)">
      <path id="Triangle-2" data-name="Triangle" d="M3963-1367.705,3711-1805h60.092l11.547,20h-.14l10.133,17.308,12.484,21.624.13-.075L3974.5-1457.031,4166.5-1785H3843.1l-11.547-20H4215l-252,437.295Z" transform="translate(-3503 1853)" fill="url(#linear-gradient)"/>
    </g>
    <g transform="matrix(1, 0, 0, 1, 482, -1)" filter="url(#Kevin_Mees)">
      <text id="Kevin_Mees-2" data-name="Kevin Mees" transform="translate(46 240)" fill="#f6019d" font-size="144" font-family="RoadRage, Road Rage"><tspan x="0" y="0">Kevin Mees</tspan></text>
    </g>
    <g transform="matrix(1, 0, 0, 1, 482, -1)" filter="url(#Developer)">
      <text id="Developer-2" data-name="Developer" transform="matrix(1, -0.05, 0.05, 1, 321.31, 377.46)" fill="#01ffc3" font-size="92" font-family="Streamster"><tspan x="0" y="0">Developer</tspan></text>
    </g>
  </g>
</svg>
