<svg xmlns="http://www.w3.org/2000/svg" xmlns:xlink="http://www.w3.org/1999/xlink" width="1920" height="611" viewBox="0 0 1920 611"><defs><linearGradient id="a" x1="0.5" x2="0.5" y2="1" gradientUnits="objectBoundingBox"><stop offset="0" stop-color="#f9c80e"/><stop offset="0.369" stop-color="#ff6c11"/><stop offset="0.704" stop-color="#791e94"/><stop offset="1"/></linearGradient><filter id="b" x="1048" y="0" width="605" height="605" filterUnits="userSpaceOnUse"><feOffset input="SourceAlpha"/><feGaussianBlur stdDeviation="24" result="c"/><feFlood flood-color="#a619c4"/><feComposite operator="in" in2="c"/><feComposite in="SourceGraphic"/></filter></defs><g transform="translate(0 31)"><g transform="translate(-57 -35)"><g transform="matrix(1, 0, 0, 1, 57, 4)" filter="url(#b)"><circle cx="230.5" cy="230.5" r="230.5" transform="translate(1120 72)" fill="url(#a)"/></g><path d="M-576.538,148h174.076A229.793,229.793,0,0,1-489.5,165,229.792,229.792,0,0,1-576.538,148ZM-614.8,128a231.232,231.232,0,0,1-26.454-20h303.508A231.229,231.229,0,0,1-364.2,128Zm-46.656-40a231.519,231.519,0,0,1-15.97-20h375.852a231.519,231.519,0,0,1-15.97,20Zm-28.709-40q-5.509-9.719-10.083-20h421.495q-4.566,10.276-10.083,20ZM-708.033,8q-3.3-9.819-5.726-20h448.518q-2.422,10.191-5.726,20Zm-8.932-36q-1.133-6.929-1.852-14h458.633q-.715,7.061-1.852,14Zm-2.843-28c-.128-3.154-.192-6.315-.192-9.5,0-.831,0-1.67.013-2.5h460.973c.009.829.013,1.668.013,2.5,0,3.186-.064,6.346-.192,9.5Zm.256-24q.312-5.026.838-10h458.426q.525,4.966.838,10Zm2.116-20q.6-4.027,1.345-8h453.18q.742,3.981,1.345,8Z" transform="translate(1897 372)" fill="#0d0221" style="mix-blend-mode:multiply;isolation:isolate"/></g><g transform="translate(0 20)"><path d="M-3729,1787.477l62.451-22.825,108.014,67.2,96.907,25.964,66.556-61.039,202.546,75.677,91.79-63.161,143.2,10.414,93-70.486,58.249-26.479,105.794,74.034,149.505,75.677,86-40.6,113.809,40.6,377.129-63.161,164.831,89.664v149.99H-3729Z" transform="translate(3729 -1496)" fill="#261447"/><path d="M-1809,2006l-80.375-112.719-41.242,56.094-157.875-171.5-46.039,53.664-21.117-27.883-84.266,66.867-40.031-26.734-67.961,77.2L-2426.844,1859l-31.109,29.2L-2601.9,1750.281l-41.867-12.906-82.391-103.43-116.414,236.578-103.359-76.937h-67.852l-94.359,94.617-75.375-44.414-27.484-50.2-114.516-56.211-85.109,133.148-35.422-51.7-93.828,51.7-87.82,90.977-101.3-73.3V2056s1812.5-.859,1920,0" transform="translate(3729 -1496)" fill="#0d0221"/></g></g></svg>