<svg xmlns="http://www.w3.org/2000/svg" xmlns:xlink="http://www.w3.org/1999/xlink" width="492.493" height="549.999" viewBox="0 0 492.493 549.999">
  <defs>
    <radialGradient id="radial-gradient" cx="0.543" cy="0.465" r="0.601" gradientTransform="matrix(0, -1, 1.05, 0, 0.055, 1.009)" gradientUnits="objectBoundingBox">
      <stop offset="0" stop-color="#f9c80e"/>
      <stop offset="1" stop-color="#f6019d"/>
    </radialGradient>
    <filter id="Path_13" x="76.817" y="130.781" width="311.625" height="322.406" filterUnits="userSpaceOnUse">
      <feOffset input="SourceAlpha"/>
      <feGaussianBlur stdDeviation="1.5" result="blur"/>
      <feFlood flood-color="#0d0221"/>
      <feComposite operator="in" in2="blur"/>
      <feComposite in="SourceGraphic"/>
    </filter>
  </defs>
  <g id="skills_frontend2" transform="translate(-642.482 -465.731)">
    <g id="jest" transform="translate(1014 537.731)">
      <path id="Path_37" data-name="Path 37" d="M75.793,45.85a7.814,7.814,0,0,0-7.814-7.814,7.9,7.9,0,0,0-.821.043L77.89,6.427H32.283L43,38.052c-.157-.009-.315-.016-.475-.016A7.814,7.814,0,0,0,40.153,53.3a34.128,34.128,0,0,1-6.144,7.732,31.287,31.287,0,0,1-10.949,6.8,9.962,9.962,0,0,1-4.991-12.68c.23-.539.464-1.087.688-1.631A7.815,7.815,0,1,0,12.49,52.3c-1.934,4.4-4.777,9.012-5.662,14.352-1.061,6.4,0,13.2,5.533,17.033,12.893,8.936,26.888-5.539,41.645-9.178,5.348-1.319,11.218-1.106,15.93-3.835a13.341,13.341,0,0,0,6.533-9.258,13.907,13.907,0,0,0-2.492-10.558,7.781,7.781,0,0,0,1.817-5.008Zm-25.455.028c0-.009,0-.018,0-.028a7.809,7.809,0,0,0-3.767-6.685L55.1,21.917l8.545,17.431a7.805,7.805,0,0,0-3.481,6.5c0,.057,0,.113,0,.17l-9.832-.142Z" transform="translate(-4.542 -4.519)" fill="#c63d14"/>
      <path id="Path_38" data-name="Path 38" d="M73.159,41.331a9.736,9.736,0,0,0-7.924-9.552L76.01,0H25.079L35.87,31.843a9.717,9.717,0,0,0-3.013,17.744,32.573,32.573,0,0,1-4.7,5.534,29.463,29.463,0,0,1-9.474,6.086,7.962,7.962,0,0,1-3.4-9.834l.119-.279.223-.525A9.728,9.728,0,1,0,5.612,48.307C5.288,49,4.947,49.7,4.6,50.423,2.959,53.784,1.1,57.594.4,61.825c-1.393,8.4.854,15.119,6.328,18.913a17.242,17.242,0,0,0,10.09,3.208c6.392,0,12.858-3.211,19.182-6.353,4.555-2.262,9.265-4.6,13.917-5.749,1.731-.427,3.512-.684,5.4-.956,3.739-.539,7.606-1.1,11.031-3.081a15.261,15.261,0,0,0,7.456-10.583,15.754,15.754,0,0,0-2.071-10.832,9.663,9.663,0,0,0,1.424-5.061Zm-3.817,0a5.905,5.905,0,1,1-5.906-5.905,5.912,5.912,0,0,1,5.906,5.905ZM70.686,3.817,61.171,31.879a9.605,9.605,0,0,0-1.2.374l-9.4-19.174L41.141,32.139a9.6,9.6,0,0,0-1.257-.341L30.4,3.817Zm-32.7,31.609a5.905,5.905,0,1,1-5.905,5.905,5.912,5.912,0,0,1,5.905-5.905Zm-25.55.056a5.905,5.905,0,1,1-5.905,5.905,5.912,5.912,0,0,1,5.905-5.905ZM70.045,56.571A11.452,11.452,0,0,1,64.436,64.5c-2.787,1.614-6.127,2.1-9.663,2.606-1.894.273-3.853.556-5.767,1.028-5.06,1.248-9.961,3.682-14.7,6.036-9.485,4.711-17.676,8.779-25.4,3.426-5.658-3.921-5.4-11.176-4.737-15.152.611-3.683,2.262-7.075,3.859-10.356.276-.568.545-1.124.808-1.676a9.637,9.637,0,0,0,2.512.631A11.886,11.886,0,0,0,17.645,65l.734.377.778-.277A33.066,33.066,0,0,0,30.776,57.9a36.211,36.211,0,0,0,5.751-6.953,9.717,9.717,0,0,0,7.915-16.871l6.11-12.355,6.172,12.591a9.715,9.715,0,0,0,12.257,15,11.862,11.862,0,0,1,1.064,7.26Z" transform="translate(0)" fill="#fff"/>
    </g>
    <g id="dx_skills" data-name="dx skills" transform="translate(642.482 508.891)">
      <g id="Group_15" data-name="Group 15" transform="translate(0 0)">
        <path id="Polygon_12" data-name="Polygon 12" d="M284.444,0l94.815,164.045L284.444,328.089H94.815L0,164.045,94.815,0Z" transform="translate(164.045 0) rotate(30)" fill="rgba(45,226,230,0.33)"/>
        <path id="Polygon_16" data-name="Polygon 16" d="M237.037,0l79.012,136.7-79.012,136.7H79.012L0,136.7,79.012,0Z" transform="translate(177.79 39.506) rotate(30)" fill="rgba(45,226,230,0.33)"/>
        <path id="Polygon_13" data-name="Polygon 13" d="M189.63,0l63.21,109.363L189.63,218.726H63.21L0,109.363,63.21,0Z" transform="translate(191.536 79.012) rotate(30)" fill="rgba(45,226,230,0.33)"/>
        <path id="Polygon_14" data-name="Polygon 14" d="M142.222,0,189.63,82.022l-47.407,82.022H47.407L0,82.022,47.407,0Z" transform="translate(205.281 118.518) rotate(30)" fill="rgba(45,226,230,0.33)"/>
        <path id="Polygon_15" data-name="Polygon 15" d="M94.815,0l31.6,54.682-31.6,54.682H31.6L0,54.682,31.6,0Z" transform="translate(219.027 158.025) rotate(30)" fill="rgba(45,226,230,0.33)"/>
        <path id="Polygon_17" data-name="Polygon 17" d="M47.407,0l15.8,27.341-15.8,27.341H15.8L0,27.341,15.8,0Z" transform="translate(232.772 197.531) rotate(30)" fill="rgba(45,226,230,0.33)"/>
      </g>
      <g transform="matrix(1, 0, 0, 1, 0, -43.16)" filter="url(#Path_13)">
        <path id="Path_13-2" data-name="Path 13" d="M-2789.018,3276.774-2715.7,3269l34.662-73.7,46.571,64.363h91.549l-71.684,79.828,32.26,58.469-69.086-9.6-29.61,120.348-26.118-120.348-138.386,46.147,84.891-97.872Z" transform="translate(2926.86 -3060.01)" fill="url(#radial-gradient)"/>
      </g>
      <path id="Intersection_6" data-name="Intersection 6" d="M75.5,202.9A260.521,260.521,0,0,0,77.7,132.772c-.549-.376-1.106-.741-1.678-1.087.472-1.312-.167-2.737-.791-3.983l-3.644-7.284q1.108.867,2.216,1.736-.082-3.838-.168-7.673a2.823,2.823,0,0,0,2.513,1.429l-.532-4.221,1.312.039c.045-.423.07-.847.083-1.269q-2.374-6-4.744-11.989c-1.425,1.2-2.644,3.9-3.092,6.468q.073-5.447.145-10.889a45.683,45.683,0,0,0-3.1,10.306c-.531-3.76-.729-7.423.784-10.582-1.554,1.2-2.615,4.379-3.065,10-.445-3.835-1.522-7.671.438-11.513-2.881,3.051-2.742,7.945-3.21,12.47-.722-4.605-.844-10.776.861-14.6-3.8,3.884-2.384,10.257-2.7,14.68-.788-4.645-1.642-12.654.142-17.3-2.6,4.771-2.186,13.386-1.809,18.627-1.368-5.162-2.876-12.411-1.4-19.093-2.911,5.471-1.967,12.989-1.649,18.5a57.228,57.228,0,0,1-2.14-9.58q-.326,1.392-.651,2.786-.014-4.976-.027-9.951c-1.845,5.623-.372,12.944-.241,18.349-1.8-5.844-3.687-11.668-2.735-18.11a18.309,18.309,0,0,0-1.966,7.188,35.462,35.462,0,0,1,.88-8.337c-2.651,4.419-.42,12.059-1.287,17.652a32.9,32.9,0,0,1-2.091-13.289q-1.565,4.779-3.128,9.555A44.382,44.382,0,0,1,44.83,88.037c.014-.082.029-.161.045-.241-1.969,3.624-4.033,7.337-5.045,11.228A30.225,30.225,0,0,1,43,88.373,39.3,39.3,0,0,0,38.8,97.719c-.935-2.944,1.089-8.68,2.936-11.674-2,.853-7.149,7.913-7.7,9.78-.14-2.791,2.581-7.547,4.01-8.773-3.366.28-5.169,6.836-6.241,9.428A28.7,28.7,0,0,1,33.1,89.015,17.491,17.491,0,0,0,29.56,97.32a43.044,43.044,0,0,1,1.964-8.208,30.684,30.684,0,0,0-5.693,15.277,32.677,32.677,0,0,1,.608-7.9q-.9,2.146-1.59,4.375a35.771,35.771,0,0,1,3.116-11.8c.156-.619.3-1.15.423-1.554a23.415,23.415,0,0,0-4.323,11.97,17.543,17.543,0,0,1,.1-4.39,28.3,28.3,0,0,0-1.161,8.985c-.912-2.6-1.269-8.617-.549-12.609a33.549,33.549,0,0,0-1.073,10.66q-.429-2.834-.623-5.7A54.214,54.214,0,0,0,19.4,108.085,76.572,76.572,0,0,1,18.387,98.9c-.445,2.161-.789,4.343-1.017,6.538q-.288-2-.578-4c-.479,4.065-.646,8.459-.746,11.614a49.366,49.366,0,0,1-1.63-12.744,55.987,55.987,0,0,0-.725,10.928,35.45,35.45,0,0,1-.651-3.814c-.393,3.877-.63,7.829-.9,10.92-1.195-4.1-1.174-10.584-.2-15.473a41.979,41.979,0,0,0-3.245,10.616,27.219,27.219,0,0,1,1.009-7.6,53.886,53.886,0,0,0-3.46,14.064C5.19,114.3,8,106.439,11.183,100.17A32.09,32.09,0,0,0,4.25,111.1,28.793,28.793,0,0,1,6.8,104.519a31.4,31.4,0,0,1-4.368,4.535c.906-2.628,5.273-8.617,8.286-11.564a41.888,41.888,0,0,0-8.211,6.468,29.182,29.182,0,0,1,2.111-2.914A41.308,41.308,0,0,1,0,103.768a76.5,76.5,0,0,1,10.243-8.715A59.228,59.228,0,0,0,.91,99.961a28.759,28.759,0,0,1,9.936-6.253C7.588,94.4,3.66,96.686.933,97.939a21.977,21.977,0,0,1,7.508-5.8,37.639,37.639,0,0,0-5.564,1.533,20.448,20.448,0,0,1,4.1-2.163c-2.384.677-4.633,1.5-6.056,1.7,3.3-2.4,10.2-5.98,14.99-5.248a32.536,32.536,0,0,0-7.143-.143,32.521,32.521,0,0,1-7.14-.14c2.673-.5,6.7-1.671,10.564-2.319a39.448,39.448,0,0,0-8.319,0,33.322,33.322,0,0,1,10.329-.29c.544-.06,1.081-.107,1.6-.135A26.253,26.253,0,0,0,4.963,83.6a28.137,28.137,0,0,1,8.59-.44A71.086,71.086,0,0,0,3.383,81.147c3.5-.575,9.223.178,14.062,1.21q-4.495-1.484-9.105-2.583a51.955,51.955,0,0,1,7.733,1.176c-3.863-1.135-8.323-2.133-11.616-2.812l.014-.016c4.685.193,16.022,1.229,20.721,3.674C21.5,79.741,13.179,77.451,9.485,75.4c5.808.989,14.782,3.13,18.984,5.126-3.4-2.436-9.672-3.067-13.068-5.506,4.934.831,12.132,1.177,15.807,4.306-2.579-3.71-7.735-3.635-10.848-5.564,2.779.815,5.961,1.287,8.963,1.99q-.976-.593-1.951-1.188a20.9,20.9,0,0,1,8.863,3.512c-1.305-2.757-7.025-3.539-10.56-4.905,6.407,1.141,13.614,2.189,19.768,3.785a16.172,16.172,0,0,1,1.5-10.929h-.016q-2.005,3.159-4.012,6.317A17.045,17.045,0,0,1,47,63.693Q43.849,67.22,40.7,70.748q2.426-3.455,4.849-6.91-2.9,3.079-5.8,6.156a47.146,47.146,0,0,1,5.585-7.26c-.527.018-1.053.047-1.581.088.6-.119,1.2-.219,1.8-.31.334-.332.675-.652,1.029-.964a19.422,19.422,0,0,1,2.649-1.96,36.484,36.484,0,0,0-6.562-.138,36.245,36.245,0,0,1,7.739-.524,15,15,0,0,1,1.9-.822q-.86-.274-1.734-.5a21.678,21.678,0,0,1,2.348.3l.175-.055a26.991,26.991,0,0,0-11.269-.4,26.633,26.633,0,0,1,18.868.156A43.551,43.551,0,0,0,39.643,53.73c5.094-1.1,12.2-2.032,16.469-.564-4.018-2.823-10.674-2.805-15.9-1.6l-.007,0,.007,0c-.06.011-.116.025-.172.038.064-.018.125-.034.187-.049a38.657,38.657,0,0,1,9.359-4.923c-3.336.434-7.267,2.33-10.447,4.57a23.678,23.678,0,0,1,7.883-5.279c-2.8.357-8.109,3.624-10.857,5.544,1.33-1.925,6.126-5.213,8.622-6.253A82.852,82.852,0,0,0,30.96,52.36c4.523-3.8,9.09-7.364,14.15-8.145-2.9-1.62-6.931.711-9.9,2.542,1.267-.885,3.55-3.67,4.622-4.194-4.909.4-6.8,2.01-9.2,5.315,1.023-1.971,1.177-4.636,3.412-5.18-3.234.33-4.993,3.9-6.666,7.2.779-1.933.926-5.773,3.732-7.337-3.776,1.866-5.291,5.14-6.722,8.5.836-2.41-.239-5.517,4.046-8.295-4.277,2.186-5.386,5.558-7.448,10.239.911-3.245,1.484-6.75,4.874-10.1a50.371,50.371,0,0,0-8.566,10.938,23.532,23.532,0,0,1,5.558-9.437A19.006,19.006,0,0,0,15.587,50a10.829,10.829,0,0,1,8.034-7.486c-2.109-.915-4.237-.149-6.365.286,2.354-1.178,4.931-2.025,7.765-1.219-1.612-1.558-5.483-2.357-8.057-2.116,2.931-.993,7.217.179,9.926,2.1-2.086-2.656-5.388-3.709-9.2-4.077a16.84,16.84,0,0,1,10.076,1.24C25.583,37.4,23.4,36.2,21.22,34.7a30.473,30.473,0,0,1,12.924,5.822,27.2,27.2,0,0,0-9.93-7.01c4.219.572,8.668,3.677,11.671,6.7a29.086,29.086,0,0,0-8.306-7.62,36.612,36.612,0,0,1,9.115,6.938c-2.279-2.488-4.793-5.755-7.05-8.172a43.815,43.815,0,0,1,7.894,7.82c-1.8-2.5-3.669-5.824-5.428-7.849,2.769,2.989,5.7,7.018,8.466,10.008-1.99-2.983-2.983-7.489-4.973-10.473a25.918,25.918,0,0,1,5.217,7.377,38.621,38.621,0,0,0-3.114-6.9c2.36,3.055,3.776,7.464,6.135,10.519-1.821-3.3-2.843-8.326-4.665-11.62,2.321,3.417,3.277,8.188,5.6,11.6-1.547-3.528-1.953-8.7-3.5-12.226,1.937,3.523,2.689,8.7,4.626,12.224-1-3.53-.506-8.026-1.355-11.649-.488.027-.962.046-1.406.044.387-.111.837-.249,1.316-.4-.018-.066-.032-.134-.049-.2.022.064.038.133.06.2.8-.246,1.676-.526,2.539-.8-.009-.09-.011-.187-.023-.275.018.085.036.178.053.266l1.106-.35a13,13,0,0,0-4.67.628l2.918-1.244a17.823,17.823,0,0,0-6,.318,11.106,11.106,0,0,1,2.879-1.014c-2.691-.293-5.413-.573-7.77-1a67.449,67.449,0,0,1,16.988,1.65A29.851,29.851,0,0,1,67.2,36.277,32.187,32.187,0,0,1,73.27,46.619c2.7,5.486,6.313,11.889,8.451,16.813C77.829,53.306,73.4,42.815,72.773,35.311c1.917,6.076,3.222,11.515,7.818,17.088a55.539,55.539,0,0,1-3.254-6.357,29.127,29.127,0,0,1-2.6-9.667,64.454,64.454,0,0,0,5.741,12.795c-2.085-6.634-4.332-12.157-6.324-19.438,2.349,6.07,5.481,11.379,8.085,17.2C79.4,39.944,77.13,32.77,76.487,26.465c2.31,6.531,5.539,13.8,7.849,20.326-3.2-9.263-5.679-18.919-5.751-23.59,1.942,5.473,4.582,13.175,6.6,18.9-2.822-8.165-4.17-16.768-3.686-23.445,1.174,4.116,2.075,8.906,3.109,13.366a65.313,65.313,0,0,1-.445-16.049c.217,5.415,1.608,14.055,3.455,17.4a54.355,54.355,0,0,1-1.741-21.577q1.542,8.364,3.083,16.73c-.6-6.236-1.31-15.489.35-21.53a38.824,38.824,0,0,0,1.719,16.8c-.881-5.435.13-11.42,1.757-16.681-.168,3.914-.337,10.271-.5,14.184.878-6.546,2.042-13.992,3.634-17.853-.667,4.2-1.33,10.377-2,14.579,1.348-6.607,4.159-12.51,6.354-15.108-.883,2.888-2.584,8.121-3.464,11.009,2.667-5.158,6.339-10.753,9.06-12.756-1.515,2.332-3.992,7.723-5.508,10.058C105.66,5.884,110.222,2.311,114.38,0c-3.729,3.021-8.272,8.391-12,11.413Q107.166,9,111.947,6.591q-5.054,3.183-10.11,6.365,4.431-1.292,8.858-2.59-5.742,3.062-11.488,6.12c6.662-1.958,6.378-.626,9.575-2.166-4.272,2.272-7.246,3.25-11.519,5.522,5.268-1.861,7.387-1.294,10.941-2.109a36.663,36.663,0,0,0-10.889,4.92c2.624-1.26,5.23-1.212,7.834-1.2-4.571.8-9.141,3.225-13.708,8.386,4.7-3.916,8.76-5.185,12.407-4.752-5.5,1.328-10.3,5.018-14.171,10.186a20.231,20.231,0,0,1,12-7.167A37.226,37.226,0,0,0,88.641,38.416a46.8,46.8,0,0,1,12.165-7.529A75.63,75.63,0,0,0,87.857,42.692a30.936,30.936,0,0,1,11.462-7.9A34.157,34.157,0,0,0,87.9,46.227c3.168-3.951,6.6-6.383,10.311-7.233,3.455-2.764,7.689-4.43,12.106-3.816-3.444.353-5.888,1.333-6.985,2.864a18.414,18.414,0,0,1,8.949-2.786c-2.542.79-5.542,1.772-7.166,2.927,2.888-1.443,8.075-2.193,11.3-2.166-2.935.677-7.583,1.411-9.073,2.416a39.394,39.394,0,0,1,10.53-1.239c-2.52.3-8.08,1.165-10.413,2.247,3.421-1.141,7.021-1.059,9.828.743a11.61,11.61,0,0,0-8.041.528,11.5,11.5,0,0,1,9.573,4.419,24.8,24.8,0,0,1,5.246-2.553,31.477,31.477,0,0,0-4.553,3.559c.047.077.091.158.136.239a38.693,38.693,0,0,1,6.881-4.828,47.057,47.057,0,0,0-6.336,5.9c.031.071.065.136.095.206a28.192,28.192,0,0,1,8.987-5.81,44.128,44.128,0,0,0-9.233,7.806,22.64,22.64,0,0,1,13.772-6.718c-4.285,1.82-8.728,2.982-11.53,7.337,3.348-3.432,7.849-4.3,12.212-4.749-3.591,1.033-8,2.215-10.462,5.48,3.317-2.7,8.581-3.744,12.851-3.992-3.41.786-7.816,1.935-10.519,4.155,3.464-1.895,8.586-2.48,12.535-2.5-3.035.544-7.729,1.735-10.4,3.281A56.467,56.467,0,0,1,141.341,49.7c-3.5.928-8.157,1.693-11.164,3.188,4.135-1.265,9.631-.8,13.572.551-3.656-.107-8.181-.752-11.162.364,4.15-.276,9.385,1.294,13.177,3.005-3.453-.514-7.364-1.831-10.553-1.179a17.649,17.649,0,0,1,11.34,7.613c-2.938-2.473-7.543-6.088-10.4-6.176,4.516,1.728,8.922,7.334,9.807,11.322-2.107-2.906-5.833-8.121-8.96-9.467,3.532,3.938,7.217,11.546,7.606,16.821-1.2-3.274-2.575-7.757-4.677-10.778,1.4,2.606.793,5.58.219,7.312a11.19,11.19,0,0,0-2.771-9.554,8.246,8.246,0,0,1,.869,7.129c.045-3.256-.617-6.824-2.564-9.232a6.312,6.312,0,0,1,.416,7.3,12.147,12.147,0,0,1,1.021.989q-2.341-.463-4.684-.931a20.789,20.789,0,0,1,4.811,19.346,30.884,30.884,0,0,0-3.664-13.492,22.838,22.838,0,0,1,.639,12.193,34.86,34.86,0,0,0-2.931-13.481,30.464,30.464,0,0,1,1.1,11.478q-.965-5.768-1.936-11.536.218,3.74.434,7.479L128.725,71.1q.583,4,1.167,8-1.135-3.483-2.267-6.965a11.873,11.873,0,0,1-.417,6.205,27.023,27.023,0,0,0-4.444-12.406,17.844,17.844,0,0,1-1.608,14.877,19.22,19.22,0,0,0-.02-13.495,20.822,20.822,0,0,1-1.366,14.54A16.777,16.777,0,0,0,115.518,65.9a16.3,16.3,0,0,1,3.493,11.148,17.429,17.429,0,0,0-7.33-11.322,25.429,25.429,0,0,1,5.4,9.724,29.945,29.945,0,0,0-8.4-9.266L114.2,72.5a11.366,11.366,0,0,0-4.39-2.671,18.364,18.364,0,0,1,2.564,1.8,39.55,39.55,0,0,0-8.346-1.4c2.761,1.348,7.468,1.543,9.682,3.214a31.172,31.172,0,0,0-12.092-1.711q5.363,1.408,10.722,2.818a39.025,39.025,0,0,0-12.375-.061l11.072,1.023a79.179,79.179,0,0,0-14.287,1.21q6.055-.02,12.106-.043l-13.326,2.04,12.277-.154a43.032,43.032,0,0,0-13.264,2.615,36.1,36.1,0,0,1,12.874-.921,53.647,53.647,0,0,0-15.258,3.855,32.768,32.768,0,0,1,13.118-1.7,36.341,36.341,0,0,0-14.548,5.534,17.054,17.054,0,0,1,10.647-2.407A25.313,25.313,0,0,0,85.4,92.488q-.342,1.065-.684,2.131A6.5,6.5,0,0,1,92.6,92.35a6.064,6.064,0,0,0-4.621,2.067,7.6,7.6,0,0,1,5.566-.706l-5.336,2.9a5.95,5.95,0,0,1,4.6-.287,5.036,5.036,0,0,0-2.586,4.209A14.235,14.235,0,0,1,99,92.666a13.8,13.8,0,0,0-3.473,4.189c.372-.24.75-.474,1.127-.7a14.264,14.264,0,0,1,6.01-4.227c-.261.517-.548,1.018-.846,1.513a58.733,58.733,0,0,1,37.694-3.874c-2.527.062-10.569-.078-12.894.911,3.976-.535,13.644-.648,17.194,1.221-1.879-.04-5.591.129-8.767.237,4.292.181,9.548,1.005,12.2,2.462a33.822,33.822,0,0,0-6.121-.067c-1.648.07-3.3.14-4.668.076,4.277.4,11.424.951,14.764,2.22-1.456-.107-3.893-.071-6.327-.034s-4.869.072-6.324-.034c5.14.641,12.513.714,15.857,3.717-3.667-1.675-11-1.7-12.592-1.463,4.756,1.484,11.96,1.9,15.882,5.89a33.511,33.511,0,0,0-8.658-3.029,14.859,14.859,0,0,1,6.281,5.13q-2.161-1.364-4.405-2.593a17.514,17.514,0,0,0-3.092-1.421,12.6,12.6,0,0,0-2.176-.459c4.354,2.394,10.189,5.442,11.851,9.163-3.152-3.337-9.918-7.26-12.118-7.326,4.718,2.218,10.858,5.991,13.168,11.435-3.137-4.158-7.275-5.762-11.336-7.6,4.823,3.27,9.545,5.083,11.656,10.542a16.37,16.37,0,0,0-10.72-6.813c3.279,2.111,8.983,3.762,10.34,8.883-1.063-2.721-3.848-4.5-6.669-5.7a11.834,11.834,0,0,1,1.8,2.249,29.883,29.883,0,0,1,2.28,4.883,25.487,25.487,0,0,0-5.864-6.509,16.189,16.189,0,0,1,3.954,7.967,37.79,37.79,0,0,0-2.349-4.448,16.556,16.556,0,0,0-1.143-1.528,20.315,20.315,0,0,1,1.994,9.143,23.145,23.145,0,0,0-4.248-10.553,32.614,32.614,0,0,1,2.861,14.226c-.953-4.162-2.163-11.169-4.16-15.1a70.154,70.154,0,0,1,.434,14.683c-.225-4.385-.866-12.316-1.542-16.76.51,4.04.038,11.04-1.565,14.193.969-4.356.84-13.156.174-17.829,0,4.688-.474,13-1.708,17.151,1.091-5.53.086-15.326-.531-21.631a87.127,87.127,0,0,1-.575,17.435c.456-5.182-.786-16.317-2.791-21.118,1.188,5.32,1.005,15.807-.474,20.176,1.082-5.617-.662-17.293-2.732-22.624,1.323,5.494,1.962,15.629,1.045,19.8.931-5.989-2.842-17.071-6.176-22.132,2.905,4.934,5.266,14.583,4.719,19.456-.256-6.5-4.972-16.616-9.6-20.933,3.943,4.335,8.527,15.634,7.617,20.831-.872-6.94-6.768-18.081-12.533-21.22,4.742,3.98,9.9,14.393,10.055,20.142-2.123-6.946-10.149-16.868-16.41-20.549,4.426,4.69,11.735,12.1,13.438,19.034-2.755-6.564-13.357-15.032-19.034-17.227,4.114,2.5,14,10.847,14.925,15.975-2.458-5.768-15.449-12.287-21.514-13.877,3.992,2.332,14.774,7.477,16.848,12.3-3.841-4.006-15.612-8.135-20.637-10.494,2.965,2.6,13.718,5.751,15.975,10-3.609-3.592-15.426-6.495-20.288-8.016,3.724,1.777,12.544,5.221,14.777,7.7-3.721-2.6-12.531-3.591-17.458-4.83.985.632,7.556,2.394,8.541,3.023-2.695-.208-8.76-1.3-11.453-1.508,1.138.526,4.923,2.146,6.061,2.673a39.981,39.981,0,0,0-7.733-.63,9,9,0,0,1,5.108,6.763q-1.5-1.449-3-2.9,1.185,3.136,2.368,6.275-2.713-2.083-5.429-4.165.212,1.584.419,3.17l-1.459-.994c1.75,2.313,3.595,5.145,2.68,7.894-.28.836-.8,1.574-1.1,2.4-1.025,2.8.59,5.817,2.15,8.361q-1.5-.774-3-1.543,1.254,5.081,2.507,10.166a35.1,35.1,0,0,0-4.06-5.537,140.886,140.886,0,0,1,1.2,16.562c0,8.82.3,18.246-.651,27.014-1.535,14.164-2.31,27.209-4.494,41.287-.021.142-.044.285-.066.426Zm72.552-89.314v0h0Zm-71.042-3.276a16.842,16.842,0,0,0-4.254-11.523Zm66.165-9.4c.173.1.361.215.546.323l.192-.31c-.217-.009-.426-.014-.622-.014ZM45.767,77.035c4.771,1.262,8.881,2.868,11.442,5.123,6.659,5.867,13.656,8.333,17.822,15.939a6.527,6.527,0,0,1,.849,1.47,14.182,14.182,0,0,0-3.554-8.152,11.375,11.375,0,0,1,4.841,5.743q-.989-2.639-1.974-5.278A46.786,46.786,0,0,0,64.81,86.406a21.625,21.625,0,0,1,7.4,1.733L67.92,84.681a25.471,25.471,0,0,0-6.85-1.9,30.135,30.135,0,0,1,8.673,1.6c-.775-.526-1.572-1.018-2.385-1.482q1.795.969,3.588,1.94a28.148,28.148,0,0,1,3.736,1.8c-5.481-4.194-11.42-5.722-17.4-6.991,5.593.329,11.221.368,16.353,4.679-.038-.043-.076-.083-.115-.125a20.741,20.741,0,0,0-12.584-5.265,44.162,44.162,0,0,1,8.531,1.22c-.23-.216-.46-.436-.693-.651-1.856-.78-3.8-1.435-5.761-2.06,1.267.05,2.529.115,3.771.271q-1.358-1.187-2.764-2.314a24.044,24.044,0,0,0-3.609-.61A21.448,21.448,0,0,1,63.1,74.66c-.118-.093-.233-.19-.35-.281l.463.281a16.262,16.262,0,0,1,4.55.72q-1.205-1.091-2.412-2.188a35.064,35.064,0,0,0-14.4-3.629c6.844-.325,13.1.887,18.519,4.248a44.757,44.757,0,0,0-18.625-7.33A13.629,13.629,0,0,0,49.1,70.825a11.4,11.4,0,0,1,.715-4.5c-.212-.029-.424-.056-.639-.082A22.266,22.266,0,0,0,45.767,77.035ZM79.125,95.067l-.024-.14c-.241-.21-.488-.413-.734-.617Zm3.885-2.724L82.736,94.5q1.2-1.771,2.4-3.541l0-2.443Q84.072,90.429,83.011,92.343ZM78.9,88.078c.535,1.07,1.023,2.019,1.4,2.669-.413-1.282-.876-2.757-1.366-4.328C78.914,86.972,78.906,87.524,78.9,88.078Zm7.486,1.3,0,.021v-.032Zm-.472-2.274c.144.687.287,1.376.429,2.062l.041-.059c-.024-.91-.045-1.818-.071-2.725C86.181,86.628,86.049,86.87,85.915,87.109ZM74.369,88.6a28.109,28.109,0,0,0-6.215-3.819Q71.261,86.694,74.369,88.6Zm8.7-.122,2.069-2.6,0-.956Q84.1,86.7,83.067,88.48ZM52.39,87.271l.047.044c.012-.073.018-.147.032-.22C52.44,87.152,52.42,87.215,52.39,87.271ZM87.643,84l.731,2.707q-.018-1.985-.031-3.966Q87.991,83.364,87.643,84Zm-2.267.525c.059.28.118.562.176.843q.359-.447.715-.9l-.035-1.414C85.947,83.543,85.662,84.031,85.375,84.521Zm-8.089.271c.075.151.151.3.227.459.1-.707.234-1.423.393-2.141-.181-.585-.361-1.172-.544-1.766C77.3,82.516,77.264,83.672,77.286,84.792Zm6.466-1.127q1.209-1.459,2.421-2.917l-.031-1.206Zm3.27-1.966q.186.68.368,1.362c.317-.4.63-.79.946-1.186l-.02-2.394Q87.668,80.588,87.022,81.7Zm2.493-4.275q.528,2.571,1.052,5.142.708-7.676,1.411-15.351a52.679,52.679,0,0,0-3.584,4.738c.1.488.2.978.3,1.465.822-.919,1.662-1.818,2.54-2.662q-1.138,1.967-2.281,3.933l.445,2.17c.5-.6,1-1.2,1.5-1.8Q90.2,76.238,89.515,77.423Zm-10.2,2.36c.37.675.713,1.274,1.005,1.732-.285-.889-.6-1.835-.924-2.809C79.367,79.063,79.339,79.422,79.312,79.783ZM75.455,81.14l.029.05a22.713,22.713,0,0,1,.689-3.7c-.235-.759-.467-1.513-.7-2.252A57.1,57.1,0,0,0,75.455,81.14Zm10.889-1.948c.093.339.185.677.275,1.016q.844-1.016,1.685-2.03l-.02-2.334Q87.315,77.519,86.344,79.192ZM68.825,78.074a13.847,13.847,0,0,1,3.121,1.109l-.885-.8a24.416,24.416,0,0,0-6.276-2.76Zm15.426,1A57.17,57.17,0,0,1,88.267,73.9q-.006-.864-.013-1.732A65.246,65.246,0,0,0,84.251,79.076ZM77.67,76.663c.427.826.838,1.623,1.229,2.354.086-.356.163-.709.239-1.063-.426-1.255-.876-2.561-1.338-3.884C77.774,74.923,77.727,75.789,77.67,76.663Zm14.567-9.747q.6,4.969,1.189,9.941,1.165-8.313,2.325-16.623.061,6.845.125,13.687,1.188-8.288,2.378-16.578.155,6.352.31,12.7,1.456-8.286,2.915-16.567-.64,7.266-1.283,14.539Q102.32,59.509,104.441,51q-1.176,7.391-2.354,14.784a40.046,40.046,0,0,1,6.21-14.055q-1.811,6.2-3.622,12.395l1.655-2.183a34.185,34.185,0,0,1,3.288-7.224,16.006,16.006,0,0,0-1.165-5.259,10.735,10.735,0,0,0-6.819-6.325,8.034,8.034,0,0,0-4.081.03,30.1,30.1,0,0,0-4.069,3.154l3.258-.013a8.568,8.568,0,0,0-5.559,3.518,25.891,25.891,0,0,1,7.7-4.08A28.422,28.422,0,0,0,87.094,57.705a28.964,28.964,0,0,1,10.6-8.622A26.335,26.335,0,0,0,86.518,62.091a27.151,27.151,0,0,1,10.467-8.68,39.014,39.014,0,0,0-12.054,12.88c3.2-3.936,6.677-7.091,10.631-8.825a33.88,33.88,0,0,0-10.041,12.7,23.153,23.153,0,0,1,8.052-7.825,40.037,40.037,0,0,0-8.242,11.368,28.459,28.459,0,0,1,6.692-6.982c.03-.3.057-.607.085-.908.031.26.061.521.093.782.275-.2.551-.4.826-.58C92.761,66.309,92.5,66.614,92.238,66.916ZM73.179,76.658a19.66,19.66,0,0,1,1.143-5.135c-.209-.668-.412-1.31-.606-1.918A30.927,30.927,0,0,0,73.179,76.658Zm2.452-3.984c.39.755.79,1.541,1.195,2.334.2-.746.382-1.482.535-2.2-.488-1.394-.975-2.793-1.454-4.168C75.839,69.825,75.731,71.2,75.631,72.674ZM79.988,73c.115.208.234.417.343.623-.142-.407-.3-.806-.442-1.21C79.922,72.6,79.956,72.8,79.988,73Zm-6.213-3.751c.251.422.524.912.811,1.447.347-1.089.687-2.171.928-3.189q-.508-1.474-.978-2.874C74.317,66.162,74.032,67.706,73.775,69.247Zm2.19-3.214c.877,1.5,1.778,3.015,2.638,4.506a72.911,72.911,0,0,0-3.744-9.044c-.04.746-.113,1.5-.208,2.256q.573,1.009,1.174,2.038c.023-.223.036-.442.038-.654A4.9,4.9,0,0,1,75.965,66.033Zm-4.814,4.147c.187-2.35,1.673-5.025,2.709-7.585-.07-.22-.143-.442-.209-.655.088.165.183.335.273.5.223-.558.418-1.109.575-1.653-.259-.5-.531-1-.806-1.5C72.721,62.919,71.388,66.551,71.151,70.179ZM54.883,64.4a55.914,55.914,0,0,1,7.973,3.188q1.223.389,2.426.887c-.54-.443-1.091-.872-1.649-1.294a31.56,31.56,0,0,0-8.143-3.39C55.281,63.99,55.079,64.193,54.883,64.4Zm22.784-2.876c1.47,2.468,2.862,4.854,3.893,6.885-1.441-2.985-3.1-6.42-4.663-9.979Q77.3,59.974,77.668,61.526ZM135.825,67.7c.495-3.022-.294-7.007-2.12-8.649a11.074,11.074,0,0,1,.729,4.235l.316,0-.321.069a4.687,4.687,0,0,1-.949,2.789,19.28,19.28,0,0,0,.023-2.586L132.4,63.8a5.759,5.759,0,0,1-.09,1.051,6.492,6.492,0,0,0-.059-1.019q-2.5.549-4.993,1.093.366-.022.73-.023A12.6,12.6,0,0,1,135.825,67.7ZM53.657,65.972c1.475.093,2.936.251,4.381.486q-1.768-.814-3.538-1.624A11.384,11.384,0,0,0,53.657,65.972Zm-2.411-.1c.746.017,1.494.045,2.238.09a7.342,7.342,0,0,1,.422-1.4l-1.151-.529A13.911,13.911,0,0,0,51.246,65.869Zm-4.233.011h0l.012-.02Zm2.419-.034c.194,0,.386,0,.58,0a11.487,11.487,0,0,1,1.675-2.8l-.059-.009A21.375,21.375,0,0,0,49.432,65.845ZM69.5,65.414c.578-2.462,2.158-4.92,3.466-7.38-.387-.648-.786-1.291-1.206-1.923A51.716,51.716,0,0,0,69.5,65.414ZM52.957,63.836c.375.1.749.212,1.123.323.1-.21.212-.418.334-.619-.312-.069-.624-.132-.935-.194C53.3,63.5,53.127,63.669,52.957,63.836Zm79.436-.564,1.088.007a10.647,10.647,0,0,0-2.509-6.637A17.3,17.3,0,0,1,132.393,63.271Zm-1.66-.016,1.421.013c-.546-2.917-2.509-6.838-4.28-8.443A18.966,18.966,0,0,1,130.733,63.256Zm-5.987-.045,5.957.045c-.3-3.17-3.247-7.829-5.927-9.349,2.12,1.908,2.714,3.737,2.321,5.515a7.342,7.342,0,0,0-.58-1.911l-7.4,3.431,9.251-.768q-2.909.985-5.822,1.969,3.788-.186,7.572-.375Zm-15.828-3.392q-.856,1.695-1.711,3.389A18.074,18.074,0,0,1,115.9,56.42l-4.833,4.807a18.045,18.045,0,0,1,9.725-4.81l-5.758,4.722A18.417,18.417,0,0,1,126.4,57.269a8.926,8.926,0,0,0-5.67-4.325c1.123.944,3.825,2.194,4.114,3.539-1.784-1.66-6.212-2.792-8.841-2.4,0,.047,0,.095.009.142,1.411.176,3.8.906,3.9,1.425a8.534,8.534,0,0,0-3.884-.662c0,.143,0,.285-.012.426a1.369,1.369,0,0,1,.574.053c-.187.049-.384.111-.583.173v.032l-.007-.03A22.116,22.116,0,0,0,108.919,59.819Zm-46.18,2.366c.448.24.89.488,1.328.755q-.559-.387-1.131-.753l-.158,0Zm-8.008.17c.17.022.336.049.5.076.09-.1.185-.2.282-.3l-.266-.129C55.075,62.118,54.9,62.235,54.731,62.355Zm13.33-.5c.843-2.166,1.986-4.448,3.022-6.72-.5-.718-1.025-1.427-1.578-2.121A39.4,39.4,0,0,1,68.062,61.858Zm-7.228-.895c.14.088.278.181.416.271L61.3,61.2c-.142-.082-.287-.16-.43-.24ZM65.81,58.7a16.171,16.171,0,0,0,3.024-6.5c-.122-.144-.237-.294-.358-.436.114.119.241.241.375.368.061-.264.115-.528.165-.795-.411-.249-.831-.483-1.256-.709A39.653,39.653,0,0,1,65.81,58.7Zm8.609-2.62c.125.217.252.431.383.648-.117-.238-.241-.474-.372-.713A.513.513,0,0,0,74.419,56.084Zm-10.157.436a26.134,26.134,0,0,0,2.6-6.335c-.205-.1-.407-.205-.615-.3A33.256,33.256,0,0,1,64.262,56.52Zm47.819-.759c.431.223,2.692-.271,3.868-.341-.031-.14-.067-.281-.113-.429A8.125,8.125,0,0,0,112.08,55.761Zm-37.958-.176a.492.492,0,0,0,.025-.06c-.064-.109-.131-.217-.2-.324l-.122-.117C73.927,55.25,74.023,55.417,74.123,55.584Zm-1.969-.844c.321.24.641.479.949.716-.212-.533-.419-1.07-.627-1.606-.021-.02-.043-.038-.066-.056C72.328,54.11,72.242,54.424,72.153,54.74Zm-8.6.621a32.744,32.744,0,0,0,2.1-5.729c-.233-.1-.465-.194-.7-.286A55.444,55.444,0,0,1,63.555,55.361Zm5.968-2.637c.593.495,1.273,1,1.962,1.518.131-.3.262-.6.388-.9A26.34,26.34,0,0,0,69.565,51.7C69.555,52.039,69.541,52.38,69.523,52.724Zm45.966,1.463a.348.348,0,0,1,.049,0l0-.013Zm-53.594-.3a44.6,44.6,0,0,0,3.058-8.9l-.106-.1c.036.025.076.049.113.074.067-.28.133-.563.2-.844l0,0,0,0c.083-.359.166-.72.248-1.08a14.287,14.287,0,0,0-1.777-.655A68.008,68.008,0,0,1,61.895,53.886Zm49.256-1.477c.622-.851,1.289-1.662,1.987-2.439a36.785,36.785,0,0,0-4.3-5.259A14.75,14.75,0,0,1,111.151,52.409ZM69.582,50.844a17.707,17.707,0,0,1,2.213,1.341c-.7-.86-1.446-1.7-2.209-2.526C69.589,50.055,69.586,50.45,69.582,50.844Zm-29.354.712c4.39-1.2,9.446-2.9,13.465-2.05a9.206,9.206,0,0,0-4.233-.934A17.566,17.566,0,0,0,40.227,51.556Zm19.4-.42C61.07,47.268,61.5,42.841,62,38.452a54.527,54.527,0,0,1-.2,9.442c.575-2.369,1.16-4.769,1.745-7.179l-1.256-.822c.378.114.836.268,1.348.445.066-.272.131-.543.2-.814-.019.287-.038.574-.059.863.632.216,1.332.467,2.045.724.054-.252.107-.506.156-.757a29.367,29.367,0,0,0-2.725-1.237c.953.212,1.892.479,2.82.784l.012-.059,0,.061a29.981,29.981,0,0,1,3.541,1.4.438.438,0,0,0-.038-.061,15.878,15.878,0,0,0-8.883-3.539,7.335,7.335,0,0,1,5.083-.162,40.277,40.277,0,0,0-7.456-3.116,14.066,14.066,0,0,0,2.815.128c.321,0,.641-.009.953-.006-.354-.179-.673-.33-.917-.431a6.252,6.252,0,0,0-2.905-.506c.074,4.806-.31,10.37-2.342,14.954,2.673-4.376,2.913-8.917,3.237-13.452,0,5.268-.056,10.5-1.087,15.157,1.625-4.329,2.136-8.95,2.517-13.6C60.6,41.719,60.546,46.8,59.632,51.136Zm8.2-1.057c.442.165.873.354,1.3.554.066-.425.12-.851.165-1.28q-.607-.647-1.221-1.272Q67.969,49.086,67.834,50.079Zm20.375-.064a17.876,17.876,0,0,1,3.85-4.351A56.305,56.305,0,0,1,95.7,41.324c.431-.464.883-.912,1.35-1.341A24.678,24.678,0,0,0,88.209,50.016Zm-21.9-.426c.222.061.441.125.66.194.2-.754.379-1.511.541-2.272-.239-.241-.478-.478-.716-.713Q66.584,48.207,66.312,49.589Zm50.294-.024a28.428,28.428,0,0,1,2.851-3.013c-.055-.067-.109-.138-.163-.2A19.58,19.58,0,0,0,116.606,49.565Zm1.8-.073c.594-.614,1.224-1.229,1.882-1.831-.041-.06-.082-.114-.122-.172C119.537,48.173,118.945,48.848,118.4,49.492Zm-53.435-.216c.249.047.5.095.742.153q.4-1.472.734-2.981l-.919-.9C65.368,46.791,65.185,48.035,64.966,49.276Zm4.557-2.067a19.233,19.233,0,0,1,2.94,1.542c-.024-.047-.054-.093-.081-.14A35.156,35.156,0,0,0,69.5,46.518C69.507,46.748,69.514,46.979,69.523,47.209Zm44.786,1.535q.67-.662,1.38-1.275a29.739,29.739,0,0,0-6.271-4A15.159,15.159,0,0,1,114.309,48.744ZM54.956,47.491a58.518,58.518,0,0,0,3.227-13.872c-.064.007-.125,0-.186.012.061-.036.127-.066.19-.1.019-.265.032-.521.037-.772-.314-.041-.633-.08-.953-.113C57.7,37.054,56.088,43.205,54.956,47.491Zm60.8-.078q.6-.519,1.231-1a12.966,12.966,0,0,0-4.726-2.822A11.079,11.079,0,0,1,115.754,47.413Zm-47.537-.789c.414.185.831.37,1.243.556.01-.222.017-.445.024-.669q-.589-.38-1.192-.736C68.269,46.057,68.243,46.342,68.218,46.624ZM54.14,46.48c.307-4.16,2.333-9.523,2.888-13.856-.479-.047-.96-.089-1.44-.118C55.472,36.971,53.905,42.2,54.14,46.48Zm12.768-.456c.268.129.546.257.829.386q.085-.43.164-.86c-.284-.165-.571-.325-.858-.481C67,45.389,66.953,45.705,66.908,46.024Zm50.343.19c.382-.285.772-.555,1.167-.818a9.158,9.158,0,0,0-5.244-2.567A7.318,7.318,0,0,1,117.252,46.213ZM68.338,45.174a18.011,18.011,0,0,1,1.793.883q-.848-.7-1.757-1.332C68.362,44.874,68.349,45.026,68.338,45.174Zm-2.786.153c.311.177.652.358,1.016.534.065-.312.132-.626.2-.939-.366-.194-.734-.379-1.1-.558C65.625,44.684,65.59,45.005,65.551,45.327Zm-12.773.055c.113-4.119,2.177-8.674,2.685-12.883-.426-.024-.851-.042-1.272-.054C54.125,36.758,52.376,41.069,52.778,45.382ZM68.4,44.394q.6.375,1.155.8c-.366-.336-.748-.666-1.141-.989C68.407,44.269,68.4,44.33,68.4,44.394Zm-1.3.3c.3.1.605.214.9.339.029-.165.06-.332.09-.5-.3-.2-.6-.388-.9-.569C67.155,44.2,67.125,44.447,67.093,44.689ZM51.848,32.445c.043,3.97-.935,8.579-.4,12.242-.07-3.861,2.13-8.258,2.6-12.247q-.533-.013-1.045-.013C52.609,32.427,52.221,32.433,51.848,32.445Zm13.825,11.81q.586.153,1.158.341c.052-.25.1-.5.149-.756-.39-.226-.789-.431-1.2-.623C65.75,43.563,65.711,43.909,65.673,44.255Zm1.543-.546c.313.162.619.341.921.524.013-.073.027-.147.038-.217q-.447-.362-.908-.711C67.249,43.44,67.233,43.573,67.216,43.709Zm-17.68-11.8c.416,4.042-.054,8.268.765,12.226-.16-3.842,1.054-7.8,1.341-11.686-.153,0-.309.009-.458.018.144-.018.3-.049.463-.079.025-.368.042-.736.049-1.1C50.983,31.472,50.268,31.687,49.536,31.912ZM65.8,43.061c.415.165.824.353,1.225.555.027-.144.056-.287.084-.429q-.614-.46-1.236-.894C65.849,42.548,65.824,42.8,65.8,43.061ZM47.585,32.486c.451,3.615.724,7.712,1.386,10.765-.158-3.336.223-7.581.26-11.249C48.694,32.167,48.147,32.333,47.585,32.486ZM85.54,43.1Zm-21.911-.723a14.954,14.954,0,0,1,1.8.546c.059-.271.12-.544.176-.818-.634-.438-1.26-.858-1.864-1.258C63.706,41.358,63.667,41.866,63.629,42.376Zm-19.05-12.19c1.213,3.742,1.247,8.662,2.582,12.282a88.356,88.356,0,0,1-.023-9.866c-.066.016-.133.034-.2.052.064-.027.137-.064.2-.093.007-.9-.011-1.766-.061-2.594C46.22,30.061,45.378,30.139,44.579,30.187Zm23.971,11.9.836.289c-.27-.187-.542-.373-.819-.551C68.561,41.915,68.554,42,68.549,42.09Zm-1.09-.387,1.052.372c.016-.085.029-.169.042-.253-.339-.219-.684-.426-1.034-.63C67.5,41.363,67.481,41.532,67.459,41.7Zm-1.489-.535c.479.171.96.345,1.43.512.034-.167.065-.334.1-.5-.481-.28-.971-.542-1.463-.792C66.014,40.646,65.993,40.906,65.971,41.169ZM36.99,39.846Zm21.277-6.355a4.791,4.791,0,0,1,1.535-.476c-.5-.095-1.016-.182-1.552-.251C58.255,33,58.262,33.247,58.266,33.491ZM47.212,29.952c.135.766.251,1.572.357,2.41.526-.253,1.091-.535,1.669-.833,0-.151,0-.3,0-.454-.016.006-.032.011-.047.016.015-.013.031-.024.047-.038,0-.452-.012-.895-.032-1.321C48.543,29.805,47.876,29.882,47.212,29.952Zm4.586,1.31c.027.357.04.723.047,1.093.68-.14,1.472-.365,2.27-.592.009-.144.009-.286.014-.429a9.29,9.29,0,0,0-1.523.334,8.21,8.21,0,0,1,1.529-.612c0-.066,0-.136,0-.2.006.065.006.13.011.2a8.122,8.122,0,0,1,1.136-.255l-.154,0A13.529,13.529,0,0,0,51.8,31.262Zm2.369.067c.009.138.02.274.024.412.466-.134.926-.263,1.37-.38,0-.036,0-.074,0-.11l-.149,0A9.687,9.687,0,0,0,54.168,31.329Zm-4.742-.318q.029.2.056.393c.628-.326,1.258-.655,1.854-.963C50.69,30.6,50.052,30.79,49.425,31.012Zm6.158.343.372-.093c-.124-.009-.251-.006-.375-.011C55.584,31.287,55.584,31.321,55.584,31.355Zm1.461-.317c.048-.007.1-.02.147-.024-.09-.021-.176-.032-.264-.048ZM49.21,29.731c.079.389.144.782.2,1.177a10.451,10.451,0,0,1,2.031-1.387C50.719,29.575,49.972,29.647,49.21,29.731ZM88.561,135.249ZM86.29,117.588Zm44.5-2.715Zm-2.972-1.515Zm-4.109-1.253Zm-110.017-.869Zm105.351-.7Zm-4.662-.5Zm-5.511-.32ZM54.61,105.54Zm-33.223-3.412ZM92.6,92.35Zm51.213-.652ZM130.887,79.97Zm-.994-.871Zm-69.079-.175.12.011Zm56.271-3.475ZM114.2,72.5Zm-1.826-.869Zm24.743-2.721Zm8.644-12.1ZM119.916,55.65Zm23.833-2.206ZM117.292,40.182Z" transform="translate(160.395 156.883)" stroke="rgba(0,0,0,0)" stroke-miterlimit="10" stroke-width="1"/>
      <g id="cross" transform="translate(65.082 27.654)" style="mix-blend-mode: soft-light;isolation: isolate">
        <line id="Line_1" data-name="Line 1" y1="417.185" transform="translate(180.646)" fill="none" stroke="rgba(1,255,195,0.66)" stroke-width="1"/>
        <line id="Line_2" data-name="Line 2" y1="417.185" transform="translate(361.293 104.296) rotate(60)" fill="none" stroke="rgba(1,255,195,0.66)" stroke-width="1"/>
        <line id="Line_3" data-name="Line 3" y1="417.185" transform="translate(361.293 312.889) rotate(120)" fill="none" stroke="rgba(1,255,195,0.66)" stroke-width="1"/>
      </g>
    </g>
    <g id="typescript" transform="translate(686 875.731)">
      <rect id="Rectangle-1" width="56.889" height="37.926" transform="translate(15.802 33.184)" fill="#fff"/>
      <g id="Group">
        <path id="Shape" d="M0-592.075v37.925H75.85V-630H0v37.925ZM61.126-595.1a9.443,9.443,0,0,1,4.744,2.733,12.492,12.492,0,0,1,1.818,2.432c.024.1-3.275,2.312-5.273,3.552-.072.048-.361-.265-.686-.747a4.3,4.3,0,0,0-3.564-2.143c-2.3-.157-3.78,1.047-3.768,3.058a2.781,2.781,0,0,0,.325,1.421c.506,1.047,1.445,1.674,4.395,2.95,5.43,2.336,7.754,3.877,9.2,6.068a11.006,11.006,0,0,1,.879,9.246c-1.2,3.154-4.19,5.3-8.392,6.008a23.258,23.258,0,0,1-5.779-.06A13.938,13.938,0,0,1,47.3-564.6a13.4,13.4,0,0,1-1.975-2.926,5.684,5.684,0,0,1,.7-.445c.337-.193,1.613-.927,2.817-1.625l2.179-1.264.458.674a10.184,10.184,0,0,0,2.877,2.757c2.42,1.276,5.743,1.1,7.38-.373a2.792,2.792,0,0,0,.987-2.275A2.779,2.779,0,0,0,62.161-572c-.59-.843-1.794-1.553-5.213-3.034-3.913-1.686-5.6-2.733-7.14-4.395a10,10,0,0,1-2.083-3.792,15.187,15.187,0,0,1-.132-4.84c.807-3.78,3.66-6.417,7.778-7.2a19.218,19.218,0,0,1,5.755.169ZM43.319-591.93l.024,3.106H33.47v28.052H26.487v-28.052H16.615v-3.046A29.847,29.847,0,0,1,16.7-595c.036-.048,6.044-.072,13.328-.06l13.256.036.036,3.094Z" transform="translate(0 630)" fill="#007acc" fill-rule="evenodd"/>
      </g>
    </g>
    <g id="webpack" transform="translate(1014 870.731)">
      <path id="Path_42" data-name="Path 42" d="M38.032,0,76.063,21.512V64.546L38.032,86.058,0,64.546V21.512Z" fill="#fff"/>
      <path id="Path_43" data-name="Path 43" d="M111.654,118.518,81.671,135.48V122.272l18.682-10.279Zm2.054-1.857V81.194L102.74,87.533v22.8Zm-64.654,1.857L79.037,135.48V122.272L60.345,111.993ZM47,116.661V81.194l10.967,6.339v22.8Zm1.287-37.766L79.037,61.5V74.266l-19.7,10.84-.157.088Zm64.133,0L81.671,61.5V74.266l19.7,10.83.157.088,10.889-6.289Z" transform="translate(-42.381 -55.456)" fill="#8ed6fb"/>
      <path id="Path_44" data-name="Path 44" d="M203.836,257.409,185.4,247.268V227.191l18.436,10.643Zm2.634,0,18.436-10.132V227.191L206.47,237.833ZM205.153,237.067Zm-18.5-12.2,18.5-10.171,18.5,10.171-18.5,10.682Z" transform="translate(-167.18 -193.601)" fill="#1c78c0"/>
    </g>
    <g id="prettier" transform="translate(891.931 948.898)">
      <g id="Icon-_x28_Dark_x29_">
        <g id="Group-2" data-name="Group">
          <path id="Rectangle" d="M151.591,40h3.182a1.591,1.591,0,1,1,0,3.182h-3.182a1.591,1.591,0,0,1,0-3.182Z" transform="translate(-102.263 -27.27)" fill="#56b3b4"/>
          <path id="Rectangle_1_" d="M1.591,200H17.5a1.591,1.591,0,0,1,0,3.182H1.591a1.591,1.591,0,0,1,0-3.182Z" transform="translate(0 -136.351)" fill="#ea5e5e"/>
          <path id="Rectangle_2_" d="M121.591,120h9.547a1.591,1.591,0,1,1,0,3.182h-9.547a1.591,1.591,0,0,1,0-3.182Z" transform="translate(-81.81 -81.81)" fill="#bf85bf"/>
          <path id="Rectangle_3_" d="M61.591,120h12.73a1.591,1.591,0,0,1,0,3.182H61.591a1.591,1.591,0,1,1,0-3.182Z" transform="translate(-40.905 -81.81)" fill="#ea5e5e"/>
          <path id="Rectangle_4_" d="M1.591,120h12.73a1.591,1.591,0,0,1,0,3.182H1.591a1.591,1.591,0,1,1,0-3.182Z" transform="translate(0 -81.81)" fill="#56b3b4"/>
          <path id="Rectangle_5_" d="M1.591,160H17.5a1.591,1.591,0,0,1,0,3.182H1.591a1.591,1.591,0,1,1,0-3.182Z" transform="translate(0 -109.081)" fill="#bf85bf"/>
          <path id="Rectangle_6_" d="M1.591,80H17.5a1.591,1.591,0,0,1,0,3.182H1.591a1.591,1.591,0,0,1,0-3.182Z" transform="translate(0 -54.54)" fill="#bf85bf"/>
          <path id="Rectangle_7_" d="M51.591,20H83.416a1.591,1.591,0,0,1,0,3.182H51.591a1.591,1.591,0,0,1,0-3.182Z" transform="translate(-34.088 -13.635)" fill="#f7ba3e"/>
          <path id="Rectangle_8_" d="M1.591,20h9.547a1.591,1.591,0,0,1,0,3.182H1.591a1.591,1.591,0,0,1,0-3.182Z" transform="translate(0 -13.635)" fill="#ea5e5e"/>
          <path id="Rectangle_9_" d="M41.591,180h3.182a1.591,1.591,0,1,1,0,3.182H41.591a1.591,1.591,0,0,1,0-3.182Z" transform="translate(-27.27 -122.716)" fill="#f7ba3e"/>
          <path id="Rectangle_10_" d="M41.591,60h3.182a1.591,1.591,0,1,1,0,3.182H41.591a1.591,1.591,0,1,1,0-3.182Z" transform="translate(-27.27 -40.905)" fill="#56b3b4"/>
          <path id="Rectangle_11_" d="M1.591,180H7.956a1.591,1.591,0,0,1,0,3.182H1.591a1.591,1.591,0,0,1,0-3.182Z" transform="translate(0 -122.716)" fill="#56b3b4"/>
          <path id="Rectangle_12_" d="M1.591,60H7.956a1.591,1.591,0,1,1,0,3.182H1.591a1.591,1.591,0,1,1,0-3.182Z" transform="translate(0 -40.905)" fill="#f7ba3e"/>
          <path id="Rectangle_13_" d="M131.591,180h3.183a1.591,1.591,0,0,1,0,3.182h-3.183a1.591,1.591,0,0,1,0-3.182Z" transform="translate(-88.628 -122.716)" fill="#4d616e" opacity="0.5"/>
          <path id="Rectangle_14_" d="M71.591,180h12.73a1.591,1.591,0,0,1,0,3.182H71.591a1.591,1.591,0,1,1,0-3.182Z" transform="translate(-47.723 -122.716)" fill="#4d616e" opacity="0.5"/>
          <path id="Rectangle_15_" d="M161.591,180h12.73a1.591,1.591,0,0,1,0,3.182h-12.73a1.591,1.591,0,0,1,0-3.182Z" transform="translate(-109.081 -122.716)" fill="#4d616e" opacity="0.5"/>
          <path id="Rectangle_16_" d="M81.591,100h25.46a1.591,1.591,0,0,1,0,3.182H81.591a1.591,1.591,0,1,1,0-3.182Z" transform="translate(-54.54 -68.175)" fill="#56b3b4"/>
          <path id="Rectangle_17_" d="M31.591,100h9.547a1.591,1.591,0,1,1,0,3.182H31.591a1.591,1.591,0,1,1,0-3.182Z" transform="translate(-20.453 -68.175)" fill="#f7ba3e"/>
          <path id="Rectangle_18_" d="M1.591,100H4.774a1.591,1.591,0,1,1,0,3.182H1.591a1.591,1.591,0,1,1,0-3.182Z" transform="translate(0 -68.175)" fill="#ea5e5e"/>
          <path id="Rectangle_19_" d="M91.591,40h12.73a1.591,1.591,0,0,1,0,3.182H91.591a1.591,1.591,0,1,1,0-3.182Z" transform="translate(-61.358 -27.27)" fill="#bf85bf"/>
          <path id="Rectangle_20_" d="M1.591,40H23.868a1.591,1.591,0,0,1,0,3.182H1.591a1.591,1.591,0,1,1,0-3.182Z" transform="translate(0 -27.27)" fill="#56b3b4"/>
          <path id="Rectangle_21_" d="M31.591,140H60.233a1.591,1.591,0,1,1,0,3.182H31.591a1.591,1.591,0,0,1,0-3.182Z" transform="translate(-20.453 -95.445)" fill="#f7ba3e"/>
          <path id="Rectangle_22_" d="M1.591,140H4.774a1.591,1.591,0,0,1,0,3.182H1.591a1.591,1.591,0,0,1,0-3.182Z" transform="translate(0 -95.445)" fill="#bf85bf"/>
          <path id="Rectangle_23_" d="M121.591,60H137.5a1.591,1.591,0,1,1,0,3.182H121.591a1.591,1.591,0,0,1,0-3.182Z" transform="translate(-81.81 -40.905)" fill="#ea5e5e"/>
          <path id="Rectangle_24_" d="M121.591,80H137.5a1.591,1.591,0,0,1,0,3.182H121.591a1.591,1.591,0,0,1,0-3.182Z" transform="translate(-81.81 -54.54)" fill="#f7ba3e"/>
          <path id="Rectangle_25_" d="M1.591,0h38.19a1.576,1.576,0,0,1,1.591,1.591,1.576,1.576,0,0,1-1.591,1.591H1.591A1.576,1.576,0,0,1,0,1.591,1.576,1.576,0,0,1,1.591,0Z" fill="#56b3b4"/>
          <path id="Rectangle_26_" d="M141.591,0h19.095a1.576,1.576,0,0,1,1.591,1.591,1.576,1.576,0,0,1-1.591,1.591H141.591A1.576,1.576,0,0,1,140,1.591,1.576,1.576,0,0,1,141.591,0Z" transform="translate(-95.445)" fill="#4d616e" opacity="0.5"/>
          <path id="Rectangle_27_" d="M141.591,140h6.365a1.591,1.591,0,0,1,0,3.182h-6.365a1.591,1.591,0,0,1,0-3.182Z" transform="translate(-95.445 -95.445)" fill="#4d616e" opacity="0.5"/>
          <path id="Rectangle_28_" d="M181.591,140h6.365a1.591,1.591,0,1,1,0,3.182h-6.365a1.591,1.591,0,0,1,0-3.182Z" transform="translate(-122.716 -95.445)" fill="#4d616e" opacity="0.5"/>
          <path id="Rectangle_29_" d="M171.591,120h9.547a1.591,1.591,0,1,1,0,3.182h-9.547a1.591,1.591,0,0,1,0-3.182Z" transform="translate(-115.898 -81.81)" fill="#4d616e" opacity="0.5"/>
          <path id="Rectangle_30_" d="M171.591,20h9.547a1.591,1.591,0,1,1,0,3.182h-9.547a1.591,1.591,0,0,1,0-3.182Z" transform="translate(-115.898 -13.635)" fill="#4d616e" opacity="0.5"/>
          <path id="Rectangle_31_" d="M181.591,100h6.365a1.591,1.591,0,1,1,0,3.182h-6.365a1.591,1.591,0,1,1,0-3.182Z" transform="translate(-122.716 -68.175)" fill="#4d616e" opacity="0.5"/>
          <path id="Rectangle_32_" d="M181.591,40h6.365a1.591,1.591,0,1,1,0,3.182h-6.365a1.591,1.591,0,1,1,0-3.182Z" transform="translate(-122.716 -27.27)" fill="#4d616e" opacity="0.5"/>
          <path id="Rectangle_33_" d="M191.591,60h3.182a1.591,1.591,0,0,1,0,3.182h-3.182a1.591,1.591,0,0,1,0-3.182Z" transform="translate(-129.533 -40.905)" fill="#4d616e" opacity="0.5"/>
          <path id="Rectangle_34_" d="M191.591,80h3.182a1.591,1.591,0,0,1,0,3.182h-3.182a1.591,1.591,0,0,1,0-3.182Z" transform="translate(-129.533 -54.54)" fill="#4d616e" opacity="0.5"/>
          <path id="Rectangle_35_" d="M111.591,160h28.642a1.591,1.591,0,0,1,0,3.182H111.591a1.591,1.591,0,0,1,0-3.182Z" transform="translate(-74.993 -109.081)" fill="#4d616e" opacity="0.5"/>
          <path id="Rectangle_36_" d="M71.591,160h6.365a1.591,1.591,0,0,1,0,3.182H71.591a1.591,1.591,0,1,1,0-3.182Z" transform="translate(-47.723 -109.081)" fill="#4d616e" opacity="0.5"/>
          <path id="Rectangle_37_" d="M151.591,200H167.5a1.591,1.591,0,0,1,0,3.182H151.591a1.591,1.591,0,0,1,0-3.182Z" transform="translate(-102.263 -136.351)" fill="#4d616e" opacity="0.5"/>
          <path id="Rectangle_38_" d="M71.591,200H90.686a1.591,1.591,0,1,1,0,3.182H71.591a1.591,1.591,0,1,1,0-3.182Z" transform="translate(-47.723 -136.351)" fill="#4d616e" opacity="0.5"/>
          <path id="Rectangle_39_" d="M71.591,60h9.547a1.591,1.591,0,1,1,0,3.182H71.591a1.591,1.591,0,1,1,0-3.182Z" transform="translate(-47.723 -40.905)" fill="#4d616e" opacity="0.5"/>
          <path id="Rectangle_40_" d="M71.591,80h9.547a1.591,1.591,0,1,1,0,3.182H71.591a1.591,1.591,0,1,1,0-3.182Z" transform="translate(-47.723 -54.54)" fill="#4d616e" opacity="0.5"/>
        </g>
      </g>
    </g>
    <path id="babel" d="M23.13,5.427a70.724,70.724,0,0,1-7.71,4.864l.033.5a2.065,2.065,0,0,0,.761-.3c.331-.033.529.1.529.43l.529-.3.265-.033.033.232c.033.232-1.787,1.654-5.394,4.2l.3.463-.265.033-.563-.2c0,.165-.232.265-.761.3l.033.265.6.662a2.113,2.113,0,0,1-.794-.165c-1.158.1-2.316.96-3.441,2.548l.3.463A7.068,7.068,0,0,1,9.3,18.034l.066.728a2.3,2.3,0,0,0-.761.3l.629.927A18.517,18.517,0,0,1,13.17,16.71c.728.2,1.092.4,1.092.662l.529-.033a41.968,41.968,0,0,1,11.515-6.221l.033.5c-.695,1.059-1.191,1.588-1.456,1.621a2,2,0,0,0,.364.96c.066.662-1.654,5-5.162,13.07Q8.074,55.359,0,68.827a1.96,1.96,0,0,0,.3.728,6.93,6.93,0,0,0,2.548-.96l.3-.033.033.5.5-.033.529-.3c0,.165.2.232.529.2l.033.5a4.446,4.446,0,0,1-.86,2.283,11.907,11.907,0,0,0-1.754,3.872l.033.232.5-.033a31.794,31.794,0,0,0,4.93-7.114,79.135,79.135,0,0,0,14.46-5.46c3.342-.3,5.923-1.158,7.644-2.614l-.033-.265-1.257.364-.3.033-.033-.265a11.477,11.477,0,0,0,5.1-1.654c4.8-3.706,8.4-6.32,10.853-7.875,7.578-5.559,11.151-10.92,10.721-16.015-.033-.529-1.721-2.614-5-6.254-.066-.695,1.092-1.688,3.408-3.011l6.585-5.791c1.456-1.886,2.349-4.93,2.647-9.133l-.1-.993c-.265-2.945-2.382-5.327-6.419-7.147Q52.315.149,43.083,0C38.02.463,31.336,2.25,23.13,5.427Zm35.472.43-.2.5L51.058,3.276q7.346.3,7.544,2.581ZM28.887,26.24c.5-2.713,1.059-4.269,1.688-4.633L36.068,9.265C36,8.5,37.16,7.908,39.575,7.511l.794-.066.066.695c2.382-.364,3.838-.563,4.4-.629,4.368-.364,6.618.5,6.816,2.647l.5-.033-.1-1.257.529-.033a3.3,3.3,0,0,1,2.052,2.581A3.865,3.865,0,0,1,53.506,14c-.331.033-.529-.2-.563-.695l-.529.033-.132,1.489c-2.217,3.309-3.805,5-4.8,5.1q-1.34,1.836-1.688,1.886A30.29,30.29,0,0,1,40.1,26.042c-1.026.1-4.831,1.555-11.416,4.434a1.893,1.893,0,0,0-1.059-.165l-.033-.463a6.127,6.127,0,0,1,1.29-3.607ZM59.3,11.019l.033.463c-.265.033-.761-.761-1.489-2.349l-.033-.463c.463-.066.96.728,1.489,2.349Zm-48.311,5.89.033.232a2.3,2.3,0,0,0-.761.3l-.265.033-.033-.463Zm15.982-.4.066.728c-.232.033-.563.364-.96,1.059l-.033-.5a2.459,2.459,0,0,0,.695-1.29ZM24.52,21.674l.1.993-.265.033-.1-.993Zm-.629,1.787c-.066.827-.265,1.257-.695,1.291l-.265.033a2.53,2.53,0,0,0,.43-1.257ZM22.8,26.042l.033.232-.463.794-.5.033-.033-.232a.66.66,0,0,0,.695-.794Zm-1.125,2.316-.132,1.224-.265.033-.1-1.224Zm26.836.893,1.092.662a.465.465,0,0,1-.463.563,2.209,2.209,0,0,0-1.092-.43l-.066-.728ZM27.5,32.064l.033.463-1.026.1-.033-.463ZM44.44,33.785c.728.331,1.092.662,1.125.927l.033.232a2.166,2.166,0,0,1-1.919-1.092ZM22.6,39.145c2.978-.265,7.677-1.654,14.063-4.169l1.555-.132c3.243-.265,5.658.331,7.247,1.853l.1.993c-1.191,3.441-2.515,5.427-3.938,6.055l-6.618,5.261c-4.93,3.243-7.578,4.864-7.975,4.9-7.842,4.335-12.74,6.552-14.626,6.717l-.3.033c.265-.927,3.739-8.074,10.489-21.508Zm7.147-2.813.033.232-1.059.1-.033-.232Zm23.758-1.059.165,1.952c-.232.529-.463.794-.728.794l-.3-3.441c.563.232.827.463.86.695ZM13.236,52.348c-.331,1.688-.695,2.548-1.059,2.581l-.033-.232a2.821,2.821,0,0,1,1.092-2.349Zm6.618,9.331c1.919-.364,7.18-3.144,15.817-8.272l.033.463c.033.2-.728.827-2.217,1.919-4.4,2.151-6.982,3.64-7.743,4.4-4.765,1.654-7.114,2.68-7.081,3.077a79.678,79.678,0,0,0-8.339,3.673,3.049,3.049,0,0,1-1.357-.364,2.206,2.206,0,0,1,1.158-2.118,4.21,4.21,0,0,1,2.118.331,20.428,20.428,0,0,1,4.1-1.324l-.033-.5-1.555.132c.2-.265,1.688-.96,4.533-2.118l.794-.066.033.232c-1.324.1-2.085.529-2.25,1.224a.432.432,0,0,0,.529.43,6.4,6.4,0,0,0,1.456-1.125Zm-8.14-5.989.033.232a.465.465,0,0,1-.463.563l-.033-.232a.493.493,0,0,1,.463-.563Zm12.376,3.375a11.747,11.747,0,0,0-3.541,1.555l-.265.033-.033-.5a5.022,5.022,0,0,0,3.243-1.489c.364-.066.563.1.6.4ZM11.251,62.639l.794-.066.033.265a2.065,2.065,0,0,0-.761.3l-.5.033c-.033-.232.1-.43.43-.529ZM5.989,65.584l.563.232c-.2,1.489-.629,2.25-1.39,2.316A3.391,3.391,0,0,0,3.541,67.8l-.066-.728c-.033-.3.132-.463.5-.563.331-.033.529.2.563.695a10.847,10.847,0,0,1,1.456-1.621Z" transform="translate(693 541.731)" fill="#f5da55"/>
    <g id="eslint" transform="translate(809.691 948.898)">
      <path id="Path_63" data-name="Path 63" d="M95.646,79.028l14.45-8.343a1.169,1.169,0,0,1,1.169,0l14.45,8.343a1.17,1.17,0,0,1,.584,1.012V96.726a1.171,1.171,0,0,1-.584,1.013l-14.45,8.343a1.169,1.169,0,0,1-1.169,0l-14.45-8.343a1.17,1.17,0,0,1-.584-1.013V80.041a1.17,1.17,0,0,1,.584-1.012" transform="translate(-72.64 -54.705)" fill="#8080f2"/>
      <path id="Path_64" data-name="Path 64" d="M95.523,49.414,78.258,19.378a3.639,3.639,0,0,0-3.04-1.887H40.687a3.64,3.64,0,0,0-3.04,1.887L20.382,49.348a3.572,3.572,0,0,0,0,3.544l17.265,29.79a3.409,3.409,0,0,0,3.04,1.641H75.218a3.393,3.393,0,0,0,3.04-1.625L95.523,52.86a3.387,3.387,0,0,0,0-3.445m-14.3,14.444a1.266,1.266,0,0,1-.649,1.071L58.586,77.617a1.251,1.251,0,0,1-1.244,0L35.333,64.929a1.268,1.268,0,0,1-.65-1.071V38.481a1.264,1.264,0,0,1,.647-1.071L57.32,24.722a1.249,1.249,0,0,1,1.244,0L80.574,37.41a1.269,1.269,0,0,1,.652,1.071Z" transform="translate(-19.911 -17.491)" fill="#4b32c3"/>
    </g>
    <g id="gatsby" transform="translate(850.585 465.78)">
      <circle id="Ellipse_7" data-name="Ellipse 7" cx="37.5" cy="37.5" r="37.5" transform="translate(0.415 -0.048)" fill="#639"/>
      <g id="Group_32" data-name="Group 32" transform="translate(7.709 7.971)">
        <path id="Path_140" data-name="Path 140" d="M11.544,34.491A28.981,28.981,0,0,1,3,14.2L32.1,43.034A30.306,30.306,0,0,1,11.544,34.491Z" transform="translate(-3 15.702)" fill="#fff"/>
        <path id="Path_141" data-name="Path 141" d="M38.275,60.936,3.3,25.961A29.35,29.35,0,0,1,55.629,15.014l-4,3.471A24.648,24.648,0,0,0,31.867,8.34,24.283,24.283,0,0,0,9.174,24.359l30.7,30.7A24.2,24.2,0,0,0,55.362,37.708H42.547v-5.34H61.236A29.452,29.452,0,0,1,38.275,60.936Z" transform="translate(-2.499 -3)" fill="#fff"/>
      </g>
    </g>
  </g>
</svg>
