<svg xmlns="http://www.w3.org/2000/svg" xmlns:xlink="http://www.w3.org/1999/xlink" width="495.753" height="541.501" viewBox="0 0 495.753 541.501">
  <defs>
    <linearGradient id="linear-gradient" x1="-1.3" y1="-1.396" x2="-0.291" y2="-2.047" gradientUnits="objectBoundingBox">
      <stop offset="0" stop-color="#909ca9"/>
      <stop offset="1" stop-color="#ededee"/>
    </linearGradient>
    <linearGradient id="linear-gradient-2" x1="-3.045" y1="-8.339" x2="-1.552" y2="-8.339" gradientUnits="objectBoundingBox">
      <stop offset="0" stop-color="#939fab"/>
      <stop offset="1" stop-color="#dcdee1"/>
    </linearGradient>
    <radialGradient id="radial-gradient" cx="0.448" cy="0.441" r="0.696" gradientTransform="matrix(-0.691, -0.15, 0.209, -1.975, -4.002, -3.967)" gradientUnits="objectBoundingBox">
      <stop offset="0" stop-color="#ee352c"/>
      <stop offset="1" stop-color="#a91d22"/>
    </radialGradient>
    <radialGradient id="radial-gradient-2" cx="0.44" cy="0.481" r="0.517" gradientTransform="matrix(0, -1, 1.492, 0, -0.278, 0.921)" gradientUnits="objectBoundingBox">
      <stop offset="0" stop-color="#f9c80e"/>
      <stop offset="1" stop-color="#f6019d"/>
    </radialGradient>
    <filter id="Path_13" x="119.547" y="98.075" width="297.887" height="359.129" filterUnits="userSpaceOnUse">
      <feOffset input="SourceAlpha"/>
      <feGaussianBlur stdDeviation="1.5" result="blur"/>
      <feFlood flood-color="#0d0221"/>
      <feComposite operator="in" in2="blur"/>
      <feComposite in="SourceGraphic"/>
    </filter>
  </defs>
  <g id="skills_backend" transform="translate(-640.754 -478.089)">
    <g id="dotnet_core" transform="translate(1015.031 868.089)">
      <circle id="Ellipse_6" data-name="Ellipse 6" cx="37.574" cy="37.574" r="37.574" transform="translate(1.047)" fill="#5c2d91"/>
      <path id="Path_21" data-name="Path 21" d="M11.686,9a37.574,37.574,0,1,0,53.05,53.05Z" transform="translate(0.892 1.568)" fill="#fff" opacity="0.1"/>
      <path id="Path_22" data-name="Path 22" d="M7.646,37.746a1.585,1.585,0,0,1-1.174-.493,1.62,1.62,0,0,1-.481-1.174A1.644,1.644,0,0,1,6.471,34.9a1.573,1.573,0,0,1,1.174-.5,1.609,1.609,0,0,1,1.174.5,1.632,1.632,0,0,1,.493,1.174,1.684,1.684,0,0,1-1.667,1.667Z" transform="translate(2.09 5.992)" fill="#fff"/>
      <path id="Path_23" data-name="Path 23" d="M29.827,40.176H26.751l-11-17.073a7.045,7.045,0,0,1-.681-1.339h-.094a21.981,21.981,0,0,1,.117,2.935V40.176h-2.5V18.77h3.253L26.551,35.538q.669,1.045.869,1.433h.059a22.639,22.639,0,0,1-.153-3.147V18.77h2.5Z" transform="translate(3.24 3.27)" fill="#fff"/>
      <path id="Path_24" data-name="Path 24" d="M43.378,40.176H32V18.77H42.85v2.266H34.56v7.116h7.726v2.254H34.56v7.421h8.83Z" transform="translate(6.621 3.27)" fill="#fff"/>
      <path id="Path_25" data-name="Path 25" d="M58.207,21.036H51.984V40.176h-2.5V21.036H43.33V18.77H58.207Z" transform="translate(8.595 3.27)" fill="#fff"/>
      <path id="Path_26" data-name="Path 26" d="M27.213,50.822a5.789,5.789,0,0,1-2.724.575,4.392,4.392,0,0,1-3.37-1.35,5,5,0,0,1-1.268-3.523A5.237,5.237,0,0,1,21.272,42.7a4.838,4.838,0,0,1,3.617-1.456,5.789,5.789,0,0,1,2.348.411v1.174a4.7,4.7,0,0,0-2.348-.587,3.593,3.593,0,0,0-2.759,1.174,4.274,4.274,0,0,0-1.057,3.029,4.074,4.074,0,0,0,.986,2.877,3.358,3.358,0,0,0,2.595,1.069,4.861,4.861,0,0,0,2.572-.658Z" transform="translate(4.504 7.183)" fill="#f2f2f2"/>
      <path id="Path_27" data-name="Path 27" d="M30.72,50.993a3.264,3.264,0,0,1-2.5-1.045,3.652,3.652,0,0,1-.928-2.618,3.8,3.8,0,0,1,.975-2.771,3.523,3.523,0,0,1,2.618-1,3.159,3.159,0,0,1,2.454.975,3.851,3.851,0,0,1,.881,2.689,3.781,3.781,0,0,1-.951,2.7,3.335,3.335,0,0,1-2.548,1.069ZM30.8,44.57a2.149,2.149,0,0,0-1.714.74,3.041,3.041,0,0,0-.634,2.043,2.877,2.877,0,0,0,.634,1.973,2.172,2.172,0,0,0,1.714.728,2.067,2.067,0,0,0,1.679-.7,3.076,3.076,0,0,0,.587-2.02,3.123,3.123,0,0,0-.587-2.031A2.055,2.055,0,0,0,30.8,44.57Z" transform="translate(5.8 7.587)" fill="#f2f2f2"/>
      <path id="Path_28" data-name="Path 28" d="M38.407,44.907a1.386,1.386,0,0,0-.857-.223,1.444,1.444,0,0,0-1.174.681,3.147,3.147,0,0,0-.481,1.855v3.593H34.72V43.768h1.174v1.468h0a2.466,2.466,0,0,1,.74-1.174,1.679,1.679,0,0,1,1.1-.411,1.844,1.844,0,0,1,.669.094Z" transform="translate(7.095 7.603)" fill="#f2f2f2"/>
      <path id="Path_29" data-name="Path 29" d="M44.637,47.593H39.671a2.63,2.63,0,0,0,.6,1.808,2.184,2.184,0,0,0,1.667.634,3.523,3.523,0,0,0,2.184-.787v1.057a4.086,4.086,0,0,1-2.454.669,2.982,2.982,0,0,1-2.348-.963,3.934,3.934,0,0,1-.857-2.7,3.851,3.851,0,0,1,.928-2.677A2.994,2.994,0,0,1,41.737,43.6a2.654,2.654,0,0,1,2.137.892,3.734,3.734,0,0,1,.751,2.489Zm-1.174-.951a2.348,2.348,0,0,0-.47-1.515,1.609,1.609,0,0,0-1.292-.54,1.82,1.82,0,0,0-1.35.575,2.6,2.6,0,0,0-.693,1.491Z" transform="translate(7.746 7.594)" fill="#f2f2f2"/>
    </g>
    <g id="nodejs" transform="translate(1018.031 538.089)">
      <path id="Path_40" data-name="Path 40" d="M32.285,1.4a6.436,6.436,0,0,1,6.283,0q14.349,8.108,28.7,16.211A5.908,5.908,0,0,1,70.252,22.7V55.223a5.972,5.972,0,0,1-3.207,5.2q-14.3,8.063-28.6,16.133a6.254,6.254,0,0,1-6.353-.177q-4.288-2.486-8.581-4.961a5.052,5.052,0,0,1-1.655-1.192c.365-.492,1.017-.553,1.546-.767a20.03,20.03,0,0,0,3.385-1.579.79.79,0,0,1,.881.053c2.444,1.4,4.867,2.844,7.32,4.232.523.3,1.053-.1,1.5-.348q14.035-7.932,28.079-15.846a.929.929,0,0,0,.51-.914q.01-16.092,0-32.186a1.006,1.006,0,0,0-.6-1Q50.233,13.84,35.987,5.8a.99.99,0,0,0-1.119,0Q20.618,13.833,6.373,21.871a.994.994,0,0,0-.6,1q0,16.092,0,32.187a.91.91,0,0,0,.517.9q3.8,2.156,7.61,4.3a5.881,5.881,0,0,0,4.758.637A3.609,3.609,0,0,0,20.993,57.5c.013-10.665-.007-21.332.01-32a.8.8,0,0,1,.875-.82c1.218-.008,2.438-.016,3.656,0a.843.843,0,0,1,.8.975c0,10.733.013,21.466-.008,32.2,0,2.86-1.172,5.973-3.818,7.372a11.757,11.757,0,0,1-10.508-.289c-2.788-1.391-5.448-3.033-8.186-4.524A5.958,5.958,0,0,1,.6,55.223V22.7A5.919,5.919,0,0,1,3.69,17.55Q17.989,9.48,32.285,1.4Z" transform="translate(-0.603 -0.584)" fill="#8cc84b"/>
      <path id="Path_41" data-name="Path 41" d="M116.3,85.708c4.158-.268,8.609-.159,12.35,1.89A9.34,9.34,0,0,1,133.2,95.68a.875.875,0,0,1-.949.644c-1.206,0-2.413.016-3.619-.008a.933.933,0,0,1-.873-.9,5.51,5.51,0,0,0-2.636-3.808c-2.225-1.114-4.8-1.058-7.231-1.035a9.815,9.815,0,0,0-5.176,1.289,3.28,3.28,0,0,0-1.091,3.664c.388.921,1.451,1.218,2.321,1.492,5.011,1.31,10.32,1.18,15.235,2.9a7.173,7.173,0,0,1,4.722,4.2,8.974,8.974,0,0,1-1.52,8.561,12,12,0,0,1-6.44,3.471,30.942,30.942,0,0,1-9.721.413c-3.04-.347-6.2-1.145-8.551-3.217a8.974,8.974,0,0,1-2.89-7.079.811.811,0,0,1,.888-.715c1.215-.01,2.43-.013,3.644,0a.851.851,0,0,1,.87.842,5.522,5.522,0,0,0,2.055,3.877c2.469,1.593,5.567,1.484,8.394,1.528,2.342-.1,4.971-.135,6.883-1.683a3.8,3.8,0,0,0,1.035-3.631c-.3-1.073-1.418-1.573-2.381-1.9-4.946-1.565-10.315-1-15.214-2.766a7.4,7.4,0,0,1-4.676-4.075,8.346,8.346,0,0,1,1.667-8.683c2.188-2.2,5.348-3.052,8.351-3.355Z" transform="translate(-76.302 -62.362)" fill="#8cc84b"/>
    </g>
    <g id="mongodb" transform="translate(707.031 538.089)">
      <g id="Group_29" data-name="Group 29" transform="translate(0 0)">
        <path id="Path_65" data-name="Path 65" d="M14.183.175,16.219,4a10.861,10.861,0,0,0,1.55,1.912,53.414,53.414,0,0,1,4.777,5.4,46.7,46.7,0,0,1,7.438,15,36.879,36.879,0,0,1,1.578,10.179A35.923,35.923,0,0,1,21.073,63a30.3,30.3,0,0,1-3.743,3.2c-.706,0-1.039-.541-1.33-1.039a8.579,8.579,0,0,1-1.039-2.98,14.985,14.985,0,0,1-.334-3.781v-.582C14.558,57.657,13.935.443,14.183.175Z" transform="translate(2.703 0.032)" fill="#599636"/>
        <path id="Path_66" data-name="Path 66" d="M16.893.083c-.083-.167-.167-.041-.238.041a3.762,3.762,0,0,1-.706,2.289,10.133,10.133,0,0,1-1.828,1.828A39.82,39.82,0,0,0,5.188,15.626,45.685,45.685,0,0,0,.039,34.24,61.127,61.127,0,0,0,1.522,47.368a39.805,39.805,0,0,0,10.43,16.413,41.815,41.815,0,0,0,3.7,3.159c.374,0,.415-.334.477-.582a11.407,11.407,0,0,0,.374-1.621l.834-6.232Z" transform="translate(-0.007 -0.001)" fill="#6cac48"/>
        <path id="Path_67" data-name="Path 67" d="M16.409,59.53A5.688,5.688,0,0,1,17.448,57a2.752,2.752,0,0,1-1.163-1.08,7.712,7.712,0,0,1-.62-1.371,23.726,23.726,0,0,1-.873-5.359v-1.08c-.207.167-.238,1.578-.238,1.788a41.546,41.546,0,0,1-.749,5.609,4.991,4.991,0,0,1-.668,2.16.827.827,0,0,0,.041.291,24.81,24.81,0,0,1,1.08,6.732v.834c0,1-.041.787.787,1.12a3.644,3.644,0,0,1,1.039.415c.238,0,.291-.207.291-.374l-.124-1.371V61.487a10.112,10.112,0,0,1,.167-1.955Z" transform="translate(2.513 9.233)" fill="#c2bfbf"/>
      </g>
    </g>
    <g id="mssql" transform="translate(689.031 867.089)">
      <g id="g3545" transform="translate(0 0)">
        <g id="layer1-2">
          <path id="path3639" d="M94.182,262.961l-15.317,5-13.316,5.882-3.731.986q-1.419,1.349-3.018,2.742c-1.175,1.022-2.28,1.949-3.12,2.619a23.766,23.766,0,0,0-3.038,3.011A13.361,13.361,0,0,0,50.4,287a6.338,6.338,0,0,0,.906,5.727c1.576,2.32,4.715,4.677,8.365,6.281a54.417,54.417,0,0,0,7.359,2.469A97.689,97.689,0,0,0,82.723,303.7a18.263,18.263,0,0,0,2.028,0,27.83,27.83,0,0,0,1.5-2.834A71.416,71.416,0,0,0,91.674,286.5a66.67,66.67,0,0,0,1.383-9.956c.086-1.126.117-4.883.051-6.16a43.214,43.214,0,0,0-.584-5.434,1.385,1.385,0,0,1-.036-.477,18.514,18.514,0,0,1,2.069-.63Zm-3.5,2.054a37.693,37.693,0,0,1,.606,5.8,2.907,2.907,0,0,1-.012.785c-.091,0-1.962-1.1-3.287-1.931-1.158-.727-3.355-2.187-3.7-2.461-.11-.086-.1-.091.848-.417C86.742,266.239,90.56,265.015,90.681,265.015Zm-7.8,2.561a3.82,3.82,0,0,1,1.005.547,72.688,72.688,0,0,0,7.011,3.9c.43.188.479.115-.511.787a51.287,51.287,0,0,1-7.955,4.273c-.561.249-1.037.453-1.056.453a3.15,3.15,0,0,1,.138-.635,33.361,33.361,0,0,0,1.233-8.137c.006-1.156.006-1.162.116-1.189Zm-1.606.613a26.217,26.217,0,0,1-.065,3.365,29.332,29.332,0,0,1-1.063,5.039c-.127.425-.245.792-.264.814a20.667,20.667,0,0,1-2.156-2.1,15.671,15.671,0,0,1-2.129-3.1,9.608,9.608,0,0,1-.644-1.572C75.128,270.5,81.229,268.145,81.272,268.188Zm-7.565,2.982a.049.049,0,0,1,.031.012,2.81,2.81,0,0,1,.179.419,15.684,15.684,0,0,0,1.919,3.442,19.909,19.909,0,0,0,2.67,2.883l.569.489c.073.065.1.054-1.79.77-2.189.83-4.572,1.661-7.309,2.546-1.043.337-1.925.622-1.96.635-.1.039-.072-.026.233-.5a64.253,64.253,0,0,0,4.571-9.213c.2-.509.39-1.02.424-1.134a.381.381,0,0,1,.257-.3.476.476,0,0,1,.206-.053Zm-2.318.957a25.864,25.864,0,0,1-1.134,2.393c-1.12,2.185-2.355,4.335-3.995,6.96-.283.453-.544.867-.579.918-.058.085-.082.057-.262-.3a10.535,10.535,0,0,1-.891-2.682,10.8,10.8,0,0,1,.063-3.45c.151-.723.144-.707.484-.882C66.548,274.331,71.341,272.085,71.389,272.127Zm19.968.812v.492a64.055,64.055,0,0,1-.678,8.7c-.07.453-.131.826-.136.831s-.331-.091-.724-.213A29.828,29.828,0,0,1,84.5,280.47a24.285,24.285,0,0,1-2.708-1.662c.012-.012.492-.267,1.066-.564a67.633,67.633,0,0,0,6.332-3.714c.708-.473,1.768-1.24,2-1.446Zm-28.711,3.423c.047,0,.035.087-.039.514-.051.3-.11.856-.131,1.243a8.48,8.48,0,0,0,1.022,4.651c.234.475.417.871.407.879-.084.07-7.741,2.311-10.148,2.97-.714.2-1.337.367-1.388.383-.084.025-.091.007-.061-.189a12.1,12.1,0,0,1,3.37-5.8,15.121,15.121,0,0,1,3.806-2.917c1.176-.671,3-1.679,3.137-1.73A.08.08,0,0,1,62.646,276.362ZM80.706,279.6a6.209,6.209,0,0,1,.63.339A34.6,34.6,0,0,0,90.2,283.38l.266.061-.366.2c-1.537.853-6.6,2.959-11.768,4.9-.755.283-1.491.561-1.635.618a1,1,0,0,1-.262.085c0-.011.213-.422.475-.911a57.3,57.3,0,0,0,3.643-8.3C80.631,279.8,80.7,279.6,80.706,279.6Zm-1.841.6a4.419,4.419,0,0,1-.2.538,74.98,74.98,0,0,1-4.016,8.091c-.429.761-.791,1.382-.8,1.381s-.363-.208-.775-.46a23.7,23.7,0,0,1-6.054-5.153l-.2-.254,1.059-.291a75.225,75.225,0,0,0,10.162-3.513C78.482,280.344,78.857,280.191,78.865,280.2ZM90.3,284.191a.009.009,0,0,1,.007.01c0,.257-.584,2.639-1.071,4.363-.408,1.446-.751,2.577-1.386,4.581-.28.885-.521,1.607-.535,1.6s-.082-.017-.15-.029a47.8,47.8,0,0,1-9.406-2.65c-.807-.324-1.973-.841-2.035-.9a14.693,14.693,0,0,1,1.548-.729c5.271-2.3,10.732-4.919,12.6-6.042A1.377,1.377,0,0,1,90.3,284.191Zm-26.4.9c.028.027-1.446,2.137-3.505,5.019-.716,1-1.556,2.182-1.868,2.624s-.782,1.139-1.049,1.553l-.487.751-.518-.436a20.617,20.617,0,0,1-2.156-2.2,9.489,9.489,0,0,1-1.933-3.74c-.123-.553-.126-.835-.01-.87.169-.051,3.261-.779,6.16-1.451,1.611-.373,3.473-.811,4.14-.971S63.895,285.089,63.9,285.095Zm1.483.567.373.417a21.546,21.546,0,0,0,5.434,4.44,2.972,2.972,0,0,1,.62.409c-.086.053-7.156,2.567-10.426,3.706-1.844.643-3.359,1.166-3.367,1.165a2.735,2.735,0,0,1-.23-.153l-.213-.153.334-.482c1.085-1.571,2.448-3.3,5.431-6.889Zm9.239,6.6c.008-.01.525.173,1.151.407A36.761,36.761,0,0,0,80.066,294a48.751,48.751,0,0,0,6.492,1.126c.258.022.39.051.349.078-.078.049-1.782.619-3.035,1.013-1.989.625-8.067,2.421-13.023,3.847-.919.265-1.705.488-1.747.5-.111.023-.5-.079-.5-.131a9.282,9.282,0,0,1,.615-.78,70.164,70.164,0,0,0,4.7-6.323C74.3,292.755,74.615,292.275,74.623,292.265Zm-2.047.058c.015.015-.806,1.33-2.25,3.6-.61.961-1.3,2.054-1.538,2.43s-.584.947-.77,1.272l-.339.591-.172-.046c-.415-.112-3.342-1.147-4.116-1.453a26.92,26.92,0,0,1-2.694-1.238,11.222,11.222,0,0,1-2-1.265c.026-.008,1.61-.442,3.517-.962,5.074-1.383,7.88-2.178,9.721-2.752.344-.107.631-.188.637-.182ZM86.987,295.7c.011,0,.016,0,.017,0,.048.12-1.83,5.323-2.517,6.972-.154.369-.211.459-.291.455-.194-.008-2.918-.389-4.566-.639-2.886-.438-7.719-1.282-8.939-1.56l-.283-.063,1.73-.39c3.707-.835,5.488-1.283,7.294-1.836a52.7,52.7,0,0,0,6.812-2.626,6.784,6.784,0,0,1,.744-.312Z" transform="translate(-50.077 -227.264)" fill="url(#linear-gradient)"/>
          <path id="path3667" d="M123.919,87.372c-.256-.03-4.367,1.451-7.008,2.524a43.556,43.556,0,0,0-8.072,4.05,5.894,5.894,0,0,0-1.558,1.562,1.135,1.135,0,0,0-.065.39l1.555,1.468,3.689,1.177,8.789,1.57,10.046,1.727.1-.862-.09-.015-1.323-.208-.269-.472c-1.365-2.409-2.874-5.391-3.75-7.408a39.072,39.072,0,0,1-1.691-4.666C124.061,87.436,124.038,87.385,123.919,87.372Zm-.194.6c.01,0,.015,0,.017,0s.055.333.1.717a24.359,24.359,0,0,0,1.126,4.876c.427,1.273.433,1.2-.075,1.056-1.181-.33-6.474-1.238-10.3-1.768-.617-.085-1.13-.161-1.139-.17-.049-.049,2.761-1.521,4.007-2.1C119.058,89.836,123.409,88.024,123.725,87.967ZM112.57,93.149l.448.153a69.17,69.17,0,0,0,12.025,2.3c.384.032.707.066.717.075a7.468,7.468,0,0,1-.724.388c-1.643.823-3.451,1.826-4.7,2.609a4.394,4.394,0,0,1-.749.412c-.044,0-.287-.042-.54-.085l-.463-.075-1.163-1.129c-2.041-1.976-3.635-3.5-4.251-4.082Zm-.455.363,1.628,2.032c.9,1.118,1.794,2.227,1.994,2.466a3.566,3.566,0,0,1,.344.448c-.046.034-2.359-.417-3.585-.7-1.258-.289-1.779-.427-2.558-.676l-.635-.2,0-.157c.008-.781.992-1.932,2.662-3.11l.148-.1Zm13.864,2.769c.049,0,.1.1.245.419.395.865,1.624,3.209,1.921,3.663.1.149.253.159-1.378-.1-3.921-.633-5.189-.845-5.189-.87a1.149,1.149,0,0,1,.262-.172,22.713,22.713,0,0,0,3.53-2.444c.261-.22.511-.429.557-.468A.081.081,0,0,1,125.978,96.281Z" transform="translate(-95.6 -87.371)" fill="url(#linear-gradient-2)"/>
          <path id="path2851" d="M83.976,126.629a1.15,1.15,0,0,0-.015,1,4.755,4.755,0,0,0,1.085,1.289s5.145,5.019,5.775,5.746a16.081,16.081,0,0,1,4.2,11,17.89,17.89,0,0,1-1.824,8.324c-2.409,5.254-7.485,11.049-15.324,17.493l1.151-.38a36.287,36.287,0,0,1,4.113-2.442,147.391,147.391,0,0,1,19.111-8.559c10.829-4.07,28.643-8.845,38.779-10.4l1.056-.162-.162-.254a34.555,34.555,0,0,0-2.321-3.27,27.805,27.805,0,0,0-8.212-6.839c-4.531-2.537-10.409-4.509-17.839-5.986-1.4-.279-4.481-.807-6.984-1.2-5.3-.826-8.722-1.384-12.5-2.042-1.354-.235-3.377-.575-4.719-.865a29.963,29.963,0,0,1-3.062-.821C85.434,127.933,84.233,127.609,83.976,126.629Zm2.982,2.895a3.638,3.638,0,0,1,.436.133c.434.147,1.007.32,1.674.506.467.131.981.268,1.526.407.7.178,1.272.331,1.279.339.077.087,1.246,3.818,1.645,5.249.152.546.268,1,.257,1.013a2.517,2.517,0,0,1-.286-.446,24.159,24.159,0,0,0-5.971-6.744C87.209,129.739,86.958,129.533,86.958,129.524Zm5.7,1.575a4.143,4.143,0,0,1,.623.107c1.972.436,5.494,1.116,7.759,1.5a3.473,3.473,0,0,1,.688.153,1.108,1.108,0,0,1-.313.2c-.38.191-1.918,1.112-2.432,1.456a22.656,22.656,0,0,0-3.28,2.616c-.338.336-.621.61-.63.61a3.271,3.271,0,0,1-.131-.436,38.526,38.526,0,0,0-2.069-5.666,5.742,5.742,0,0,1-.228-.528s0,0,.012,0Zm10.027,1.906a4.211,4.211,0,0,1,.412,1.286,19.275,19.275,0,0,1,.555,5.3c-.018.484-.049.934-.068,1l-.036.121-.6-.194c-1.233-.394-3.249-.988-4.976-1.466-.981-.272-1.785-.514-1.785-.538a26.528,26.528,0,0,1,2.047-2.047,51.728,51.728,0,0,1,4.45-3.462Zm.8.114c.036-.033,4.791.79,6.952,1.2,1.611.308,3.941.8,4.082.855.068.028-.173.16-.947.509a49.8,49.8,0,0,0-7.582,4.121c-.594.4-1.087.722-1.1.722a7.3,7.3,0,0,1-.019-.736,16.269,16.269,0,0,0-1.245-6.291,2.185,2.185,0,0,1-.143-.383Zm12.3,2.432a8.815,8.815,0,0,1-.254,1.529,29.173,29.173,0,0,1-2.912,6.688,7.2,7.2,0,0,1-.485.785,4.768,4.768,0,0,1-.7-.366,36.876,36.876,0,0,0-4.542-2.221c-.467-.192-.864-.364-.884-.383-.076-.072,3.642-2.533,5.613-3.716C113.195,136.921,115.733,135.507,115.778,135.551Zm.879.138c.107,0,2.216.575,3.307.9a69.16,69.16,0,0,1,7.883,2.88l.845.383-.6.138a85.909,85.909,0,0,0-13.343,4.128c-.341.138-.638.252-.659.252a2.9,2.9,0,0,1,.24-.586,23.8,23.8,0,0,0,2.238-7.711A.824.824,0,0,1,116.657,135.689Zm-20.964,4.818c.034-.033,1.639.343,2.515.589,1.316.369,4.116,1.307,4.118,1.378,0,.014-.309.283-.686.6-1.514,1.267-2.974,2.591-4.724,4.281-.519.5-.959.908-.981.908s-.031-.073-.019-.162a26.4,26.4,0,0,0-.16-6.984,4.108,4.108,0,0,1-.063-.608Zm33.8.031c.024.024-.745,1.226-1.223,1.911-.7,1-1.71,2.313-4.016,5.213-1.211,1.523-2.578,3.247-3.038,3.83s-.846,1.061-.858,1.061a5.087,5.087,0,0,1-.329-.463,24.163,24.163,0,0,0-4.683-5.179c-.343-.286-.731-.6-.86-.7a1.358,1.358,0,0,1-.235-.2c0-.032,1.964-.875,3.464-1.485,2.611-1.063,6.181-2.335,8.852-3.154C127.978,140.948,129.475,140.518,129.5,140.539Zm.887.233a2.964,2.964,0,0,1,.659.32,39.107,39.107,0,0,1,7.737,5.809c.617.605,2.125,2.175,2.1,2.187-.006,0-.527.045-1.158.092a114.144,114.144,0,0,0-17.107,2.846c-.408.1-.76.179-.782.179s.423-.448.991-.993a29.351,29.351,0,0,0,7.023-9.348c.282-.569.521-1.06.531-1.09,0,0,0,0,0,0Zm-25.765,2.64c.161.036,1.664.735,2.8,1.3,1.037.519,2.608,1.356,2.686,1.429.01.009-.544.3-1.231.642-2.175,1.088-4.038,2.116-5.983,3.3-.555.339-1.02.618-1.034.618-.049,0-.029-.042.281-.61a24.539,24.539,0,0,0,2.352-6.376C104.53,143.524,104.581,143.4,104.617,143.412Zm-1.514.271a21.825,21.825,0,0,1-.606,2.229,28.961,28.961,0,0,1-2.045,4.7c-.181.326-.458.8-.615,1.061l-.286.468-.649-.627a8.511,8.511,0,0,0-2.154-1.589,3.213,3.213,0,0,1-.56-.327,47.137,47.137,0,0,1,3.5-3.181C100.779,145.493,103.076,143.655,103.1,143.683Zm9.2,3.784.564.366a45.19,45.19,0,0,1,4,2.946c.655.546,1.928,1.686,2.19,1.962l.141.148-.937.262c-5.3,1.471-9.4,2.781-14.179,4.537-.53.195-.988.356-1.02.356-.066,0-.131.061,1.061-1.037a51.1,51.1,0,0,0,7.776-8.929Zm-2.418.606c.028.028-1.567,2.261-2.514,3.522-1.134,1.509-3.153,4.031-4.542,5.673-.58.686-1.078,1.255-1.1,1.265s-.048-.158-.048-.424a9.7,9.7,0,0,0-.984-4.167c-.265-.536-.309-.665-.254-.715.218-.2,3.591-2.121,5.717-3.261C107.616,149.184,109.858,148.045,109.886,148.073Zm-14.622,3.583a4.989,4.989,0,0,1,.6.3,12.7,12.7,0,0,1,1.986,1.347,3.6,3.6,0,0,1-.673.55c-1.1.792-2.768,2.052-3.735,2.822-1.021.812-1.055.837-.94.661a20.756,20.756,0,0,0,1.55-2.677,21.659,21.659,0,0,0,.967-2.42A2.153,2.153,0,0,1,95.264,151.656Zm3.9,3.057c.053-.007.128.092.441.56a8.388,8.388,0,0,1,1.3,3.372l.027.23-1.582.613c-2.84,1.1-5.453,2.188-7.219,3-.494.226-1.366.643-1.936.928s-1.034.509-1.034.5.358-.281.795-.6a46.9,46.9,0,0,0,8.7-8.023c.241-.294.459-.55.487-.567a.053.053,0,0,1,.022-.007Zm-1.8.446a25.294,25.294,0,0,1-2.171,2.454,38.611,38.611,0,0,1-7.187,5.8c-.343.218-.656.414-.7.438-.075.044.024-.069,1.228-1.381.759-.827,1.339-1.513,2-2.369a3.974,3.974,0,0,1,1.153-1.1C93.4,157.766,97.317,155.113,97.362,155.158Z" transform="translate(-72.225 -118.648)" fill="url(#radial-gradient)"/>
        </g>
      </g>
    </g>
    <g id="azure-functions" transform="translate(849.932 948.962)">
      <g id="Group_30" data-name="Group 30" transform="translate(0)">
        <path id="Path_68" data-name="Path 68" d="M76.126,33.69a2.221,2.221,0,0,0,0-2.761l-3.707-3.707L55.9,11.186a1.911,1.911,0,0,0-2.633,0,1.834,1.834,0,0,0,0,2.761L70.623,30.955a2.078,2.078,0,0,1,0,2.761L52.908,51.3a2.078,2.078,0,0,0,0,2.762,2.041,2.041,0,0,0,2.633,0L72.06,37.682Zm-75.644,0a2.221,2.221,0,0,1,0-2.761l3.707-3.707L20.708,11.186a1.911,1.911,0,0,1,2.633,0,1.834,1.834,0,0,1,0,2.761l-17,17a2.078,2.078,0,0,0,0,2.761L23.7,51.286a2.078,2.078,0,0,1,0,2.761,2.041,2.041,0,0,1-2.633,0L4.189,37.928Z" transform="translate(0 2.1)" fill="#3999c6"/>
        <path id="Path_69" data-name="Path 69" d="M37.929,23.838,53.486,0H30.151L17.6,35.431l15.322.116L20.943,70.628,53.989,23.842Z" transform="translate(3.467)" fill="#fcd116"/>
        <path id="Path_70" data-name="Path 70" d="M53.441,23.838H37.377L52.936,0H40.723l-12.9,29.439,15.322.116L20.393,70.613Z" transform="translate(4.017)" fill="#ff8c00" opacity="0.3"/>
      </g>
    </g>
    <g id="docker" transform="translate(850.727 478.089)">
      <path id="Path_79" data-name="Path 79" d="M96.875,284.914c-.214-.178-2.135-1.637-6.264-1.637a19.909,19.909,0,0,0-3.239.285,12.2,12.2,0,0,0-5.481-8.221l-1.1-.641-.712,1.032a15.219,15.219,0,0,0-1.957,4.555,10.814,10.814,0,0,0,1.281,8.506,15.1,15.1,0,0,1-5.587,1.352H23.276a2.385,2.385,0,0,0-2.384,2.384A36.013,36.013,0,0,0,23.1,305.52c1.744,4.555,4.342,7.936,7.687,10,3.772,2.313,9.929,3.63,16.869,3.63a51.739,51.739,0,0,0,9.36-.854,38.628,38.628,0,0,0,12.243-4.449,33.507,33.507,0,0,0,8.328-6.833,45.309,45.309,0,0,0,8.15-14.058h.712a11.71,11.71,0,0,0,8.577-3.239,9.479,9.479,0,0,0,2.278-3.345l.32-.925Z" transform="translate(-20.887 -264.094)" fill="#0091e2"/>
      <path id="Path_80" data-name="Path 80" d="M39.705,300.86h6.762a.6.6,0,0,0,.605-.605h0v-6.05a.6.6,0,0,0-.605-.605H39.705a.6.6,0,0,0-.605.605h0v6.05a.623.623,0,0,0,.605.605h0" transform="translate(-32.618 -276.268)" fill="#0091e2"/>
      <path id="Path_81" data-name="Path 81" d="M65.905,300.86h6.762a.6.6,0,0,0,.605-.605h0v-6.05a.6.6,0,0,0-.605-.605H65.905a.6.6,0,0,0-.605.605v6.05a.623.623,0,0,0,.605.605" transform="translate(-49.494 -276.268)" fill="#0091e2"/>
      <path id="Path_82" data-name="Path 82" d="M92.605,300.86h6.762a.6.6,0,0,0,.605-.605h0v-6.05a.6.6,0,0,0-.605-.605H92.605a.6.6,0,0,0-.605.605h0v6.05a.579.579,0,0,0,.605.605h0" transform="translate(-66.691 -276.268)" fill="#0091e2"/>
      <path id="Path_83" data-name="Path 83" d="M118.905,300.86h6.762a.6.6,0,0,0,.605-.605v-6.05a.6.6,0,0,0-.605-.605h-6.762a.6.6,0,0,0-.605.605h0v6.05a.6.6,0,0,0,.605.605h0" transform="translate(-83.631 -276.268)" fill="#0091e2"/>
      <path id="Path_84" data-name="Path 84" d="M65.905,276.56h6.762a.624.624,0,0,0,.605-.605V269.9a.6.6,0,0,0-.605-.6H65.905a.6.6,0,0,0-.605.6v6.05a.65.65,0,0,0,.605.605" transform="translate(-49.494 -260.616)" fill="#0091e2"/>
      <path id="Path_85" data-name="Path 85" d="M92.605,276.56h6.762a.624.624,0,0,0,.605-.605V269.9a.6.6,0,0,0-.605-.6H92.605a.6.6,0,0,0-.605.6h0v6.05a.6.6,0,0,0,.605.605" transform="translate(-66.691 -260.616)" fill="#0091e2"/>
      <path id="Path_86" data-name="Path 86" d="M118.905,276.56h6.762a.624.624,0,0,0,.605-.605V269.9a.624.624,0,0,0-.605-.6h-6.762a.6.6,0,0,0-.605.6h0v6.05a.624.624,0,0,0,.605.605" transform="translate(-83.631 -260.616)" fill="#0091e2"/>
      <path id="Path_87" data-name="Path 87" d="M118.905,252.16h6.762a.6.6,0,0,0,.605-.605v-6.05a.624.624,0,0,0-.605-.605h-6.762a.6.6,0,0,0-.605.605h0v6.05a.624.624,0,0,0,.605.605" transform="translate(-83.631 -244.9)" fill="#0091e2"/>
      <path id="Path_88" data-name="Path 88" d="M145.4,300.86h6.762a.6.6,0,0,0,.6-.605v-6.05a.6.6,0,0,0-.6-.605H145.4a.6.6,0,0,0-.6.605h0v6.05a.623.623,0,0,0,.6.605" transform="translate(-100.7 -276.268)" fill="#0091e2"/>
    </g>
    <g id="backend_skills" data-name="backend skills" transform="translate(640.754 501.808)">
      <g id="Group_15" data-name="Group 15" transform="translate(0 0)">
        <path id="Polygon_12" data-name="Polygon 12" d="M286.327,0,381.77,165.131,286.327,330.261H95.442L0,165.131,95.442,0Z" transform="translate(165.131 0) rotate(30)" fill="rgba(1,255,195,0.33)"/>
        <path id="Polygon_16" data-name="Polygon 16" d="M238.606,0l79.535,137.609L238.606,275.218H79.535L0,137.609,79.535,0Z" transform="translate(178.967 39.768) rotate(30)" fill="rgba(1,255,195,0.33)"/>
        <path id="Polygon_13" data-name="Polygon 13" d="M190.885,0l63.628,110.087L190.885,220.174H63.628L0,110.087,63.628,0Z" transform="translate(192.804 79.535) rotate(30)" fill="rgba(1,255,195,0.33)"/>
        <path id="Polygon_14" data-name="Polygon 14" d="M143.164,0l47.721,82.565-47.721,82.565H47.721L0,82.565,47.721,0Z" transform="translate(206.64 119.303) rotate(30)" fill="rgba(1,255,195,0.33)"/>
        <path id="Polygon_15" data-name="Polygon 15" d="M95.442,0l31.814,55.044L95.442,110.087H31.814L0,55.044,31.814,0Z" transform="translate(220.477 159.071) rotate(30)" fill="rgba(1,255,195,0.33)"/>
        <path id="Polygon_17" data-name="Polygon 17" d="M47.721,0,63.628,27.522,47.721,55.044H15.907L0,27.522,15.907,0Z" transform="translate(234.313 198.838) rotate(30)" fill="rgba(1,255,195,0.33)"/>
      </g>
      <g transform="matrix(1, 0, 0, 1, 0, -23.72)" filter="url(#Path_13)">
        <path id="Path_13-2" data-name="Path 13" d="M-2804.782,3283.531l64.716-18.294,45.063-78.664,54.2,65.264h110.674l-56.532,93.757,30.082,78.413-84.224,15.534-54.81,97.161-44.451-112.695-78.951-5.511,43.655-72.9Z" transform="translate(2943.07 -3084)" fill="url(#radial-gradient-2)"/>
      </g>
      <path id="Intersection_8" data-name="Intersection 8" d="M53.8,276.984c7.516-29.543,13.98-68.082,17.514-98.356a56.3,56.3,0,0,0-4.953-8.441c1.076,5.111,2.846,10.343,3.922,15.456-1.72-5.048-3.7-11.743-5.419-16.793.181,3.17.625,7.985.807,11.153a64.308,64.308,0,0,0-4.359-15.353c.527,2.119,1.054,6.232,1.674,8.711a60.91,60.91,0,0,1-3.854-8.855c-.175-.2-.356-.4-.537-.6.164,2.906.181,6.8.446,9.031A42.887,42.887,0,0,0,57.828,168a20.072,20.072,0,0,0-3.319-4.119,27.5,27.5,0,0,1,.927,3.529,21.774,21.774,0,0,1,2,3.323c-.586-.644-1.172-1.255-1.758-1.847a18.612,18.612,0,0,1,.177,2.4,31.812,31.812,0,0,0-1.414-3.62,57.915,57.915,0,0,0-6.936-5.649c4.35,3.474,6.6,11.781,6.331,15.908-2.075-6.061-3.87-13.337-7.418-14.609,3.037,4.077,3.522,8.22,3.5,12.836-.608-3.975-1.3-5.094-3.218-8.187a26.571,26.571,0,0,1-1.911,12.669,442.971,442.971,0,0,0,3.1,81.351l-6.9-17.495A418.418,418.418,0,0,1,42.41,186.07c-.031.067-.061.133-.092.2.052-.256.1-.518.146-.777q.735-7.643,1.749-15.256c-1.211,3.124-2.243,6.981-3.6,9.49,1.594-4.663,1.771-8.381,3.364-13.046-2.85,4.431-4.32,8.563-7.173,12.994,1.858-4.955,3.677-11.3,7.354-16.434-4.486,4.179-7.575,9.824-9.966,15.492,1.742-6.514,3.528-12.567,8.422-17.164C37.62,164.458,33,171.694,30.883,177.1c.765-5.465,6.4-14.435,10.9-17.569-5.695,2.754-12.6,11.306-15.519,16.959,1.784-6.449,9.068-15.739,15.383-17.79-5.867,1.067-13.313,7.723-16.555,12.777,1.556-4.5,6.545-10.309,11.374-12.869l-8.838,3.4a11.8,11.8,0,0,0-3.194,4.818,21.9,21.9,0,0,1,.892-4.65c-.381.364-.752.732-1.11,1.117.385-.5.794-.981,1.215-1.45a3.652,3.652,0,0,1-.3-.935,62.989,62.989,0,0,0-4.046,6.469c-.411,1.9-.8,3.668-1.169,5.181l.529-4.02c-.4.72-.789,1.447-1.187,2.181q.748-2.263,1.493-4.525l.413-3.128A92.346,92.346,0,0,1,13.558,173.7c1.155-3.478,6.2-10.5,7.356-13.975-6.062,4.862-9.306,9.033-11.8,16.43.463-2.989.988-4.16,1.311-7.62a5.229,5.229,0,0,1-2.046.809c-1.493,1.771-3.766,6.739-3.531,6.036-.26-1.772,1.468-7.052,6.733-10.2-2.72,1.583-8.472,4.836-10.963,6.294,2.645-2.228,8.792-6.381,11.44-8.609-1.666.752-7.369,3.533-9.035,4.283,2.155-1.961,8.17-5.041,11.25-6.189-2.649.864-7.706,1.6-9.944,2.483,2.594-1.241,7.461-2.363,10.817-3.563.109-.147.216-.291.326-.435-1.093.164-2.374.273-3.67.378-.28.234-.56.47-.84.717.12-.23.247-.456.376-.681a30.784,30.784,0,0,0-5.008.665,34.8,34.8,0,0,1,5.338-1.209,20.032,20.032,0,0,1,1.463-2.057c-.58-.064-1.13-.107-1.635-.118-.188.193-.376.385-.562.581.127-.2.258-.391.389-.584-.094,0-.185,0-.277,0,.1-.009.194-.016.293-.027,1.813-2.619,4.093-4.7,10.3-7.929-7.367,2.671-11.083,4.615-13.678,7.292,3.526-4.743,8.349-8.311,13.383-8.591-4.442-.285-9.5,1.975-13.879,5.373A20.846,20.846,0,0,1,21.4,145.71c-4.357-1.014-8.46.26-12.557,1.559a19.986,19.986,0,0,1,15.038-3.2,30.609,30.609,0,0,0-10.7-2.715c3.554-1.246,8.738-.17,13.245,1.975A17.747,17.747,0,0,0,17.6,138.4c3.508.457,6.632-.533,11.3,4.254-1.458-1.779-2.886-4.147-4.363-5.539l7.85,6.963c-1.117-1.264-1.486-4.4-2.6-5.662,2.149,1.937,3.55,5.747,5.7,7.684-.673-.951-.724-2.691-.934-4.229-.267-.138-.538-.267-.813-.383l.791.236a9.567,9.567,0,0,0-.219-1.117L32,139.424c.664.128,1.33.253,1.994.38a2.364,2.364,0,0,0-.151-.252c.072.083.138.173.206.263l2.3.439c-.039-.052-.078-.107-.118-.159q-2.6-1.069-5.2-2.14a14.805,14.805,0,0,0,3.023-.49l-.306-.33c-2.543-.269-5.986-.262-8.032-.684,1.493-.441,3.926-.831,6.02-1.24q-.863-.737-1.764-1.366a18.757,18.757,0,0,0-6.094,1.889,42.226,42.226,0,0,0,4.221-3.032c-.225-.119-.45-.231-.678-.336a56.181,56.181,0,0,1-6.442,2.608c.859-.56,3.041-2.324,4.433-3.369-.232-.068-.463-.129-.7-.186a35.473,35.473,0,0,0-7.337,4.16c1.106-1.3,2.719-3.507,4.9-4.479a12.926,12.926,0,0,0-5.933,1.307,25.25,25.25,0,0,1,7.319-4.776c-2.68.61-6.044,1.843-7.874,1.678,1.913-.251,6.764-3.176,8.676-3.428-1.34-.107-3.5.527-5.656,1.163s-4.317,1.272-5.657,1.165c2.063-.157,7.4-3.29,9.463-3.447-2.63-.03-9.6,2.195-12.924,2.525a.069.069,0,0,1-.022-.136c2.881-.772,9.218-3.342,11.324-3.712a38.355,38.355,0,0,0-6.421.8,38.367,38.367,0,0,1-6.409.8c1.939-.144,8.34-2,11.149-2.481-3.06.367-9.89.68-12.094.083,1.592-.2,6.723-.7,9.737-1.012-3.74.177-9.3-.77-11.767-2.195,2.453.417,8.652,1.324,10.8.024C13.2,118.446,6.2,117.1,3.338,117.212c1.989-1.173,8.545-.38,11.531.884-4.628-2.015-11.728-5.118-14.87-6.484,2.892.437,10.353,3.849,13.246,4.286-3.329-3-9.593-7.45-12.922-10.449C5.9,108.3,12.8,112.7,16.221,117.886l-5.9-11.911,9.627,14.032c-1.613-2.642-4.237-8.679-5.85-11.319,2.068,2.785,5.146,8.965,7.212,11.75L16.824,108.1l6.8,14.312-3.981-16.479L25.8,123.445l-2.544-17.325L28.8,125.758l-1.189-15.483,3.2,17.5.015-13.665,1.863,16.336.219-2.208-.064.006c.022-.006.044-.01.064-.017l.4-4.053-.05,0,.05-.006.415-4.187.3,4.1A16.629,16.629,0,0,1,36.09,124l.157-1.1.114,1.1a18.173,18.173,0,0,1,6.069,1.292,22.629,22.629,0,0,1-.162-2.361,33.2,33.2,0,0,0-7.577-4.549c1.95-.033,4.838,1.141,7.583,2.879.033-1.186.116-2.439.243-3.718-.348-.368-.7-.733-1.063-1.085a8.342,8.342,0,0,1,1.126.487,56.558,56.558,0,0,1,2.929-13.251c-2.433,2.628-5.553,12.528-5.846,15.894a26.369,26.369,0,0,1,8.113-22.877c-3.535,1.7-8.679,7.219-10.819,10.163,1.209-4.731,8.336-13.027,13.4-15.158-3.6.291-11.258,5.43-13.893,7.523,2.606-3.507,9.888-8.506,14.227-10.382-3.076.083-9.595,2.177-12.67,2.26,3.211-2.186,9.85-4.895,14.061-4.779-2.232-.288-5.784-.36-8.954-.5-.085.227-.173.449-.247.675.046-.223.1-.451.153-.677-1.137-.051-2.222-.107-3.174-.184-.3.544-.56,1.065-.78,1.541.146-.466.345-.994.577-1.561-.406-.035-.794-.075-1.143-.118.422-.12.877-.247,1.349-.373.42-.977.94-2.051,1.513-3.133-.354.022-.686.043-.97.072.3-.083.66-.164,1.058-.238a38.964,38.964,0,0,1,3.393-5.376c-3,3.272-7.791,7.367-10.224,10.384,2.175-3.727,7.4-8.847,9.577-12.574-6.261,4.444-11.368,10.656-14.974,19.567a27.5,27.5,0,0,1,9.1-18.45c-4.284,1.991-8.9,8.618-11.173,12.6a31.3,31.3,0,0,1,2.982-7.889,57.416,57.416,0,0,1-9.4,9.861c2.186-3.387,5.926-8.893,8.112-12.279C25.45,81.68,21.99,85.738,18.387,89.959q3.135-5.168,6.265-10.342A74.259,74.259,0,0,1,13.436,93.326l8.329-11.99Q16.177,86.6,10.588,91.868a19.968,19.968,0,0,1,3.165-4.9q-3.813,3.361-7.629,6.72l5.955-6.834q-4.1,3.525-8.2,7.055C13.521,80.426,29.54,71.4,46.74,69.48a26.224,26.224,0,0,1,14.99-.448l-.031-.015a61.446,61.446,0,0,0-26.675-1.572A38.809,38.809,0,0,1,49.7,65.259a40.066,40.066,0,0,0-12.751.164c5.738-2.168,13.558-2.192,20.155-.278-.387-.271-.768-.551-1.133-.844A16.825,16.825,0,0,0,59,65.5,35.841,35.841,0,0,0,45.956,62a22.194,22.194,0,0,1,12.8,1.06,9.973,9.973,0,0,0-6.184-2.853,51.993,51.993,0,0,0-6.936-.094,15.883,15.883,0,0,1-6.792-1.148q8.719-.154,17.442-.05a4.524,4.524,0,0,0-3.037-.925l-6.685-.363a29.416,29.416,0,0,1,9.715-.728c-.337-1.183-.254-1.93.465-1.847a32.935,32.935,0,0,0-9.686-.748c-4.036.148-7.321.3-11.446-2.962,3.5,2.586,7.138,2,11.3,1.41a31.62,31.62,0,0,1,8.006-.388c-3.349-1.947-6.228-1.775-9.107-1.6s-5.76.346-9.107-1.6c2.921.859,5.679.533,8.44.21s5.518-.648,8.441.212a11.362,11.362,0,0,0-6.091-1.043A11.366,11.366,0,0,1,41.4,47.5a16.055,16.055,0,0,0,5.533-.072,16,16,0,0,1,5.533-.07c-3.952-1.753-13-.7-16.949-2.454a51.025,51.025,0,0,0,7.931.024,50.687,50.687,0,0,1,7.922.024C47,43.523,37.8,43.641,33.438,42.207A47.641,47.641,0,0,0,40.991,42a47.487,47.487,0,0,1,7.54-.2c-4.65-.772-13.267-.206-17.917-.98,3.7-.094,13.031-1.511,16.734-1.6-3.478-1.847-12.318.075-18.737,1,3.537-.656,8.248-3.067,11.783-3.72-4.812-.451-10.308,2.033-13.965,3A42.239,42.239,0,0,1,35.137,35.6L24.051,38.538c1.493-.641,3.371-1.618,4.862-2.258-4.309-.68-9-1.024-13.311-1.7,4.262.175,9.627.407,13.89.582-.789-.638-9.347-2.348-10.139-2.986a50.817,50.817,0,0,1,6.309,1.067,50.734,50.734,0,0,0,6.311,1.068c-1.366-.634-8-3.681-9.36-4.315,1.88.179,9.767,3.575,11.649,3.754-1.841-.979-8.276-4.983-10.117-5.962,2.614.818,9.673,4.7,12.288,5.516-2.361-1.624-7.743-6.729-10.1-8.353,3.729,1.725,10.067,6.821,13.8,8.548-2.531-2.525-6.486-7.134-9.018-9.659A89.926,89.926,0,0,1,42.8,34.064c-1.932-4.7-6.162-9.055-9.789-11.943,6.457,2.989,11.536,7.762,13.46,14.485-.833-6.414-3.058-11.664-5.6-17.928a43.651,43.651,0,0,1,7.977,18.28,71.974,71.974,0,0,0-3.073-18.186A58.357,58.357,0,0,1,50.57,38.551a85.993,85.993,0,0,0-.984-20.05,57.234,57.234,0,0,1,3.059,22.342,76.415,76.415,0,0,0,.59-18.123A43.483,43.483,0,0,1,54.7,45.285,79.489,79.489,0,0,0,57.579,24.2a38.142,38.142,0,0,1-1.452,23.032,45.32,45.32,0,0,0,3.782-18.594,51.016,51.016,0,0,1,.218,12.406c.3.172.6.36.921.581.441-1.83.831-3.714,1.213-5.581-.354-.394-.708-.772-1.058-1.122q.567.384,1.123.807c.206-1,.409-1.985.621-2.957-.135,1.062-.271,2.1-.4,3.128.581.451,1.156.925,1.721,1.428.013-.057.028-.11.041-.164,0,.064-.009.123-.013.188,4.7,4.173,8.783,9.995,12.01,15.051-2.77-10.275-6.178-16.431-12.509-22.126,5.68,4,10.447,7.289,14.321,19.137-1.69-10.33-6.407-18.136-14.242-24.992C69.8,27.833,74.716,31.86,79.621,45.827A49.989,49.989,0,0,0,66.892,20.21,52.56,52.56,0,0,1,82.286,40.527,92.967,92.967,0,0,0,69.92,15.988,51.417,51.417,0,0,1,83.464,36.2,74.626,74.626,0,0,0,72.219,11.943c5.415,4.322,9.483,13.082,12.5,19.349C83.3,22.558,79.984,14,74.866,10.493c5.927,2.641,9.991,9.936,11.932,17.554-.982-6.863-3.679-15.2-8.349-20.276A31.224,31.224,0,0,1,88.917,24.9Q86.906,15.651,84.9,6.406c1.659,2.924,2.792,7.067,5.526,15.2-1.4-6.232-.785-14.64-.348-18.049.162,3.979.223,11.368,1.963,14.378.129-3.81.352-9.419.481-13.23.394,2.886.693,7.573,1.084,10.456.4-2.613,2.243-7.645,2.647-10.26-.3,3.1-.315,5.4-.621,8.5L102.8,0,98.275,11.243l7.144-8.592c-2.315,3.583-4.232,8.012-8.541,12.111,2.728-1.651,5.5-4.266,8.233-5.919l-8.838,8.488,11.864-7.22-14.3,11.9c2.337-1.558,10.93-6.737,13.267-8.3-2.923,2.838-11.5,8.735-14.422,11.573,2.547-1.557,10.946-6.763,13.493-8.32-4.265,3.392-12.382,9.455-16.14,12.443,3.755-1.908,11.8-7,15.558-8.909L89.642,32.308l17.735-7.724L88.166,36.011l15.917-6.761L86.12,40.442l18.848-7.966-19.31,9.951,17.154-5.548-18.54,8.688,16.457-5.432L84.074,48.268l16.478-5.513L83.445,51.082l20.89-6.53-21.52,8.989,20.488-5.2c-6.355,2.938-15.084,4.91-21.439,7.845,6.851-2.85,13.239-3.9,20.608-4.654L80.753,59.312l20.912-5.891L79.47,62.441l20.84-6.124c-6.053,2.168-14.1,6.143-20.678,8.784,6.486-2.4,14.677-4.849,20.984-5.028A125.893,125.893,0,0,0,87.7,64.824c4.379-1.465,8.845-2.6,12.574-2.35-4.49,1.081-10.889,3.714-16.634,5.813a97.749,97.749,0,0,1,13.2-3.557A19.6,19.6,0,0,1,100,63.483,16.719,16.719,0,0,0,98.554,64.5c.654-.072,1.279-.114,1.865-.123.45-.3.892-.57,1.323-.8-.3.229-.608.5-.923.8.356.007.7.02,1.027.052l-1.614.512c-.85.848-1.753,1.854-2.675,2.923l2.195-.476c-.743.183-1.535.412-2.365.672-1.8,2.095-3.662,4.366-5.316,6.008.127.006.254.013.378.017,2.385-1.836,5.207-4.49,7.855-6.816l-.551.119c.192-.047.374-.086.557-.125a42.535,42.535,0,0,1,5.039-3.97c-2.785,2.217-7.511,8.02-10.685,10.954.144.015.289.029.433.047,6-3.7,10.932-9.855,17.043-13.293-5.208,2.973-9.117,8.935-13.5,13.959.03.011.066.017.1.027-.037,0-.077,0-.114-.007-.741.848-1.5,1.67-2.273,2.446,7.642-7.144,16.048-13.217,24.731-14.848-7.964,2.715-15.5,9.745-21.738,15.438,7.905-6.226,17.063-12.656,26.458-14.2-7.9,2.526-15.552,9.478-22.247,14.408,8.707-4.834,16.494-9.829,25.481-11.2-5.669,2.311-11.814,7.148-17.618,10.176,6.8-3.233,13.561-6.606,19.74-7.71-6.216,2.431-11.558,5.843-17.67,8.392,6.594-2.712,13.566-6.281,20.545-7.155-4.9,1.626-10.264,4.752-15.406,7.161a54.857,54.857,0,0,1,16.907-3.433c-5.067,1.533-9.735,2.995-14.048,4.394a107.556,107.556,0,0,1,17.967-3.3c-6.046,1.716-14.467,3.31-20.514,5.026,5.581-.981,14.15-1.805,20.346-2.757a.1.1,0,0,1,.035.188c-5.776,1.41-13.866,2.695-19,4.138,6.471-1.11,16.732-2.022,23.2-3.133l-17.2,3.867c6.141-1.029,13.4-.771,18.127-.723a138.687,138.687,0,0,1-20.652,1.886l22.2-.214c-5.655,1.854-14.911,1.292-20.514,2.1a52.147,52.147,0,0,1,20.236,1.716,77.426,77.426,0,0,1-8.554-.2,76.886,76.886,0,0,0-8.565-.2c6.169-.07,14.351,2.378,20.166,4.453-3.48-.212-9.372-1.652-13.943-2.419,4.1.983,8.325,3.4,11.717,5.432L137.5,92.007a41.854,41.854,0,0,1,9.492,5.242c-3.988-1.38-6.873-2.7-10.86-4.079a43.7,43.7,0,0,1,11.52,6.366L136.566,94.8c4.886,2.2,9.334,4.594,11.615,7.908-3.168-2.173-5.314-3.2-8.482-5.374a26.822,26.822,0,0,1,7.2,10.1l-5.633-6.924c2.04,4.221,5.277,10.526,7.319,14.748-1.79-3.237-5.869-9.216-7.66-12.452l4.7,15.443-5.771-14.369.315,11.795L138.4,100.88l-.219,13.607c-.5-5.979-1.53-12.072-2.466-18q.144,9.014.287,18.029a124.116,124.116,0,0,0-4.681-21.17,33.053,33.053,0,0,1-.4,18.765,36.079,36.079,0,0,0-3.312-21.063c1.546,6.25,3.1,12.7,2.14,19.071a179.974,179.974,0,0,0-3.537-18.228c1.366,6.323,1.2,13.016,1.222,18.341-.94-7.671-1.808-16.441-5.269-23.334a56.874,56.874,0,0,1,3.493,20.191,35.93,35.93,0,0,0-8.294-19.871c3.659,5.5,6.08,11.286,6.462,17.162-1.62-6.974-5.616-13.661-9.816-19.436a129.764,129.764,0,0,1,7.088,20.4c-3.054-6.2-7.14-14.935-11.779-21.281l9.925,20.676L111.282,92.8a34.93,34.93,0,0,1,3.238,9.459,11.548,11.548,0,0,1,2.007,1.307c-.586-.21-1.214-.4-1.867-.564.031.173.066.348.1.521-.072-.188-.157-.372-.232-.56-.776-.2-1.589-.368-2.424-.522.1.29.2.579.286.87a16.744,16.744,0,0,1,5.891,3.264c-4.8-2.665-11.31-3.023-13.706-1.362,4.694.913,10.091.835,14.769,4.411-5.57-1.83-11.145-1.2-13.033-1.075,4.94.983,9.756,1.143,13.765,4.219a16.07,16.07,0,0,0-7.87-.837,26.3,26.3,0,0,1-2.857.124c4.792.728,10.122.98,13.7,4.276-3.163-1.141-6.866-.911-10.2-1.613,4.1,1.128,7.907,2.252,10.919,5.389-2.7-1.29-5.465-1.513-8.193-2.359,3.476,1.4,7.013,3.242,8.83,6.372-2.486-1.755-6.154-2.435-8.639-4.191,3.01,2.835,6.672,5.076,9.682,7.912-2.455-1.662-5.564-2.729-8.019-4.391,2.776,2.077,6.331,4.735,8.248,7.658-2-1.657-4.956-3.431-7.179-5.115a24.819,24.819,0,0,1,6.956,9.377c-1.648-1.981-4.055-3.959-5.706-5.937,3.906,6.824,4.988,13.645,4.888,21.531-1.309-4.639-1.987-9.855-3.3-14.494.352,2.492.073,5.56.424,8.051-1.1-4.5-2.171-9.623-3.271-14.122.251,2.393.33,8.071.584,10.463-.835-2.807-1.83-7.831-2.752-11.873a36.532,36.532,0,0,1-.123,9.73c-1.237-9.4-3.839-18-8.491-24.766,1.933,3.631,3.373,8.734,5.308,12.362-2.711-3.777-6.438-10.18-9.147-13.956,2.081,3.907,5.179,10.443,7.26,14.35-3.154-3.524-7.479-10.826-10.819-17.067,2.383,5.119,5.9,13.516,8.289,18.636-4.324-5.621-9.992-16.155-12.657-22.6.639,3.684,4.123,12.275,6.477,15.928-2.567-2.966-8.917-14.435-10.384-18.263.8,2.823,5.78,14.033,6.68,17.089a55.718,55.718,0,0,1-11.09-24.759q.937,7.24,1.871,14.478c-.841-2.877-2.284-7.756-3.511-11.938a53.986,53.986,0,0,0,3.808,18.317,47.317,47.317,0,0,1-5.117-10.658c.044.133.092.273.133.4-.464-.778-.988-1.636-1.552-2.533A73.042,73.042,0,0,0,84.1,113.3a63.183,63.183,0,0,1-3.7-13.91c-1.224-1.781-2.527-3.568-3.834-5.192q.019.3.039.6c3.353,4.757,4.158,8.25,5.212,12.391a42.275,42.275,0,0,0-5.05-9.715c.026.448.05.894.077,1.34a55.8,55.8,0,0,1,4.212,9.286,70.765,70.765,0,0,0-4.077-6.934c0,.048,0,.1.009.146a16.335,16.335,0,0,1,2.042,9.643,38.581,38.581,0,0,0-1.826-5.177c.029.622.061,1.242.09,1.865a29.919,29.919,0,0,1,1.073,6.706q-.456-1.243-.91-2.481.328,8.907.411,17.825c.061-.043.127-.085.186-.128-.057.07-.125.14-.186.207.006.719.018,1.436.022,2.155a20.259,20.259,0,0,1,4.494-1.16,43.973,43.973,0,0,0-4.49,2.037c0,.462,0,.92,0,1.382a39.726,39.726,0,0,1,10.386-1.706c-2.853.82-9.23,1.743-9.853,3.291,4.394-2.171,11.953-1.976,15.755-.9-1.768.5-8.185.3-9.953.8,5.024-.868,11.3,1.043,14.564,5.139a19.154,19.154,0,0,0-8.725-3.624c1.014,1.331,5.926,5.447,6.941,6.777-1.618-1.052-5.949-4.229-7.568-5.282.949,1.091,3.8,4.667,4.748,5.758-1.53-.924-4.967-4.333-6.494-5.258.885.82,2.687,4.1,3.572,4.921-1.814-1.18-4.543-4.816-6.355-6,2.733,2.857,3.681,6.073,4.792,9.255-2.155-3.611-4.518-6.838-7.511-8.89,1.939,1.572,3.05,5.55,3.883,8.439-2.646-4.412-4.436-8.658-8.155-9.366,3.236,1.693,4.06,6.031,4.215,9.708-1.014-3.152-2.14-5.784-4.252-7.365-.006.775-.015,1.548-.022,2.322.221.225.433.451.619.673-.19-.122-.4-.249-.621-.378q-.05,4.548-.155,9.1a44.587,44.587,0,0,1,4.58,2.066c-1.511-.514-3.05-.951-4.6-1.326-.011.419-.024.839-.037,1.257a44.9,44.9,0,0,1,14.225,8.609,123.385,123.385,0,0,0-14.262-7.219l0,.089c4.3,2.051,8.906,5.494,10.063,9.267-2.809-2.912-6.6-6.989-10.11-7.607,0,.094,0,.185-.007.28,4.512,2.8,10.478,7.6,12.48,12.327-2.682-3.454-8.664-7.938-12.548-10.532,0,.124-.009.248-.015.373,4.558,4.82,8.276,12.316,8.738,17.74a47.639,47.639,0,0,0-8.827-15.3c-.017.4-.028.8-.046,1.206a11.79,11.79,0,0,1,.693,7.035c-.256-1.02-.553-2-.881-2.947-1.662,34.61-11.075,88.187-18.386,122.658Zm17.7-99.927q.252-2.227.492-4.455a26,26,0,0,0-6.952-5.616A23.052,23.052,0,0,1,71.494,177.057Zm.585-5.328q.531-4.988.99-9.98c-3.734-3.694-11.774-8.495-15.591-9.008,3.937,2.009,10.5,5.137,12.032,9.316-3.778-4-11.676-7.684-16.968-9.1,2.075,1.38,4.682,2.5,6.952,3.781a27.375,27.375,0,0,1,6.993,4.42,24.873,24.873,0,0,0-7.229-1.585c.372.314.732.644,1.082.981,3.341.973,6.865,1.749,10.155,3.587-3.13-1.149-6.724-1.154-9.857-2.3,3.714,1.609,7.986,3.495,10.6,6.136-2.2-1.194-5.045-2.42-7.385-3.62A23.154,23.154,0,0,1,72.079,171.729ZM53.5,161.347a16.619,16.619,0,0,1,3.347,3.939c-1.063-2.557-2.494-4.862-4.357-6.1-.087-.048-.175-.091-.262-.135A18.039,18.039,0,0,1,53.5,161.347Zm5.082,2.47c.184.214.354.435.531.654-.26-.828-.5-1.668-.686-2.538C58.493,162.475,58.543,163.118,58.584,163.818Zm-12.17-4.1a30.35,30.35,0,0,1,6.2,4.486c-.64-1.078-1.34-2.134-2.088-3.15a16.98,16.98,0,0,0-4.094-1.47C46.426,159.629,46.419,159.673,46.415,159.717Zm-20.781.523-.181,1.587a13.716,13.716,0,0,1,2.547-4.4l0-.024C27.14,158.337,26.357,159.284,25.634,160.239Zm47.484.986c.05-.564.1-1.126.151-1.691a14.685,14.685,0,0,0-8.469-5.816C66.634,154.164,71.46,158.505,73.118,161.225Zm-50.456-1.067q-.092.412-.184.828l.715-2.168C23.044,159.251,22.862,159.7,22.661,160.158Zm34.914-.5c.726.269,1.469.509,2.223.736-.446-.285-.9-.557-1.357-.822A6.077,6.077,0,0,0,57.575,159.66Zm-41.048-.4c-.061.054-.123.111-.182.166.214-.089.418-.179.608-.271C16.82,159.19,16.673,159.223,16.527,159.257Zm-3.918-.1c1.209-.2,2.42-.4,3.55-.629q.315-.414.625-.827c-.647-.064-1.331-.151-2.016-.241C14.05,158.015,13.331,158.575,12.609,159.161Zm5.059-.962c.6-.146,1.161-.3,1.661-.479a6.7,6.7,0,0,1-1.22.07Zm29.015-1.043c.291.123.575.254.857.387-.173-.175-.344-.347-.516-.515-.107-.027-.212-.057-.319-.081C46.7,157.014,46.692,157.084,46.683,157.156ZM11.538,157.1q.935-.1,1.9-.217a21.108,21.108,0,0,1,7.4-5.583C17.622,151.774,14.551,154.053,11.538,157.1Zm34.057-.4c.206.081.4.166.608.251.006-.041.013-.081.019-.12-.207-.046-.415-.094-.625-.133ZM16,156.527c.627-.094,1.264-.2,1.9-.3.7-.934,1.4-1.891,2.1-2.925C18.658,154.479,17.327,155.511,16,156.527Zm4.112-.673c.18-.031.359-.061.538-.094.151-.317.3-.636.433-.951C20.776,155.154,20.448,155.5,20.107,155.854Zm3.734-.658c.291-.05.584-.1.875-.155a21.952,21.952,0,0,1,.3-4.058C24.62,152.261,24.226,153.685,23.841,155.2Zm2.42-.424c.5-.088,1-.173,1.5-.256l-.61-7.537Zm2.634-.444c.533-.087,1.067-.17,1.593-.251l-.654-7.564Zm2.514-.387c.392-.059.781-.114,1.165-.164l-.555-6.543Zm2.079-.285q.555-.069,1.1-.131l-.028-5.373Zm1.788-.2c.38-.039.756-.077,1.13-.107l.214-3.839ZM48.8,152.48a38,38,0,0,1,17.48-5.791A25.283,25.283,0,0,0,55.5,151.278a31.329,31.329,0,0,1,18.514-.859q.286-3.775.525-7.555c-2.247-1.178-5.516-2.88-7-3.668,1.032.7,4.219,3.094,5.253,3.792-5.353-2.078-11.492-1.925-16.166,1.441a34.377,34.377,0,0,0-5.992,5.669c3.137-1.712,6.593-3.592,9.295-5.072C56.716,147.249,52.011,150.259,48.8,152.48Zm16.275-1.626a44.039,44.039,0,0,1,8.8,1.517c.02-.267.044-.531.064-.8a52.864,52.864,0,0,0-8.67-.722Zm-20.239.514a2.747,2.747,0,0,0,.5.352c-.164-.229-.313-.478-.464-.728C44.856,151.117,44.843,151.243,44.834,151.368Zm-4.405-1.657-.14-1.933a13.025,13.025,0,0,0-1.725-2.676Zm-2.763-1.928-.426-4.054a13.21,13.21,0,0,0-1.959-1.447C35.987,144.228,36.492,146.429,37.666,147.783Zm10.874-.831c-.022.118-.042.233-.059.345l.013-.01c.019-.114.035-.23.059-.346Zm-6.3.3.011.022.361-.968c-.064-.14-.131-.273-.194-.409Zm-2.027-.557-.019-.3c-.037-.07-.075-.138-.111-.207C40.123,146.355,40.167,146.523,40.211,146.692Zm9.706-1.006c-.018.075-.042.149-.057.222.031-.085.072-.177.1-.262Zm-4.254-.135.466.225-.433-.362Zm-4.132-.1.186-.931c-.051-.09-.1-.185-.147-.273Zm3.587-.16.127.062c.024-.083.048-.167.074-.249l-.144-.12C45.155,145.083,45.138,145.186,45.118,145.288Zm3.08-.754c.171-.144.359-.29.56-.44.02-.057.04-.114.059-.172C48.594,144.134,48.384,144.34,48.2,144.534Zm-5.55-.433c.221.1.439.21.66.317l.282-.76-.8-.665Zm-1.056-.509.282.136.256-1.288-.488-.407Zm7.889-.273c-.033.109-.063.219-.1.33.114-.078.238-.159.356-.24.081-.175.157-.351.24-.525C49.812,143.03,49.641,143.179,49.482,143.318Zm-9.041.125.251-2.2c-.134-.11-.264-.222-.4-.333Zm-2.875-.8.531.157c-.074-.118-.151-.236-.227-.354l-.483-.249Zm-2.422-.725c.656.2,1.312.391,1.965.588l-.05-.477-2.413-1.24A11.762,11.762,0,0,1,35.143,141.914Zm16.6-.486q-.288.537-.553,1.063l.584-.353q.459-.743.964-1.5C52.4,140.9,52.068,141.168,51.744,141.428Zm22.836.835c.031-.477.061-.953.09-1.43A37.924,37.924,0,0,1,71.283,139C72.223,139.749,73.452,141.112,74.58,142.263ZM55.036,138.85a18.82,18.82,0,0,0-1.261,2.117l.511-.3c2.835-3.8,8.292-7.116,10.48-9.682-1.218,2.857-5.961,5.36-7.885,8.147.446-.271.872-.539,1.27-.8,3.449-2.811,8.716-5.092,11.269-8.165-1.943,3.457-7.789,5.767-9.73,9.221,3.434-3.352,10.178-6.528,13.613-9.879-1.622,3.212-7,5.741-9.313,8.161,2.982-2.136,7.522-4.191,11.195-6.294q.292-6.145.473-12.3a30.139,30.139,0,0,1-.828,3.507q-.138-5.719-.276-11.438a59.8,59.8,0,0,1-5.006,16.688c1.128-6.9,1.808-11.061,2.7-16.533q-1.387,3.339-2.772,6.679c.435-3.369,1.721-7.513,2.154-10.884-.669,1.075-2.19,2.925-2.86,4,.59-1.985,2.475-5.15,3.065-7.136-1.021,1.215-3.338,3.612-4.357,4.828.809-1.822,2.807-4.72,3.618-6.541-.936,1.265-3.058,3.611-3.994,4.877.759-1.926,2.669-4.9,3.43-6.829-.909,1.338-4.335,4.97-5.245,6.309.958-2.039,3.277-5.319,4.235-7.356-1.213,2.146-4.955,4.452-5.639,5.665,1.3-2.455,4.925-6.209,6.174-8.638q-2.092,2.472-4.184,4.941L70.12,94.16,65.648,99.3l3.832-7.671Q67.447,94.51,65.412,97.4q1.993-3.516,3.985-7.029a47.16,47.16,0,0,1-3.435,3.948c.009.286.027.571.055.857-.087-.217-.168-.433-.245-.651a54.252,54.252,0,0,0-3.883,4.431,44.469,44.469,0,0,1,3.474-5.819,13.688,13.688,0,0,1-.256-1.347c-1.215,1.353-2.437,2.71-3.272,3.72.852-1.53,1.978-3.3,3.143-5.118a14.188,14.188,0,0,1,.3-3.552,21.909,21.909,0,0,0-3.211,4.4,21.572,21.572,0,0,0-.177,7.715c-1.982-3.139-2.4-8.04-1.309-14.074a29.1,29.1,0,0,0-1.91,19.329c-2.693-4.768-3.4-9.756-1.841-14.5-2.3,4.219-3.338,9.288-2.6,15.908-1.281-2.786-1.633-6.831-1.563-11.451-1.432,4.234-1.145,12.7-.535,18.228a28.325,28.325,0,0,1-2.3-10.351c-.614,4.1-1.637,9.755-2.13,13.4a13.14,13.14,0,0,1,3.555,6.3c-.376-3.892-1.021-7.8-1.228-11.68.717,3.839,2.444,8.23,3.161,12.069.088-4.595-.835-9.745-.749-14.338.231,3.087,1.768,7.638,2,10.723.717-3.994.129-9.453.846-13.449-.411,2.96,1.069,6.132.656,9.091A78.458,78.458,0,0,1,64.251,98.2c-.822,4.65-4.1,10.775-7.019,14.47,1.884-1.924,5.065-5.537,6.949-7.459a57.724,57.724,0,0,1-6.853,8.416c2.319-1.574,6.02-4.67,8.339-6.242-2.6,2.657-6.512,5.926-9.116,8.583a48.134,48.134,0,0,1,9.621-5.679A40.387,40.387,0,0,0,56.132,119.8c3.358-2.584,5.651-4.492,9.2-5.592-3.131,2.768-7.92,6.354-11.051,9.122a34.709,34.709,0,0,1,11.711-6.257c-3.817,2.1-9.029,5.36-11.949,8.7,3.517-2.567,9.85-5.234,13.549-6.364-4.059,1.948-10.858,6.161-13.825,8.891,3.957-2.772,11.654-4.776,16.26-6.2-7.647,3.036-12.961,4.407-17.794,11.121,1.939-1.417,12.749-5.837,14.688-7.253-2.092,2.076-14.863,8.963-16.953,11.04a37.8,37.8,0,0,1,4.877-2.363c.094-.154.192-.312.282-.461-.027.122-.064.254-.1.38,1.043-.452,2.158-.924,3.273-1.394.207-.269.406-.527.584-.759A4.478,4.478,0,0,1,58.7,133a65.972,65.972,0,0,0,7.708-3.572c-1.412,1.484-5.227,3.695-8.943,5.872-.144.223-.293.448-.448.676,2.5-1.514,4.882-2.965,6.086-3.752A89.017,89.017,0,0,1,55.036,138.85ZM45.9,140.781c.137.03.273.05.415.087-.113-.168-.23-.325-.348-.481C45.945,140.519,45.923,140.649,45.9,140.781Zm3.493-.123c.184-.118.4-.258.634-.4.024-.081.048-.159.07-.238A8.055,8.055,0,0,0,49.394,140.658Zm-6.276-.153c.529.011,1.063.035,1.611.089l.424-1.141a7.941,7.941,0,0,0-1.727-1.307Zm-1.423-.048c.275.014.548.024.822.033l.507-2.555a9.112,9.112,0,0,0-1.231-.5Zm-1.436-.142c.179.029.354.046.531.066l.356-3.133c-.35-.089-.711-.164-1.08-.227Zm10.185-.575c-.02.1-.042.193-.064.291.516-.323,1.115-.693,1.777-1.1.135-.223.271-.446.409-.667C51.755,138.785,51.032,139.283,50.444,139.74Zm24.322-.4c.016-.268.031-.535.046-.8-.3-.064-.621-.118-.953-.156A12.392,12.392,0,0,0,74.766,139.335Zm-36.813-.024.29-2.5c-.181-.011-.367-.019-.553-.028Zm8.431-1.257c.372.156.743.315,1.11.492q-.531-.355-1.073-.7C46.41,137.919,46.4,137.985,46.384,138.055Zm7.487-.614c-.1.212-.214.427-.326.641l1.81-1.1q.305-.406.608-.8C55.242,136.608,54.538,137.029,53.871,137.44Zm-10.309-.335a20.075,20.075,0,0,1,2.2.7l.111-.3q-1.079-.665-2.2-1.267Zm-1.747-.367q.7.11,1.393.272l.184-.919q-.758-.394-1.53-.751Zm27.532.12a21.633,21.633,0,0,1,5.758-3.754q.023-.475.046-.951C73.068,133.715,70.669,135.258,69.347,136.859Zm-29.307-.3c.394.024.783.063,1.172.109l.177-1.543c-.485-.212-.975-.413-1.469-.6Zm-2.372.013c.2-.015.4-.02.605-.026l.289-2.481c-.393-.123-.791-.239-1.189-.342Zm36.1-.323a7.537,7.537,0,0,1,1.216-.828c.013-.262.028-.525.041-.785A3.268,3.268,0,0,0,73.764,136.249Zm-26.9-.636c.46.158.92.317,1.38.483-.4-.358-.826-.7-1.259-1.036C46.948,135.237,46.909,135.427,46.869,135.613Zm-2.988-.939q1.374.394,2.733.85l.219-.588a23.552,23.552,0,0,0-2.75-1.8Zm-1.98-.525c.6.142,1.191.3,1.784.466l.3-1.53a21.051,21.051,0,0,0-2.02-.988Zm-2.026-.428c.546.1,1.093.212,1.635.336l.234-2.048a17.888,17.888,0,0,0-2.009-.68Zm-5.553-5.615.407,5.5.4-2.8c-.131.009-.262.011-.393.022.133-.035.269-.062.4-.094l.378-2.673Q34.919,128.067,34.321,128.106Zm3.014,5.273c.431.041.861.086,1.29.146l.278-2.4a14.779,14.779,0,0,0-1.832-.285Zm4.691-3.126a20.937,20.937,0,0,1,6.831,1.834,23.2,23.2,0,0,0-9.3-3.716l.1,1.8a21.23,21.23,0,0,1,2.278.077l.118-1.035Zm-5,.127c.663-.094,1.325-.159,1.99-.191l.219-1.873a23.037,23.037,0,0,0-2.446-.236Zm2.488-2.883a17.977,17.977,0,0,1,8.023,2.612,20.813,20.813,0,0,0-4.842-3.506c0,.052,0,.1,0,.157-.016-.056-.027-.119-.04-.178a21.185,21.185,0,0,0-6.239-2.112l.315,3.036a17.514,17.514,0,0,1,2.6-.022l.12-1.049Zm3.2-2.091a17.724,17.724,0,0,1,6.458,4.6c-.927-1.9-3.5-4.41-6.337-6.637C42.781,124.046,42.74,124.726,42.716,125.406Zm.276-3.679c2.868,1.934,5.469,4.441,6.534,6.771a34.745,34.745,0,0,0-6.086-9.934Q43.167,120.144,42.992,121.727ZM34.3,127.87c.422-.092.846-.175,1.27-.236l.459-3.226a19.77,19.77,0,0,0-2-.206Zm9.326-10.325a20.863,20.863,0,0,1,7.006,8.742,29.718,29.718,0,0,0-3.126-9.273c-.006.064-.015.134-.022.2-.017-.1-.035-.21-.048-.327A19.532,19.532,0,0,0,45.1,113.4a13.345,13.345,0,0,1,2.276,1.742c.039-3.387.669-9,.3-10.855A70.519,70.519,0,0,0,43.63,117.545Zm32.24-7.876c.011-.68.024-1.357.032-2.036l-1.172-3.2A30.713,30.713,0,0,1,75.87,109.669Zm7.284-7.776c.51,1.188.96,2.331,1.327,3.391A47.754,47.754,0,0,1,82.9,98.872C83.009,99.871,83.091,100.88,83.154,101.892Zm-7.216,1.9c0-.219,0-.439,0-.66a38.434,38.434,0,0,0-2.776-4.508A34.275,34.275,0,0,1,75.938,103.8Zm36.164-.585c-.142-.278-.293-.562-.441-.844-.868-.148-1.749-.276-2.634-.382.031.073.064.154.092.231L109,101.98c-2.514-.306-5.015-.461-7.057-.548A40.675,40.675,0,0,1,112.1,103.212Zm-.5-2.165a18.976,18.976,0,0,1,2.56,1.03c-.346-.827-.711-1.639-1.1-2.446-.6-.044-1.307-.085-2.081-.127Q111.306,100.277,111.6,101.047Zm-3.29-.862c.853.18,1.692.387,2.508.623q-.374-.672-.767-1.353c-.669-.032-1.369-.067-2.09-.1C108.075,99.635,108.193,99.912,108.306,100.185Zm-4.969-.8c1.53.188,3.119.422,4.678.736-.14-.258-.287-.522-.435-.789-1.461-.065-2.973-.131-4.394-.2Zm7.3-.671c.881.3,1.7.6,2.42.9a51.824,51.824,0,0,0-9.877-14.034A94.347,94.347,0,0,1,110.635,98.719Zm-11.112.251c1.15.12,2.4.249,3.692.407l-.181-.244c-1.3-.064-2.523-.125-3.526-.188Zm-.052,0-.015-.027c-.219-.014-.429-.027-.625-.042C99.038,98.92,99.256,98.942,99.471,98.966Zm7.717-1.343c.743.223,1.473.448,2.173.673q-.751-1.253-1.561-2.51c-.5-.1-1.041-.185-1.618-.269C106.534,96.229,106.87,96.932,107.187,97.624Zm-2.835-.842q1.069.315,2.127.63c-.389-.663-.8-1.341-1.218-2.02-.616-.081-1.257-.158-1.9-.234Zm-28.4.5c0-.317,0-.633,0-.953-.942-1.293-1.954-2.562-3.043-3.792C73.955,94.066,74.976,95.641,75.955,97.278Zm25.278-1.43c.927.284,1.887.571,2.85.855l-1.226-1.6c-.748-.088-1.5-.175-2.228-.265Zm-4.138-1.391c.979.376,2.1.751,3.286,1.124l-.645-.861c-1-.131-1.935-.276-2.737-.44Zm8.808.5c.618.185,1.2.371,1.731.566-.649-1-1.322-1.994-2.009-2.965-.352-.09-.735-.159-1.137-.223C104.988,93.218,105.46,94.1,105.9,94.961ZM78.594,93.079c.4.66.8,1.344,1.2,2.039l-.157-1.272c-.341-.481-.684-.958-1.027-1.425C78.6,92.641,78.6,92.86,78.594,93.079Zm24.11,1.01c.717.183,1.419.367,2.094.554-.514-.819-1.045-1.644-1.589-2.459-.562-.052-1.148-.094-1.749-.127Zm-5.9.251-.066-.114c-.181-.04-.359-.081-.52-.122C96.4,94.183,96.6,94.261,96.8,94.34Zm2.942-1c.726.186,1.46.37,2.193.553l-1.443-1.884c-.527-.024-1.056-.046-1.583-.067Zm-23.8.542c0-.153,0-.306,0-.457A34.976,34.976,0,0,0,72.6,89.884C73.916,91.325,75.011,92.646,75.938,93.881Zm19.989-1.591c.787.244,1.642.481,2.525.715l-.844-1.128c-.686-.039-1.353-.085-1.985-.151Zm8.395-.238c.442.162.883.326,1.3.509-.686-.972-1.388-1.922-2.1-2.835-.216-.048-.448-.091-.7-.133Q103.612,90.815,104.321,92.051Zm-28.06-2.422c.616.82,1.237,1.723,1.854,2.689-.044-.239-.079-.48-.12-.717-.583-.772-1.165-1.5-1.749-2.178ZM95.5,92.15c-.094-.156-.188-.312-.284-.47a14.881,14.881,0,0,1-1.79-.31A19.627,19.627,0,0,0,95.5,92.15ZM66.555,90.166a12.56,12.56,0,0,0-.424,1.786,28.166,28.166,0,0,0,2.109-3.732C67.777,88.781,67.191,89.452,66.555,90.166Zm34.233.8c.671.177,1.33.367,1.976.566-.5-.732-1-1.456-1.511-2.16-.49-.059-1.01-.116-1.545-.17ZM64.117,86.3a14.849,14.849,0,0,0-2.051,4.936,27.186,27.186,0,0,1,3.485-5.487c.11-.365.236-.725.376-1.085C65.32,85.214,64.71,85.769,64.117,86.3Zm33.771,3.924c.511.127,1.018.256,1.53.385l-1.189-1.554-1.1-.1Zm-3.6-.977c.566.173,1.139.334,1.72.489l-.726-.968c-.459-.048-.907-.1-1.331-.151Zm8.392.129c.273.087.531.175.777.262a55.559,55.559,0,0,0-3.828-4.45q.5.613.973,1.238l0,0h0Q101.706,87.874,102.68,89.373Zm-24-.722q.239.443.483.894-.1-.938-.193-1.872c-.089-.112-.179-.223-.266-.335Q78.687,88,78.677,88.652Zm-2.787.489c0-.043,0-.087,0-.129-.269-.3-.538-.59-.806-.859C75.347,88.462,75.619,88.794,75.89,89.141ZM93.531,89c-.107-.164-.216-.323-.323-.485a17.9,17.9,0,0,1-1.922-.352C92,88.479,92.755,88.748,93.531,89Zm5.732-.533c.56.129,1.1.262,1.622.4-.7-.945-1.393-1.852-2.088-2.7-.315-.024-.638-.044-.977-.057Zm-2.78-.614c.332.07.664.142.994.214l-1.526-1.994c-.177,0-.352,0-.529,0Zm-3.336-.735c.358.083.723.164,1.091.248l-.968-1.3c-.231,0-.461,0-.69,0Zm-3.41-.881c.715.217,1.506.427,2.346.63-.2-.278-.4-.551-.595-.824-.673-.018-1.314-.051-1.893-.11Zm-12.5-.111c-.022-.209-.048-.419-.07-.63-.365-.422-.732-.833-1.1-1.22C76.456,84.857,76.845,85.48,77.236,86.129Zm20.383-.343c.341.046.669.094.986.148-.26-.312-.52-.614-.778-.909-.223-.022-.459-.044-.711-.061Zm-2.525-.267.464.044-.545-.71c-.107,0-.214-.009-.323-.011Zm-2.951-.262.556.052-.407-.543-.422-.016Zm-3.064-.427c.525.107,1.1.2,1.7.273-.107-.139-.214-.275-.323-.41-.529-.024-1.027-.056-1.482-.092ZM42.117,81.974c-.717,1.051-1.366,2.1-1.924,3.078,1.014-.267,2.123-.538,3.268-.789.234-.767.509-1.549.822-2.33C43.507,81.932,42.779,81.947,42.117,81.974Zm54.818,2.693c.256.059.5.118.737.181-.59-.667-1.174-1.279-1.742-1.822Zm-2.659-.523.225.04-.9-1.178Zm-50.439.037c1.349-.29,2.735-.548,4.079-.738.157-.418.348-.868.566-1.344-1.126-.092-2.293-.143-3.408-.158A23.066,23.066,0,0,0,43.837,84.181Zm47.44-.533.206.033-.669-.893ZM48.3,83.388a20.628,20.628,0,0,1,5.655-.149,14.507,14.507,0,0,0-4.707-1.071C48.909,82.586,48.592,82.995,48.3,83.388Zm39.985-.254c.334.064.677.124,1.027.186-.214-.243-.431-.47-.647-.7-.212-.015-.429-.033-.641-.05ZM53.847,81.256a18.262,18.262,0,0,1,3.161.473c-.817-.317-1.725-.623-2.68-.91ZM42.309,81.7c.658-.1,1.395-.193,2.179-.271.328-.776.691-1.543,1.089-2.286-.448-.033-.888-.057-1.314-.068C43.581,79.919,42.926,80.8,42.309,81.7Zm3.152-.356c1.045-.086,2.151-.144,3.26-.177a12.641,12.641,0,0,1,.494-1.554c-.739-.131-1.478-.243-2.2-.33A23.283,23.283,0,0,0,45.461,81.342Zm8.3-.092c.116-.155.236-.319.365-.491-.958-.282-1.961-.538-2.982-.765q-.535.574-1.034,1.147h.379C51.626,81.14,52.738,81.175,53.758,81.25Zm-5-.085.186-.006c.243-.477.509-.964.793-1.454-.037-.006-.074-.015-.114-.022C49.32,80.157,49.029,80.651,48.756,81.164Zm7.409-1.948a32.072,32.072,0,0,1,4.623,1.01,12.567,12.567,0,0,0-3.338-2.053C57.008,78.519,56.58,78.869,56.165,79.216Zm5.487-1.165c.851.343,1.675.717,2.453,1.115-.575-.459-1.174-.945-1.784-1.443Q61.983,77.888,61.652,78.052ZM52.3,78.8c1.021.068,2.037.17,3.032.3.328-.448.673-.907,1.034-1.373-.686-.265-1.4-.507-2.116-.719C53.583,77.579,52.931,78.181,52.3,78.8Zm-7.959.175c.455-.059.925-.114,1.412-.153a17.059,17.059,0,0,1,3.349-4.4A21.124,21.124,0,0,0,44.345,78.974Zm3.159-.256c.689-.024,1.394-.033,2.109-.024a12.962,12.962,0,0,1,1.513-2.431c-.267-.051-.527-.094-.787-.133A19.58,19.58,0,0,0,47.5,78.719Zm2.776-.014a.426.426,0,0,0,.056,0c.123-.2.249-.39.376-.58C50.566,78.316,50.422,78.51,50.28,78.705Zm14.165-1.9c.883.461,1.745.9,2.562,1.288-.529-.481-1.111-1.017-1.714-1.58C65.009,76.6,64.725,76.7,64.445,76.808Zm-5.531.273c.885.271,1.755.572,2.595.909.2-.14.4-.284.6-.437-.573-.469-1.154-.949-1.74-1.432C59.881,76.425,59.391,76.744,58.914,77.081Zm21.71-.656-.265.52c.289-.223.581-.457.877-.693C81.031,76.307,80.83,76.368,80.624,76.425ZM55.244,76.2q1.013.177,2.011.424c.243-.293.489-.583.739-.859a4.892,4.892,0,0,0-1.685.533,2.177,2.177,0,0,1,.9-1.471A22.931,22.931,0,0,0,55.244,76.2Zm8.384.175c.231-.183.461-.365.693-.544-.7-.093-1.406-.16-2.092-.2C62.7,75.885,63.164,76.132,63.628,76.377ZM50.782,75.8c.241,0,.479,0,.722.007.3-.354.623-.7.962-1.024A15.785,15.785,0,0,0,50.782,75.8Zm40.455-.946c-.219.194-.433.373-.64.535q.4-.246.82-.544Zm-14.555.36c.328-.053.671-.1,1.017-.156.03-.027.065-.052.1-.081C77.413,75.07,77.037,75.153,76.683,75.216Zm16.981-.1c.184-.1.363-.206.542-.309l-.173,0C93.909,74.908,93.782,75.02,93.664,75.114Zm-15.4-.249c-.023.043-.048.083-.072.127q.987-.141,2.05-.273l.568-.588Q79.468,74.563,78.265,74.865Zm3.725-1.13-.419.826c.649-.072,1.307-.141,1.978-.2.828-.689,1.676-1.4,2.545-2.123C84.684,72.775,83.3,73.284,81.991,73.734ZM93.05,69.57a54.866,54.866,0,0,1-4.938,4.5l.2-.006a73.543,73.543,0,0,0,6.263-5.053Q93.823,69.281,93.05,69.57ZM58.98,73.885l.015.006a12.921,12.921,0,0,1,1.637-.45,4.255,4.255,0,0,1,.575-.286A9.759,9.759,0,0,0,58.98,73.885Zm11.971-.523c.151.051.289.1.426.149l.035-.1c-.136-.109-.271-.218-.411-.323C70.984,73.181,70.969,73.268,70.951,73.362Zm6.212-1.091,12.142-2.628c.962-.748,1.935-1.475,2.916-2.16Zm-6.718-3.5c.105.046.21.089.313.137l.006-.028c-.1-.064-.2-.131-.306-.2C70.455,68.711,70.451,68.741,70.446,68.77Zm26.241-2.7c-.885.8-1.784,1.675-2.684,2.562l1.357-.293c1.268-1.086,2.523-2.138,3.727-3.033ZM68.26,67.938c.1.031.194.066.293.1.056-.186.113-.37.175-.559-.114-.085-.23-.169-.345-.256C68.339,67.465,68.3,67.7,68.26,67.938Zm-1.316-.747c.066-.293.138-.6.219-.912-.029-.022-.057-.043-.083-.065C67.034,66.54,66.984,66.87,66.944,67.192Zm5.811-2.246c.2.075.4.151.6.223-.168-.148-.358-.31-.544-.468C72.79,64.782,72.772,64.865,72.755,64.946Zm-1.489-.577q.406.164.816.322c.05-.158.1-.315.153-.475-.256-.21-.52-.428-.8-.653C71.377,63.831,71.323,64.1,71.266,64.369Zm-2.147-.9c.289.125.579.251.87.374.135-.37.269-.741.4-1.111-.313-.247-.631-.5-.96-.756Q69.273,62.723,69.119,63.468ZM67.611,62.8c.157.072.314.141.472.21.166-.552.341-1.113.519-1.68l-.641-.5C67.841,61.492,67.722,62.148,67.611,62.8Zm-1.275-.579.013.006q.269-1.066.584-2.179l-.107-.081Q66.6,61.107,66.336,62.22Zm-1.828-.947.66-2.573-.05-.038C64.926,59.534,64.725,60.4,64.509,61.273Zm7.618-.993c.179.094.363.193.535.282-.153-.19-.314-.387-.477-.58Zm-2.1-1.117c.479.258.94.5,1.388.741.07-.2.14-.4.208-.594-.424-.5-.861-.993-1.322-1.494Q70.167,58.486,70.024,59.164Zm-1.6-.857.966.518c.155-.5.311-.993.461-1.483-.341-.365-.693-.73-1.052-1.1Q68.619,57.273,68.426,58.307Zm5.586-.015.072.081-.072-.083ZM72.72,56.869c.317.33.624.66.915.988-.3-.352-.6-.709-.9-1.067C72.726,56.816,72.724,56.843,72.72,56.869Zm-5.472.8c.112.06.223.12.335.181q.328-1.085.658-2.172c-.2-.2-.411-.4-.619-.6C67.512,55.954,67.39,56.82,67.248,57.671Zm-3.891.143c.048-.131.094-.259.14-.388l-.024-.017C63.433,57.544,63.4,57.677,63.357,57.814Zm2.169-1.073.129.07.741-2.89c-.1-.092-.2-.183-.306-.276Q65.837,55.2,65.526,56.74Zm-3.985-.117c.072-.181.142-.356.212-.533l-.077-.059C61.63,56.23,61.59,56.42,61.54,56.623Zm9.273-1.582c.584.522,1.143,1.049,1.67,1.58l.026-.094q-.813-.974-1.616-1.972C70.868,54.715,70.84,54.88,70.813,55.041Zm-6.906.822.133.072c.394-1.091.754-2.125,1.087-3.146-.131-.114-.264-.228-.4-.341C64.487,53.587,64.216,54.717,63.908,55.863Zm4.182-7.574c2.042,2.212,4.267,4.737,6.664,7.392A99.316,99.316,0,0,0,64.22,38.374c-.133,1.9-.286,3.715-.474,5.483.5.47,1.023.968,1.559,1.509.326-1.338.618-2.726.879-4.213-.107,1.682-.238,3.234-.4,4.7.3.313.616.635.931.968.133-.658.258-1.335.373-2.051-.041.756-.1,1.513-.164,2.27q.479.507.971,1.038l.212-.823C68.107,47.607,68.1,47.945,68.089,48.289Zm-6.132,6.519c.083.043.164.09.247.133.47-1.211.9-2.372,1.3-3.513-.245-.2-.494-.393-.741-.586C62.528,52.132,62.262,53.45,61.958,54.808ZM69.244,53.7c.461.376.91.758,1.349,1.145.046-.165.094-.331.138-.494q-.665-.83-1.322-1.663C69.355,53.021,69.3,53.359,69.244,53.7Zm-1.368-1.067c.349.26.693.529,1.034.8.1-.343.19-.68.284-1.018q-.6-.768-1.193-1.529C67.967,51.474,67.924,52.055,67.875,52.632Zm-7.485-.3c.234-.939.463-1.847.7-2.746-.1-.074-.21-.142-.313-.216C60.646,50.35,60.519,51.333,60.39,52.337Zm6.016-.763c.168.116.337.228.5.346l.472-1.832c-.227-.291-.45-.58-.676-.868Q66.575,50.4,66.406,51.574Zm-1.327-.885c.194.125.389.244.584.373.228-.773.44-1.558.636-2.367-.253-.323-.5-.645-.75-.962C65.412,48.747,65.254,49.727,65.079,50.689Zm-7.028-.583c.332-.608.64-1.251.925-1.918-.079-.048-.157-.091-.236-.139C58.53,48.745,58.3,49.436,58.051,50.105ZM63,49.438c.323.181.649.372.977.568.335-1.025.641-2.048.925-3.091-.446-.566-.885-1.119-1.318-1.653C63.422,46.655,63.234,48.042,63,49.438Zm-2.1-1.082c.144.068.293.142.442.214.4-1.547.8-3.059,1.2-4.578-.313-.373-.621-.736-.925-1.085C61.383,44.708,61.147,46.515,60.906,48.356Zm-2.011-.822c.1.035.2.076.3.114a42.3,42.3,0,0,0,1.729-5.526c-.277-.309-.551-.6-.819-.879A39.3,39.3,0,0,1,58.895,47.534Zm2.831-5.411q.525.407,1.08.886c.413-1.578.828-3.183,1.248-4.849-.525-.66-1.045-1.275-1.563-1.86C62.235,38.272,61.979,40.2,61.726,42.123Zm27.263-16.9ZM70.278,185.643ZM65.665,180Zm-2.685-6.642Zm-3.946-.419Zm-1.6-2.206Zm12.076-8.679Zm-3.024-.9Zm19.592-14.249Zm35.679-2.39ZM91.27,144.1Zm-18.479-1.115Zm5.693-.1Zm40.587-2.022Zm-6.057-14.546Zm-10.6-4.711Zm-3.7-1.174ZM52.134,112.4ZM89.5,110.15Zm-7.677-2.955Zm2.991-.92Zm-30.576-.654Zm9.655-.71-.039.073C63.86,104.96,63.873,104.935,63.887,104.91ZM119.25,104.739Zm4.582-.361Zm-7.306-.811Zm-1.771-.043Zm-5.638-1.307Zm-43.1-7.044ZM100.6,86.424ZM98.734,74.983ZM112.674,60.7c-.18.1-.357.193-.535.292C112.317,60.9,112.495,60.8,112.674,60.7Z" transform="translate(188.412 138.709)" stroke="rgba(0,0,0,0)" stroke-miterlimit="10" stroke-width="1"/>
      <g id="cross" transform="translate(65.513 27.837)" style="mix-blend-mode: soft-light;isolation: isolate">
        <line id="Line_1" data-name="Line 1" y1="419.947" transform="translate(181.842)" fill="none" stroke="rgba(1,255,195,0.66)" stroke-width="1"/>
        <line id="Line_2" data-name="Line 2" y1="419.947" transform="translate(363.685 104.987) rotate(60)" fill="none" stroke="rgba(1,255,195,0.66)" stroke-width="1"/>
        <line id="Line_3" data-name="Line 3" y1="419.947" transform="translate(363.685 314.96) rotate(120)" fill="none" stroke="rgba(1,255,195,0.66)" stroke-width="1"/>
      </g>
    </g>
  </g>
</svg>
