<svg xmlns="http://www.w3.org/2000/svg" xmlns:xlink="http://www.w3.org/1999/xlink" width="490.978" height="552.464" viewBox="0 0 490.978 552.464">
  <defs>
    <radialGradient id="radial-gradient" cx="0.524" cy="0.638" r="0.638" gradientTransform="matrix(0, -1, 1.028, 0, -0.132, 1.162)" gradientUnits="objectBoundingBox">
      <stop offset="0" stop-color="#f9c80e"/>
      <stop offset="1" stop-color="#f6019d"/>
    </radialGradient>
    <filter id="Path_13" x="104.937" y="78.734" width="294.773" height="372.397" filterUnits="userSpaceOnUse">
      <feOffset input="SourceAlpha"/>
      <feGaussianBlur stdDeviation="1.5" result="blur"/>
      <feFlood flood-color="#0d0221"/>
      <feComposite operator="in" in2="blur"/>
      <feComposite in="SourceGraphic"/>
    </filter>
  </defs>
  <g id="skills_frontend" transform="translate(-235.028 -466.999)">
    <g id="frontend_skills" data-name="frontend skills" transform="translate(235.028 503.234)">
      <g id="Group_15" data-name="Group 15" transform="translate(0 0)">
        <path id="Polygon_12" data-name="Polygon 12" d="M283.57,0l94.523,163.54L283.57,327.08H94.523L0,163.54,94.523,0Z" transform="translate(163.54 0) rotate(30)" fill="rgba(1,255,195,0.33)"/>
        <path id="Polygon_16" data-name="Polygon 16" d="M236.308,0l78.769,136.283L236.308,272.567H78.769L0,136.283,78.769,0Z" transform="translate(177.244 39.385) rotate(30)" fill="rgba(1,255,195,0.33)"/>
        <path id="Polygon_13" data-name="Polygon 13" d="M189.046,0l63.015,109.027L189.046,218.054H63.015L0,109.027,63.015,0Z" transform="translate(190.947 78.769) rotate(30)" fill="rgba(1,255,195,0.33)"/>
        <path id="Polygon_14" data-name="Polygon 14" d="M141.785,0l47.262,81.77-47.262,81.77H47.262L0,81.77,47.262,0Z" transform="translate(204.65 118.154) rotate(30)" fill="rgba(1,255,195,0.33)"/>
        <path id="Polygon_15" data-name="Polygon 15" d="M94.523,0l31.508,54.513L94.523,109.027H31.508L0,54.513,31.508,0Z" transform="translate(218.354 157.539) rotate(30)" fill="rgba(1,255,195,0.33)"/>
        <path id="Polygon_17" data-name="Polygon 17" d="M47.262,0,63.015,27.257,47.262,54.513H15.754L0,27.257,15.754,0Z" transform="translate(232.057 196.923) rotate(30)" fill="rgba(1,255,195,0.33)"/>
      </g>
      <g transform="matrix(1, 0, 0, 1, 0, -36.24)" filter="url(#Path_13)">
        <path id="Path_13-2" data-name="Path 13" d="M-2815.182,3284.2l77.023-8.914,46.255-108.449,59.7,85.656,90.441,17.125-56.005,85.807,30.985,72.832-85.011-5.264-39.441,107.242-49.605-81.853-86.7-12.636,38.946-80.321Z" transform="translate(2936.97 -3083.6)" fill="url(#radial-gradient)"/>
      </g>
      <path id="Intersection_7" data-name="Intersection 7" d="M79.937,262.2c1.205-30.96.756-61.824-.577-92.692-.82,5.061-1.64,11.087-2.461,14.628-.051-5.833.717-16.318,1.957-21.371-1.935,5.451-2.813,12.74-3.434,18.975-.286-5.981.052-13.435,2.112-19.22a146.217,146.217,0,0,0-5.449,18.268,52.6,52.6,0,0,1,2.607-14.508q-2.765,6.595-5.528,13.184a52.4,52.4,0,0,1,7.713-20.53,75.168,75.168,0,0,0-8.626,16.691A47.756,47.756,0,0,1,74.721,158.9a134,134,0,0,0-8.267,13.627,40.908,40.908,0,0,1,7.5-14.945c-2.564,2.583-5.568,5.313-7.5,7.69,2.056-4.685,7.169-9.666,10.818-13.2-3.748,2.908-9.014,6.758-11.227,10.995,1.631-4.7,5.022-9.021,9.066-12.583a62.243,62.243,0,0,0-9.987,7.754c-5.137,5.01-9.187,11.382-10.346,18.462-.978,5.959.141,12.11,2.222,17.78,2.051,5.6,5.584,10.758,9.455,17.435a43.741,43.741,0,0,1-8.738-11.27c1.19,2.948,2.38,5.955,3.571,8.614a39,39,0,0,1-5.253-10.706c1.019,3.621,2.037,7.563,3.055,10.858-3.1-5.812-5.063-10.809-5.487-14.959a32.166,32.166,0,0,0,2.57,11.795c-4.551-5.3-4.191-11.451-3.115-17.527a36.654,36.654,0,0,0,.312,19.627c-3.511-7-3.042-15.556-1.483-21.589-1.6,5.068-2.558,9.143-1.539,18.4a27.663,27.663,0,0,1,1.167-20.865c-2.334,5.239-4.51,10.352-5.152,19.224-.413-7.816.62-14.451,3.927-19.767a38.752,38.752,0,0,0-5.9,19.3A24.648,24.648,0,0,1,46.36,187.5a56.218,56.218,0,0,0-5.087,13.081l-.052-.008c.435-6.193,2.883-12.281,6.19-17.69-3.011,4.273-6.3,8.549-9.025,12.822,2.409-7.88,6.766-13.821,12.306-19.92-3.787,2.605-6.378,2.973-12.728,11.9,1.129-5.879,7.652-11.334,14.577-15.2a53.288,53.288,0,0,0-14.475,9.771A29.19,29.19,0,0,1,51.91,170.948c-2.866.041-9.724,4.365-16.73,9.552a41.674,41.674,0,0,1,7.737-7.227c-2.559,1.4-5.082,2.758-7.324,3.836a63,63,0,0,1,11.842-8.241c-3.909,1.621-8.2,3.242-11.508,4.863a42.891,42.891,0,0,1,8.542-5.483c-.028-.275-.051-.556-.069-.839-2.7.884-5.352,1.767-7.408,2.65a39.922,39.922,0,0,1,7.358-3.705c-.015-.634,0-1.284.037-1.944q-1.066.214-2.1.466c-.566,1.145-1.092,2.183-1.492,2.908a13.6,13.6,0,0,1,.679-2.7c-.487.13-.971.267-1.44.418.534-.347,1.085-.672,1.642-.989a52.617,52.617,0,0,1,4.26-8.792A15.719,15.719,0,0,0,41.6,161.2c.417-2.631,2.093-4.93,4.336-7.079a19.565,19.565,0,0,0-5.557,5.426c.853-3.156,3.369-6.1,6.5-8.965-3.274,1.8-8.685,9.012-11.255,11.789a50.588,50.588,0,0,1,9.029-12.036c-3.006,2.384-6.415,5.626-9.182,7.51,2.8-3.814,7.255-8.96,11.489-11.386a67.67,67.67,0,0,0-11.742,7.9A42.962,42.962,0,0,1,49.3,143.061a52.9,52.9,0,0,0-13.907,7.574,29.008,29.008,0,0,1,9.365-7.186c-4.865,1.735-10.436,3.676-14.157,5.078,5.345-4.264,15.774-8.256,22.619-9.315a139.722,139.722,0,0,0-20.544,4.633c5.652-3.251,14.684-5.763,21.285-5.3-5.171-.4-13.033-.445-19.4,1.006,5.673-2.857,15.382-3.771,22.576-2.594a60.613,60.613,0,0,0-20.058-1.6c7.367-1.66,16.394-.979,23.767.657a87.761,87.761,0,0,0-10.882-3.333c.162.586.328,1.12.5,1.578-.29-.514-.566-1.074-.828-1.66-2.1-.508-4.187-.96-6.177-1.348-.054.377-.1.75-.142,1.1-.032-.357-.049-.745-.059-1.143-.947-.185-1.875-.356-2.761-.506.889,0,1.815.019,2.755.062-.013-4.588,1.3-11.327,1.93-14.406q-1.738,6-3.477,12c-.037-5.746,1.879-10.286,3.914-14.755a42.7,42.7,0,0,0-5.843,11.963c.769-5.259,1.89-8.672,5.1-12.906a36.274,36.274,0,0,0-6.766,11.173,24.256,24.256,0,0,1,6.809-13.624,48.172,48.172,0,0,0-8.8,10.174A28.437,28.437,0,0,1,42.86,110.1l-7.942,6.543c3.26-4.484,7.316-7.978,11.41-11.423q-6.148,4.682-12.3,9.36a44.111,44.111,0,0,1,11-9.946A40.3,40.3,0,0,0,33.6,111.921,46,46,0,0,1,48.185,100.7a33.531,33.531,0,0,0-13.243,6.391,31.182,31.182,0,0,1,15.067-9.126c-4.9,1.158-9.774,2.106-14.833,5.262a37.891,37.891,0,0,1,16.861-7.863A59.089,59.089,0,0,0,37.09,99c4.491-2.88,9.793-4.456,15.287-5.726L37.364,95.935c4.8-2.362,10.1-3.4,15.506-4.156a40.786,40.786,0,0,0-11.605.215c4.856-1.639,9.742-1.537,14.624-1.462a47.861,47.861,0,0,0-12.553-1.208,127.465,127.465,0,0,1,13.457-.706l-11.842-1.9c5.733-.1,10.811,1.081,15.958,2.127a44.137,44.137,0,0,0-10.281-3.755A21.855,21.855,0,0,1,62.3,88.152c-2.316-2.285-5.065-3.32-7.8-4.413A33.547,33.547,0,0,1,65.032,87.8l-7.884-5.011a24.562,24.562,0,0,1,7.658,3.238,30.542,30.542,0,0,0-3.8-2.582,32.33,32.33,0,0,0-26.466-2.381c-4.2,1.486-7.533,4.5-10.377,7.922-3.518,4.233-4.495,7.248-5.321,14.652-.633,5.681,1.255,7.791-.09,16.462-.161-3.233-.32-7.721-.48-10.953a34.589,34.589,0,0,1-2.4,13.732A49.8,49.8,0,0,0,17,106.517c.11,5.58-2.14,10-5.255,13.989a54.894,54.894,0,0,0,5.127-17.032,35.822,35.822,0,0,1-9.044,15.543,50.822,50.822,0,0,0,7.843-15.526A46.165,46.165,0,0,1,5.117,116.328a70.468,70.468,0,0,0,9.852-14.163A51.854,51.854,0,0,1,2.346,114.522l11.7-13.231A58.22,58.22,0,0,1,1.111,111.812a53.01,53.01,0,0,0,12.835-13.7A64.61,64.61,0,0,1,0,109.116q7.951-7.327,15.9-14.659c-4.532,3.208-9.2,6.51-14.3,10.122l8.67-8.71q-4.433,3.539-9.177,6.661L10.7,94.66,4.788,97.719c-.595.569-1.184,1.171-1.774,1.819,2.495-4.5,6.043-7.182,9.867-9.386A51.09,51.09,0,0,1,.312,94.5c4.691-2.107,8.8-4.047,13.579-6.527-4.535,2.116-8.493,2.9-12.749,2.3,6.359-.795,9.826-2.2,15.679-4.795-5.888.381-8.9.614-14.112,2.127a35.447,35.447,0,0,1,16.962-3.686c0-.048.009-.1.012-.144-1.389-.267-2.874-.488-4.409-.663l-.086.179c.017-.061.035-.123.054-.183a71.856,71.856,0,0,0-12.723-.312A85.244,85.244,0,0,1,15.67,81.605c.151-.533.3-1.072.459-1.617l-.259-.034h.267l.041-.144a64.441,64.441,0,0,0-9.758-.28c1.154-.176,2.315-.316,3.477-.429.472-.914,1.075-1.955,1.763-3.052-.624-.086-1.246-.172-1.868-.241.709-.082,1.419-.136,2.132-.172a59.463,59.463,0,0,1,3.758-5.229c-.041-.019-.08-.039-.12-.061.048.014.093.027.14.037a24.857,24.857,0,0,1,4.882-4.848c-3.025,1.839-8.293,5.776-10.867,7.195,1.8-2.742,7.225-6.46,11.048-8.82A38.844,38.844,0,0,0,9.715,68.788c3.322-3.335,6.835-4.678,10.357-5.9l-7.987,1.744a20.064,20.064,0,0,1,10.733-2.706c.172-.065.345-.127.517-.191-4.291-.345-11.262,1.1-15.337,1.981a69.129,69.129,0,0,1,14.749-3.763,38.548,38.548,0,0,0-7.9-.048,11.63,11.63,0,0,1,4.906-1.5,48.041,48.041,0,0,0-9.931-.052,44.685,44.685,0,0,1,11.732-1.354q-2.7-.95-5.4-1.9,4.992.568,9.918,1.594-5.884-2.6-11.77-5.194A53.385,53.385,0,0,1,29.6,56.466a30.293,30.293,0,0,0-7.546-4.242l5.342,2a38.984,38.984,0,0,0-11.679-5.684c4.984.5,9.537,2.579,14.375,5.248Q25.847,50.3,21.6,46.816q4.86,3.136,9.718,6.274A104.641,104.641,0,0,0,20.118,42.9,83.6,83.6,0,0,1,38.466,55.838c-4.226-4.856-8.2-10.341-12.1-14.828,4.753,3.665,9.235,8.641,13.592,13.552a65.521,65.521,0,0,0-7.77-11.76A35.1,35.1,0,0,1,36,46.142a49.761,49.761,0,0,0-4.582-6.506c5.468,3.939,9.557,9.1,12.925,16.8a60.051,60.051,0,0,0-6.553-17.293,96.639,96.639,0,0,1,11.345,18.5l-.032-.2Q45.956,50.472,42.8,43.5a69.919,69.919,0,0,1,4.771,8.244A70.713,70.713,0,0,0,42.419,39.8a29.057,29.057,0,0,1,6.774,10.365c-.417-1.518-.878-3.024-1.394-4.514l3.352,8.338a56.06,56.06,0,0,0-5.289-14.168c3.629,4.969,6.708,11.457,9.553,18.589l.009-.041q-2.9-8.415-5.808-16.831A40.108,40.108,0,0,1,55.77,52.541,21.383,21.383,0,0,0,54.3,46.153a82.968,82.968,0,0,1,3.473,9.879A65.49,65.49,0,0,0,54.5,40.47c4.351,7.127,5.293,15.874,7.965,24.6-1.819-7.421-1.731-15.044-3.55-22.466a36.884,36.884,0,0,1,4.99,12.97c-.285-4.122-.571-8.244-1.081-12.144a61.164,61.164,0,0,1,4.222,15.227c-.185-3.806-.372-7.567-.59-10.908A67.919,67.919,0,0,1,69.8,61.509q.8,1.815,1.6,3.634.016-1.1-.009-2.207A147.6,147.6,0,0,1,66.6,45.623L71.03,57.39a38.38,38.38,0,0,0-.705-4.178,70.265,70.265,0,0,1,1.852,7.227q1.379,3.662,2.758,7.326c.954,1.558-5.685-17.987-6.645-26.88,2.319,7.636,5.9,16.532,8.215,24.166-2.693-9.5-5.763-19.279-6.646-26.783,2.178,7.168,4.995,14.977,7.173,22.148-1.776-8-4.191-16.649-5.965-24.652,1.486,4.336,3.451,9.539,5.281,14.5a58.539,58.539,0,0,1-2.719-18.176c.345,7.194,3.449,16.473,6.611,22.948-3.555-7.567-6.588-18.126-6.356-26.481.741,7.353,4.147,16.241,6.871,23.112-1.992-7.225-4.569-16.013-4.93-23.119q.733,2.46,1.471,4.919a47.625,47.625,0,0,1-.547-12.207c.076,5.213,3.016,15.208,5.09,21.446-.3-5.156-2.571-14.63-2.875-19.789,1.113,5.037,3.523,11.374,4.633,16.413-.949-6.168-4.8-15.233-5.75-21.4,1.37,5.093,5.373,12.824,6.74,17.915C83.94,30.69,80.648,22.884,80,17.719c1.154,3.989,3.914,10.159,5.066,14.149-.992-6.45-3.395-14.882-4.387-21.332.656,2.264,3.108,8.265,4.152,11.335A105.065,105.065,0,0,1,82.179,6.639c.736.413,2.069,5.589,2.241,10.837Q84.894,8.737,85.362,0l.011,16.9q1.5-6.032,3-12.069-.964,6.871-1.928,13.744,1.921-4.773,3.841-9.545c-1.07,4.144-2.138,9.791-3.208,13.937,1.8-3.525,3.6-8.549,5.4-12.075q-1.627,5.138-3.248,10.273C88.312,23,87.455,24.778,86.757,26.4,89.749,20.686,94.38,13.33,97.373,7.616A88.011,88.011,0,0,1,88.2,26.9q5.579-8.483,11.162-16.966a81.9,81.9,0,0,1-9.478,17.817C93.489,23.039,96.9,18,100.591,13.424c-4.29,6.855-8.643,13.527-12.934,20.383,3.451-4.495,9.081-10.409,11.382-12.818-3.179,4.853-9.011,13.787-12.188,18.639,3.491-4.149,6.983-9.724,10.475-13.874A92.727,92.727,0,0,1,85.943,43.37c3.438-3.987,7.843-8.943,11.283-12.93-2.8,6.024-8.4,13.67-12.675,18.753,1.556-1.733,3.537-3.89,5.552-6.081.03-.1.061-.209.093-.31-.015.075-.031.164-.046.256.7-.759,1.4-1.523,2.093-2.275.075-.254.151-.48.226-.663-.032.148-.056.318-.078.5.889-.967,1.752-1.909,2.56-2.8.209-.93.417-1.746.626-2.381-.075.463-.154,1.145-.232,1.949.458-.5.9-.989,1.3-1.44-.416.7-.879,1.431-1.37,2.176-.1,1.143-.2,2.459-.307,3.761l.585-.538-.6.708c-.178,2.274-.357,4.468-.536,5.536,2.28-6.185,3.337-14.183,5.616-20.37-1.483,4.992-.7,9.373-2.186,14.365,3.2-7.621,6.658-14.333,12.212-20.451-3.468,5.55-6.225,12.456-9.694,18.008l8.953-9.92-9.285,13.366c3.329-3.446,6.745-6.908,9.163-9.46-2.337,3.394-5.286,8.08-9.005,11.264l9.868-8.041L95.725,51.18l12.343-10.564L97.6,51.494l9.308-6.366-11.6,10.88,3.081-1.537c.056-.062.112-.127.17-.186-.019.043-.036.086-.058.129l4.011-2a23.634,23.634,0,0,1,2.792-2.984A39.342,39.342,0,0,0,99.784,62.8a45.239,45.239,0,0,1,10.109-17.345,32.4,32.4,0,0,0-6,14.67c1.8-6.193,5.57-11.386,10.189-15.78a45.341,45.341,0,0,0-7.844,16.119c2.131-7.8,6.366-12.562,11.838-15.332a30.244,30.244,0,0,0-9.022,14.8c2.435-6.194,5.86-9.825,9.972-11.552A23.943,23.943,0,0,0,110.4,60.285a28.439,28.439,0,0,1,14.2-13.951c-3.994,3.12-8.485,6.552-10.551,13.156,4.424-7.27,8.578-8.428,12.6-10.378-4.667,2.661-7.953,6.316-11.531,10.988,5.871-6.033,9.117-7.912,13.435-9.845-3.907,2.4-7.978,4.682-11.1,9.655,3.468-3.8,9.466-8.736,13.907-10.465a57.928,57.928,0,0,0-12.71,10.846,70.085,70.085,0,0,1,14.383-9.952,136.9,136.9,0,0,0-13.621,10.484c4.388-2.241,12.354-6.357,16.742-8.6-3.787,2.269-11.847,6.871-15.634,9.139,4.269-2.519,11.658-5.673,16.585-6.209l-15.829,6.622,16.018-4.605-13.918,4.919,14.447-2.962-12.585,3.543,13.883-1.24-11.864,2.738L141.093,63.1l-14.63,3,14.824-.714-12.519,1.6a53.933,53.933,0,0,1,12.325.114,110.486,110.486,0,0,0-12.483.393l12.267.906-10.854.309a24.444,24.444,0,0,1,9.267,1.822,18.864,18.864,0,0,0-9.429-.5c4.086,0,6.646,2.361,9.339,4.518a39.2,39.2,0,0,0-8.8-4.138,18.579,18.579,0,0,1,8.552,7.5l-8.589-6.927c3.628,3.352,5.1,6.588,6.742,9.59a67.294,67.294,0,0,0-6.122-8.088,14.91,14.91,0,0,1,3.912,9.929c-1.361-4.536-4.118-9.641-6.13-10.746,2.147,2.755,4.181,8.6,3.634,12.051a22.479,22.479,0,0,0-28.359-19.087c-5.181,1.44-9.65,4.671-13.995,7.842L84.282,76.68c-2.65,3.477-4.252,7.637-3.37,10.1,1.71-8.148,5.645-11.408,10.12-14.4-4.618,4.668-6.945,8.766-6.275,12.117A22.11,22.11,0,0,1,95.567,70.848C91.4,74.672,88.389,79.19,89.31,82.322,91.844,74.9,96,71.386,101,69.089c-3.449,2.82-7.27,6.941-8.532,11.709a26.44,26.44,0,0,1,14.114-11.69c-5.27,3.019-9.481,7.214-10.424,11.309,2.976-3.97,7.55-8.724,13.182-11.331-4.243,3.229-8.024,6.562-10.146,10.282a28,28,0,0,1,13.422-9.429,47.563,47.563,0,0,0-12.578,10.992c3.229-3.963,9.815-8.928,15.6-10.669-4.745,2.482-10.331,6.65-13.453,11.042a40.126,40.126,0,0,1,17.918-9.92c-5.7,2.22-11.53,5.792-14.257,10.149a30.632,30.632,0,0,1,16.313-7.978c-5.415,2.022-10.51,4.428-14.256,8.486,5.494-4.482,11.815-6.478,18.364-7.174-6.407,2.2-12.663,4.594-17.981,8.173a54.417,54.417,0,0,1,17.761-4.962c-5.7,1.367-11.218,3.005-15.9,5.92,5.526-3.1,11.954-3.926,18.455-3.72-6.238.843-13.007,1.826-17.409,4.7a64.606,64.606,0,0,1,19.1-1.705c-5.809.668-11.158,1.8-16.966,2.465a69.534,69.534,0,0,1,19.246.786,113.7,113.7,0,0,0-17.208.114,46.006,46.006,0,0,1,12.794,1.21l-12.8-.6a24.757,24.757,0,0,1,9.761,3.24c-3.154-.448-7.428-2.014-10.58-2.462,2.433,1.171,8.448,4.464,10.881,5.634-2.285-.911-7.029-2.825-9.313-3.738,1.636,1.5,5.014,3.757,6.648,5.259-1.378-.844-4.5-2.441-5.876-3.285q2.05,2.739,4.1,5.476c.07-.172.138-.351.215-.516-.23,3.141.23,10.783,0,13.926.622-5.578,3.508-12.826,6.137-17.785l-2.783,12.439c1.841-5.789,2.976-12.488,5.784-17.873-1.18,3.654-1.731,7.935-2.62,11.877A48.452,48.452,0,0,1,133.6,86.824c-1.568,3.981-3.032,8.228-4.569,12.283a52.378,52.378,0,0,1,8.309-14.191c-2.194,3.727-3.916,8.116-5.946,12.071,2.663-4.755,5.875-9.457,10.224-12.57-3.787,3.991-6.653,8.779-9.273,13.009,3.606-5.048,8.081-9.823,13.741-12.363-3.907,3.339-7.967,6.629-9.713,10.68a42.513,42.513,0,0,1,13.274-9.262c-4.2,3.006-11.323,8.583-12.925,12.331,3.989-3.954,11.882-9.441,17.3-10.905-4.51,2.419-11.414,7.618-13.915,11.155,4.18-3.724,12.457-8.727,17.918-9.969-5.226,2.745-9.873,5.605-12.226,8.929,4.571-3.117,9.292-5.793,14.435-6.869-3.894,2.081-7.915,4.075-10.533,7.031,3.709-2.834,8.207-4.034,12.758-5.122-3.5,1.4-7.255,2.569-8.88,5.62a28.8,28.8,0,0,1,10.529-2.347c-3.742,1.184-9.35,2.7-11.367,4.517a40.686,40.686,0,0,1,14.494-.911,63.05,63.05,0,0,0-12.63,2.736c4.249-1.19,11.131-.971,14.776,1.515-4.4-1.2-10.092-.814-10.817.338,4.833-.174,16.391,3.109,19.4,7.586-2.663-2.17-12.021-5.838-15.294-5.978,4.717,1.223,13.419,6.842,15.106,10.626-3.014-2.642-9.894-7.612-12.938-8.38,4.323,2.006,10.475,7.913,12.284,11.412-3.524-3.29-9-8.3-12.4-9.776,4.049,2.96,9.057,10.052,10.34,14.9-4.366-6.059-8.879-12.261-15.138-16.334a29.553,29.553,0,0,0-6.534-3.169,43.02,43.02,0,0,0-9.121,4.472c4.37-1.641,10.669-2.606,15.035-.952a33.7,33.7,0,0,0-12.732,1.465c5.634.385,13.1.716,18.2,3.139a63.1,63.1,0,0,0-38.384,3.612c3.333-.852,6.732-1.483,9.655-2.2-4.118,1.946-5.195,2.013-9.089,3.823l.043.02c4.626-1.77,11.183-3.643,15.668-5.407l-13.713,6.775a132.856,132.856,0,0,1,17.194-6.729c-4.885,1.774-9.436,4.676-13.339,6.882,4.624-2.432,9.858-4.941,15.037-5.623-4.506,1.946-10,4.887-14.509,6.835,5.472-2.013,12.241-4.178,18.063-4.456-4.667,1.557-9.839,3.625-14.536,5.218,5.339-1.776,11.278-3.005,16.375-2.3a50.661,50.661,0,0,0-13.552,2.848,52.465,52.465,0,0,1,17.605-1.569c-4.657.5-11.511,1.289-15.6,3,5.083-.943,12.433-1.4,17.485-.3a69.764,69.764,0,0,0-14.534,1.471c5.461-.382,12.462.122,17.311,2.667a53.327,53.327,0,0,0-14.609-1.668c6.06.491,13.821,3.031,18.588,7.4a88.69,88.69,0,0,0-14.67-5.543c5.012,1.892,11.242,5.306,14.325,9.911-3.547-3.813-9.736-6.749-13.41-8.2,5.072,2.567,11.222,6.951,13.472,12.133a40.153,40.153,0,0,0-11.836-9.841c6.191,3.647,10.557,10.144,13.634,16.721-3.169-5.531-8.275-11.392-11.77-13.866,4.51,3.933,8.8,10.43,10.123,16.578a63.286,63.286,0,0,0-9.858-15.171c4.529,5.763,7.242,11.942,7.035,17.886a60.357,60.357,0,0,0-7.339-16.364c1.344,3.195,3.819,6.788,4.53,10.181a18.162,18.162,0,0,1-.513,10.243c.729-5.851-1.412-13.1-4.333-18.321,2.842,6.782,4.019,15.462,1.733,22.316.553-6.209-.549-13.535-1.873-19.627,1.021,7.263.043,15.9-3.952,22.053,1.445-4.824,2.9-9.707,3.186-14.734s-.693-10.3-3.712-14.333c-2.747-3.671-6.889-5.992-10.906-8.207-.23-.127-.485-.254-.75-.379a30.957,30.957,0,0,0-9.763-1.7c.129.08.256.162.383.246,4.333.411,9.332,2.461,12.719,4.291a29.426,29.426,0,0,0-10.62-2.713c.392.34.768.7,1.131,1.07,3.963.7,8.008,2.133,10.819,4.478a49.693,49.693,0,0,0-12.193-3.081c.366.335.719.682,1.066,1.038a24.135,24.135,0,0,1,11.167,7.408,42.732,42.732,0,0,0-8.844-4.715c.283.379.56.766.824,1.16,3.636,1.854,5.979,3.921,7.339,6.148-3.478-3.056-6.729-5.571-11.958-6.531.067.083.132.172.2.256,7.091,3.167,10.1,6.7,13.537,9.9-4.028-2.891-7.331-5.844-11.845-7.627.172.241.345.48.512.723a57.057,57.057,0,0,1,12.116,11.653,60.228,60.228,0,0,0-12.437-8.827,35.936,35.936,0,0,1,12.02,12.738A27.083,27.083,0,0,0,134.2,143.5c.089.178.17.361.256.542a30.836,30.836,0,0,1,9.757,12.757c-2.674-3.666-5.24-7.653-8.446-9.691a.172.172,0,0,1,.011.028l-.023-.037c-.237-.152-.479-.295-.726-.424,5.13,5.219,6.593,9.688,8.448,14.236-2.516-4.282-4.83-8.877-8.482-11.395a29.071,29.071,0,0,1,6.729,15.042,49.219,49.219,0,0,0-6.83-13.022,29.017,29.017,0,0,1,3.7,17.95c-.734-5.675-1.765-12.225-4.6-15.425a33.333,33.333,0,0,1,.125,17.565c.088-4.33.546-8.538-.81-13.337.336,6.943-1.273,11.18-2.386,16.1a68.357,68.357,0,0,0,1.194-12.559,54.038,54.038,0,0,1-3.2,11.231c1.791-8.583,3.55-17.334,2.952-26.048a46.186,46.186,0,0,0-3.076-5.668q.553,1.834.963,3.7a22.739,22.739,0,0,1,1.957,3.558q-.808-1.024-1.647-2.022a45.221,45.221,0,0,1,.779,8.047c.1.356.194.708.286,1.068-.1-.2-.191-.394-.288-.588a41.294,41.294,0,0,1-.389,5.451,49.159,49.159,0,0,0-.528-7.376c-.581-1.248-1.158-2.5-1.78-3.735a41.224,41.224,0,0,1-2.1,14.736,42.621,42.621,0,0,0,1.32-7.9,29.648,29.648,0,0,0-1.173-4.192,37.344,37.344,0,0,1-4.618,12.088,54.928,54.928,0,0,0,3.612-14.53c-.041-.092-.086-.183-.132-.273a76.524,76.524,0,0,1-6.6,15.832q2.054-5.767,4.106-11.531c-1.579,2.941-5.273,8-6.853,10.938,2.243-4.745,4.834-10.624,7.02-16.07-1.978-3.752-4.215-7.466-7.244-10.235a445.572,445.572,0,0,0-6.913,49.7c-1.1,13.776.009,30.138,1.494,46.4l-6.144,16.706c-1.5-38.571.216-78.336,9.433-114.49a16.964,16.964,0,0,0-1.862-1.106c-5.011-2.524-12.068-2.564-16.23,1.2-1.063.961-2.248,1.949-3.466,2.95a2.5,2.5,0,0,1,1.32,2.235,2.414,2.414,0,0,1-2.327,2.491,2.173,2.173,0,0,1-.977-.24c4.364,9.785,6.885,18.938,9.477,31.1a170.759,170.759,0,0,1,3.182,47.42c-1.494,17.168-2,30.161-6.947,48.006.161-.064.32-.13.48-.2a9.069,9.069,0,0,0,1-.562l-4.677,12.717Zm7.052,8.78A196.427,196.427,0,0,0,95.17,180.9a29.455,29.455,0,0,1-10.587-15.16,29.8,29.8,0,0,0,8.506,16.533,20.2,20.2,0,0,1-8.178-9.659q.187,2.66.359,5.321a27.319,27.319,0,0,0,2.213,5.442,12.742,12.742,0,0,1-2.009-2.256A882.7,882.7,0,0,1,86.989,270.984Zm-3.8-123.66c-.075.213-.142.43-.209.645q.675,7.85,1.277,15.715c2.512,6.424,6.465,11.944,10.906,17.174a203.476,203.476,0,0,0-7.251-31.884,2.94,2.94,0,0,1-1.782.607,3.109,3.109,0,0,1-2.93-2.269Zm-38.343,19.94c-.043.285-.086.571-.125.857,2.571-1.3,5.212-2.451,7.625-3.444C50.151,165.541,47.49,166.4,44.847,167.264Zm.548-3.05q-.2.932-.357,1.875c4.086-1.574,8.387-2.826,12.279-4.314C53.656,162.951,49.42,163.461,45.4,164.215Zm-2.639-.288q.865-.453,1.754-.864a21.233,21.233,0,0,1,.48-2.622,20.092,20.092,0,0,1,1.05-3.118C45.434,158.363,44.048,161.285,42.757,163.926Zm3.668-3.774q-.348,1.159-.637,2.34a91.613,91.613,0,0,1,15.543-4.641C56.6,158.919,51.266,159.224,46.425,160.152Zm19.812-20.932c-6.388.758-11.242,4.845-14.826,10.187a39.443,39.443,0,0,0-4.79,10.125c5.47-2.819,13.182-4.5,18.994-4.851-4.787.114-11.81.226-16.6.341,4.906-.825,12.275-1.682,18.038-2.622l-14.5-.676,16.144-.831-11.381-2.159,14.3.971L60.2,145.713l13.255,2.881-11.507-6.078L74.2,146.971l-9.623-5.589c3.518.889,7.959,2.233,11.391,4.463-2.478-1.718-7.251-4.9-9.729-6.624,3.5.34,8.448,2.629,11.854,5.033,0-.062-.006-.123-.011-.188l-5.227-4.613a22.533,22.533,0,0,0-3.7-.372c0,.025-.009.051-.011.079,0-.025,0-.054,0-.079-.128,0-.256,0-.384,0A21.291,21.291,0,0,0,66.237,139.221Zm60.289,10.934a32.719,32.719,0,0,1,.9,5.363,42.722,42.722,0,0,0-.314-8c-.075-.132-.153-.264-.23-.4Q126.753,148.641,126.526,150.154Zm1.46-3.287a29.938,29.938,0,0,1,1.376,3.118,49.01,49.01,0,0,0-1.72-6.086l-.006-.008C127.785,144.887,127.9,145.879,127.985,146.867Zm-4.924.842q.23-.585.454-1.158a29.277,29.277,0,0,0-3.675-4.8A20.913,20.913,0,0,1,123.062,147.709Zm1.281-3.311c.083-.215.164-.429.241-.642a22.719,22.719,0,0,0-1.825-2.028A25.777,25.777,0,0,1,124.342,144.4Zm7.216-.372c-.174-1.27-.413-2.54-.714-3.8a26.651,26.651,0,0,0-1.893-2.017Q130.406,141.056,131.559,144.025Zm1.5-.954c-.017-.025-.036-.051-.056-.077-.051-.02-.1-.043-.153-.064C132.917,142.977,132.984,143.025,133.055,143.071Zm-50.035-.751.889.592c.006-.022.015-.043.022-.064a16.788,16.788,0,0,0-1.318-1.438C82.754,141.712,82.889,142.017,83.02,142.321Zm42.041.133c.043-.119.088-.241.132-.357s.09-.259.135-.385a27.169,27.169,0,0,0-5.507-3.749A22.1,22.1,0,0,1,125.062,142.454Zm-47.138-1.07c-.006-.129-.014-.26-.02-.39a22.763,22.763,0,0,0-2.6-.949Zm47.81-.833c.274-.814.53-1.636.74-2.465a29.512,29.512,0,0,0-9.233-2.267A26.1,26.1,0,0,1,125.734,140.551Zm-37.017-4.2c.07,1.366.125,2.674.123,3.741.15-1.78.359-3.841.645-5.894C89.235,134.917,88.977,135.636,88.716,136.351Zm-34.342,2.223Zm27.732-.445c.241.114.463.224.644.327l-.659-.5C82.1,138.013,82.1,138.071,82.107,138.129Zm-6.3.238a23.507,23.507,0,0,0-1.713-3.052c-.666-.383-1.3-.736-1.888-1.053Q74.023,136.219,75.8,138.368Zm14.99-8.18a50.761,50.761,0,0,0,.107,8.09c-.153-4.919.514-9.461,3.412-12.973a19.684,19.684,0,0,0-1.035,11.009c-.9-6.09.36-10.721,4.39-13.166q-3.865,5.458-1.9,10.547a14.392,14.392,0,0,1,3.944-11.879c-2.644,4.813-2.818,8.53-2.223,11.9a16.9,16.9,0,0,1,4.585-12.57,27.115,27.115,0,0,0-2.745,12.413A23.781,23.781,0,0,1,104.787,121a37.588,37.588,0,0,0-7.264-1.539,32.189,32.189,0,0,0-6.122-.071q-1.476,5.6-2.954,11.219c.022.936.072,1.982.127,3.068.6-1.428,1.2-2.88,1.773-4.25a23.747,23.747,0,0,1,.837-2.869c-.067.4-.125.824-.178,1.268.391-.956.749-1.843,1.046-2.611A49.844,49.844,0,0,1,90.794,130.187Zm-4.041,6.853c0,.251,0,.5-.007.755.024.043.046.089.067.132.256-.624.525-1.285.809-1.97.143-1.345.289-2.682.453-3.936Q87.416,134.531,86.754,137.04Zm39.856.491a12.373,12.373,0,0,0,.127-5.757c-.006-.028-.017-.054-.023-.081a48.978,48.978,0,0,0-10.273,1.629l-.035.183c4.866-.884,7.436.072,10.268.819a21.843,21.843,0,0,0-10.514.437l0,.035c.452-.035.9-.051,1.332-.051A16.324,16.324,0,0,1,126.61,137.531ZM69.9,135.291q.74.784,1.452,1.615a16.694,16.694,0,0,0-1.2-2.4C70.057,134.768,69.979,135.029,69.9,135.291ZM53.592,132.11a40.8,40.8,0,0,1,12.271,4.579c-3.195-3.115-9.3-5.57-13.925-7.864A22.716,22.716,0,0,0,53.592,132.11Zm18.085-.941a26.774,26.774,0,0,1,5.187,4.874c.256.1.51.192.761.286-.031-.538-.062-1.076-.1-1.612-.091-.151-.185-.3-.28-.448q-2.552-1.938-5.1-3.878C71.987,130.649,71.828,130.906,71.677,131.169ZM51.383,105.036a37.036,37.036,0,0,0,.217,22.921c4.764.514,11.466,3.382,16.486,8.286a36.4,36.4,0,0,0-12.9-9.892,29.172,29.172,0,0,1,14.3,8.5c.078-.33.164-.659.264-.99a49.976,49.976,0,0,0-6-7.162,49.252,49.252,0,0,1,6.545,5.573c.133-.349.275-.7.424-1.038-.6-.592-1.219-1.154-1.849-1.694a18.522,18.522,0,0,1,2.093,1.145c.278-.595.577-1.182.9-1.752-.73-.325-1.447-.638-2.138-.948-.84.6-1.621,1.148-2.256,1.544a11.825,11.825,0,0,1,1.413-1.927c-.333-.153-.661-.308-.979-.463.334.133.687.263,1.047.388.422-.475.892-.95,1.4-1.423a45.7,45.7,0,0,1-4.27-2.237c1.464.551,3.232,1.045,5.057,1.527.455-.4.924-.789,1.413-1.174-.844-.354-1.712-.688-2.586-1.007-.032.1-.067.206-.1.31,0-.107,0-.228,0-.342-.109-.04-.219-.078-.329-.119-.073.071-.155.14-.222.211.06-.078.127-.146.189-.221a83.523,83.523,0,0,0-8.794-2.571c2.551.407,5.923,1.073,9.184,1.931.013-.153.035-.312.054-.47-4.37-1.644-9.042-3.319-12.168-4.848,3.019,1.079,8.1,2.349,12.4,3.548.085-.379.185-.764.3-1.158a138.037,138.037,0,0,0-14.48-5.967,101.789,101.789,0,0,1,11.944,3.565c.038-.176.094-.353.148-.532q-5.605-2.87-11.209-5.739,5.913,2.064,11.821,4.13c.093-.2.185-.4.286-.6q-7.146-3.549-14.3-7.1c4.12,1.649,8.493,3.236,12.995,4.633l.013-.035a42.942,42.942,0,0,1-15.128-9.264,46.341,46.341,0,0,0,15.293,8.091A25.668,25.668,0,0,1,55.876,100.61a29.7,29.7,0,0,0,13.063,8.611,26.312,26.312,0,0,1-10.817-9.389,28.239,28.239,0,0,0,9.294,6.537c.124-.159.26-.317.4-.472A51.414,51.414,0,0,0,62.76,95.484C57.514,96.868,53.174,99.626,51.383,105.036Zm78.267,31.19c-.165-.454-.347-.9-.532-1.352-.3-.2-.595-.394-.9-.566C128.7,134.941,129.178,135.582,129.65,136.226ZM81.856,135.4l.189.1c-.064-.07-.133-.135-.2-.2Zm-11.02-2.575q.648.661,1.294,1.354c.484.218,1.048.45,1.662.691a24.892,24.892,0,0,0-2.478-3.02C71.143,132.174,70.986,132.5,70.836,132.829Zm64.712,1.823c-.594-.48-1.186-.973-1.778-1.453a24.766,24.766,0,0,0-4.149-.945A44.6,44.6,0,0,1,135.548,134.652Zm-58.827-1.965.706.375c-.028-.444-.056-.885-.082-1.326a38.943,38.943,0,0,0-3.77-2.011A33.177,33.177,0,0,1,76.721,132.687Zm24.368.37a28.922,28.922,0,0,1,6.335-11.136q-1.055-.408-2.129-.76C102.942,125.1,101.323,129.066,101.089,133.057Zm2.557-.31a22.262,22.262,0,0,1,5.981-9.913c-.575-.255-1.152-.5-1.735-.735A24.3,24.3,0,0,0,103.646,132.747Zm9.6-.175c.415-.1.829-.18,1.244-.264.041-.151.08-.3.12-.448C114.147,132.077,113.691,132.315,113.25,132.572Zm-3.316-.027a28.344,28.344,0,0,1,5.152-2.394c.143-.5.3-1,.442-1.5A43.244,43.244,0,0,0,109.934,132.545Zm-4.038-.082A22.952,22.952,0,0,1,111.848,126a2.584,2.584,0,0,1-.5-1.525v-.006A64.124,64.124,0,0,0,105.9,132.463Zm-1.04-.032a40.2,40.2,0,0,1,6.465-8.807q-.585-.287-1.176-.558A42.686,42.686,0,0,0,104.856,132.431ZM72.2,130.3q1.731.918,3.459,1.83c-.674-.82-1.391-1.617-2.107-2.411-.245-.115-.488-.228-.732-.34C72.611,129.679,72.4,129.985,72.2,130.3Zm-22.566,1.1c1.264.189,2.532.415,3.791.684a25.194,25.194,0,0,1-1.847-3.431c-.519-.263-1.023-.523-1.495-.782.372,0,.771.024,1.176.058a52.479,52.479,0,0,1-3.1-10.862C47.859,119.856,48.558,126.722,49.639,131.393Zm58.511.566a38.278,38.278,0,0,1,7.5-4.652,3.408,3.408,0,0,1-.417-.995,2.231,2.231,0,0,1-1.552.648,2.133,2.133,0,0,1-.8-.159A17.47,17.47,0,0,0,108.149,131.959Zm8.753-1.013c-.062.316-.122.63-.185.952a44.455,44.455,0,0,1,9.92-.469,9.418,9.418,0,0,0-1.135-2.461A62.577,62.577,0,0,0,116.9,130.946ZM89.748,119.579a72.512,72.512,0,0,1-3.462,12.157q2.5-6.168,5.01-12.338C90.779,119.443,90.262,119.505,89.748,119.579Zm-46.224,11.2c1.8.091,3.677.271,5.573.538a33.838,33.838,0,0,1-2.189-10.578c.034,3.6-.324,6.012-.224,9.812a17.635,17.635,0,0,1-1.365-9.423C44.772,124.261,43.972,127.8,43.523,130.777Zm29.74-2c1.344.351,2.7.7,3.964,1.075-.011-.177-.022-.353-.033-.53-1.007-.51-2.073-1.011-3.153-1.507Q73.637,128.291,73.263,128.781Zm43.919.728a23.884,23.884,0,0,1,8.176-.758,10.91,10.91,0,0,0-3.541-3.253c-.177.073-.353.147-.53.224a3.179,3.179,0,0,1-3.076,3.048,2.855,2.855,0,0,1-.861-.133ZM85.1,120.622c-.573,2.719-1.251,5.415-2.052,8.075q1.347-4.136,2.691-8.273C85.528,120.487,85.315,120.556,85.1,120.622Zm-15.2,7.227c.711.22,1.452.429,2.207.631q.359-.62.745-1.2c-.445-.2-.887-.407-1.33-.609C70.982,127.07,70.433,127.469,69.907,127.849Zm58.942-.148c.148.1.291.217.439.325.965.067,1.959.174,2.966.333-.579-.331-1.16-.646-1.747-.932A9.378,9.378,0,0,0,128.849,127.7Zm-41.338-7.721a73.2,73.2,0,0,1-2.266,8.336q1.5-4.245,3-8.49C88,119.875,87.754,119.925,87.511,119.979ZM75.251,126.5c.618.17,1.22.345,1.8.523-.012-.2-.026-.4-.039-.6-.34-.2-.7-.4-1.056-.589C75.716,126.045,75.479,126.267,75.251,126.5Zm51.945-2.039c.1.047.2.1.3.149a36.463,36.463,0,0,1,10.389,2.154,58.485,58.485,0,0,0-8.281-2.516Zm-54.5,1.357c.334.086.668.174,1,.262.254-.342.512-.674.773-.986-.153-.073-.306-.146-.463-.217C73.587,125.169,73.147,125.485,72.7,125.813Zm48.593-.569.041-.01-.043-.024C121.288,125.22,121.29,125.234,121.29,125.245Zm-37.69-4.1q-.352,1.764-.778,3.51l.9-3.555Zm-8.421,2.917c.056.019.107.041.161.062l.032-.035-.146-.061ZM70.2,122.5c1.132.3,2.243.629,3.3.976l.133-.1c-.966-.388-1.98-.779-3.021-1.173C70.472,122.3,70.329,122.4,70.2,122.5Zm.058-.3c.033-.033.066-.066.1-.1l-.058-.021C70.286,122.123,70.273,122.164,70.258,122.2Zm1.939-.977c1.126.331,2.157.655,3.014.96-.678-.456-1.434-.913-2.237-1.369C72.708,120.954,72.448,121.09,72.2,121.228Zm39.418.062.01.033-.009-.035Zm-.03-.094.009,0q-.765-3.194-1.535-6.383c.784,1.226,1.455,2.412,2.067,3.58a33.648,33.648,0,0,0-4.846-9.737c-2.153-2.7-4.551-3.715-7.789-4.928-5.359-2.006-11.614-1.978-16.338,1.221.037.84.061,1.68.067,2.521.588.119,1.173.254,1.752.4.067-.3.136-.6.2-.9-.006.312-.024.625-.037.939a32.008,32.008,0,0,1,9.613,4.366c-2.275-3.229-5.294-4.949-8.139-7.019a42.919,42.919,0,0,1,13.519,8.67,41.08,41.08,0,0,0-7.828-8.678c4.625,2.059,8.215,5.561,11.408,9.615a40.727,40.727,0,0,0-6.324-9.4,32.281,32.281,0,0,1,8.949,10.556,33.583,33.583,0,0,0-4.178-9.516c3.834,3.893,5.653,8.427,7.457,12.964q-1.689-5.079-3.378-10.157A45.652,45.652,0,0,1,111.586,121.2Zm-40.83-.383.763.217c.245-.206.495-.407.751-.6-.364-.2-.737-.394-1.118-.59C71.016,120.16,70.878,120.485,70.756,120.812Zm.956-2.244c.69.293,1.349.586,1.967.879l.019-.014-1.931-.987C71.748,118.487,71.731,118.528,71.712,118.568Zm8.6.015c-.007.1-.015.207-.022.312.112-.073.224-.145.332-.214l.019-.1C80.538,118.578,80.428,118.579,80.316,118.584ZM68.06,117.135c.964.353,1.906.714,2.805,1.082.022-.065.049-.133.073-.2q-1.331-.679-2.657-1.358C68.2,116.823,68.127,116.982,68.06,117.135Zm8.185-1.2c.012.424.028.847.038,1.268.033-.17.056-.345.086-.517-.017-.251-.035-.5-.051-.755Zm-3.419.451c.31.11.62.217.93.325l-.869-.431C72.865,116.319,72.846,116.354,72.827,116.39Zm51.374-5.8a38.074,38.074,0,0,1-3.4,5.834c2.416-2.327,4.291-5.3,6.387-8.015A30.167,30.167,0,0,0,124.2,110.588Zm-43.756,5.173c0,.183-.01.369-.017.551.22-.073.437-.146.656-.217l.067-.385C80.917,115.727,80.684,115.749,80.445,115.761Zm-11.289-.652,2.57.9c.035-.083.072-.164.108-.245q-1.176-.585-2.346-1.165C69.376,114.769,69.262,114.942,69.156,115.109Zm13.64.417a.3.3,0,0,1,0,.048c.1-.028.2-.058.3-.086C82.994,115.5,82.893,115.511,82.8,115.527Zm-8.674-1.283c0,.237.013.476.015.713.043-.3.075-.6.114-.9C74.208,114.117,74.163,114.179,74.123,114.244Zm2.088.626.035-.011c-.031-.471-.064-.942-.1-1.412C76.17,113.923,76.193,114.4,76.211,114.87Zm52.1-7.158c-1.283,2.3-2.316,4.891-3.914,6.809,2.573-2.82,4.8-6.014,7.513-8.581A29.783,29.783,0,0,0,128.313,107.712Zm-47.885,4.175c.021.581.026,1.16.03,1.741.36-.086.732-.166,1.1-.249q.14-.792.278-1.583C81.371,111.809,80.9,111.841,80.428,111.887Zm2.6,1.186c.263-.052.525-.1.792-.151l.233-1.023c-.312-.043-.625-.069-.939-.086C83.087,112.233,83.056,112.653,83.024,113.073Zm50.488-7.733c-1.957,2.332-3.4,5.246-5.315,7.64a36.112,36.112,0,0,1,13.524-9.209A30,30,0,0,0,133.512,105.34Zm-21.754,7.438c1.038-5.15,2.054-11.279,1.412-16.493,2.133,4.469,2.9,10.41,2.807,16.29a46.3,46.3,0,0,1,3.47-10.546c-.532,2.37-.361,5.821-.467,8.848.342-4.51.487-9.8,2-13.5a38.607,38.607,0,0,0-9.586-9.1,30.778,30.778,0,0,0-6.1-3.186,44.919,44.919,0,0,1,3.763,22.544A89.9,89.9,0,0,0,109.5,87.7a74.259,74.259,0,0,1,1.483,23.194,97.877,97.877,0,0,0-.03-20.613A55.421,55.421,0,0,1,111.758,112.778Zm-26.931-.039c.351-.062.7-.12,1.061-.179l.058-.228a10.867,10.867,0,0,0-1.051-.282C84.876,112.278,84.85,112.509,84.826,112.739Zm-12.2-2.181c.038.7.067,1.4.08,2.106l-.01-2.181Zm-4.7,1.4c.588.18,1.169.37,1.762.545-.586-.177-1.167-.369-1.746-.569C67.942,111.942,67.936,111.949,67.931,111.958Zm20.88-.82a18,18,0,0,1,1.918.521L86.77,109.62c-.038.393-.075.787-.116,1.179a19.087,19.087,0,0,1,2.11.33l.069-.211C88.826,110.991,88.818,111.064,88.811,111.138Zm-14.9-1.906q.069,1.111.119,2.213c.2-.34.4-.672.6-.995.056-.663.1-1.326.142-1.994C74.486,108.7,74.2,108.958,73.911,109.232Zm9.007-4.136a33.639,33.639,0,0,0-2.822,2.247q.207,1.932.3,3.871c.529-.125,1.065-.224,1.605-.3q.3-1.718.605-3.436c-.138-.07-.274-.142-.411-.211.147.024.288.057.433.084q.207-1.162.411-2.327C83,105.049,82.958,105.071,82.918,105.1Zm60.01-1.363a52.564,52.564,0,0,0-8.966,7.41c3.963-2.766,8.785-6.054,13.627-7.106a31.746,31.746,0,0,0-4.337-.306Zm-59.77,7.044c.385-.033.773-.052,1.162-.061l.482-2.11c-.527-.27-1.056-.545-1.584-.815Q83.222,109.286,83.158,110.778Zm1.836-.065c.45,0,.9.022,1.347.059q.155-.608.307-1.215l-1.541-.791C85.078,109.415,85.039,110.063,84.994,110.713ZM71.38,108.157c.148.6.295,1.2.44,1.8.029-.035.059-.071.086-.108q-.122-.962-.245-1.927C71.567,108,71.475,108.076,71.38,108.157Zm68.747,1.615a40.752,40.752,0,0,1,11.526-4.9c-1.01-.28-2.035-.514-3.068-.693A34.8,34.8,0,0,0,140.127,109.772Zm-67.779-2.411c.062.575.119,1.147.166,1.722.058-.072.116-.138.174-.207,0-.594-.006-1.186-.011-1.776C72.568,107.184,72.459,107.273,72.349,107.361Zm1.35-1c.036.408.065.812.1,1.219q.546-.618,1.072-1.178c.009-.272.013-.543.02-.814C74.505,105.813,74.108,106.074,73.7,106.358Zm-4.22-1.651c.228.878.439,1.76.611,2.65q-.228-1.375-.456-2.753C69.582,104.638,69.531,104.674,69.479,104.707Zm.926-.538c.222.9.439,1.8.661,2.693.134-.132.272-.258.412-.383q-.169-1.324-.337-2.645C70.891,103.936,70.646,104.046,70.4,104.169ZM67.472,106.4c.211.1.416.194.631.288-.08-.228-.165-.45-.248-.676C67.726,106.136,67.6,106.262,67.472,106.4Zm4.356-2.822q.19,1.156.346,2.312c.162-.129.328-.256.5-.382q0-1.088-.009-2.176Q72.238,103.435,71.828,103.575Zm35.284,2.211a53.427,53.427,0,0,0-1.853-20.714c-.582-.218-1.167-.42-1.766-.6A23.275,23.275,0,0,0,78.12,93.127c5.737.9,12.688,3.2,16.518,6.469A51.859,51.859,0,0,0,83.012,91.1c6.969,1.666,11.789,4,15.528,10.117-1.836-5.911-4.785-8.8-10.357-11.5a20.46,20.46,0,0,1,13.55,13.332c-1.513-6.874-4.777-12.365-9.3-16.021a12.944,12.944,0,0,1,6.88,6.2,40.124,40.124,0,0,1,3.694,8.9C102.5,96.191,99.9,90.4,96.482,85.528a33.661,33.661,0,0,1,8.361,17.2,30.605,30.605,0,0,0-4.71-17.5A29.3,29.3,0,0,1,107.112,105.785Zm-31.54-.592c.006.058.012.114.017.17,0-.059-.008-.115-.01-.172Zm-2.2-2.023c.066.574.131,1.145.187,1.715q.659-.43,1.358-.809c0-.367,0-.739,0-1.106A12.829,12.829,0,0,0,73.369,103.17Zm-4.595-.881c.235.722.446,1.449.642,2.183.059-.043.116-.084.177-.125q-.191-1.144-.38-2.286C69.066,102.135,68.917,102.21,68.775,102.289Zm1.046-.508q.258,1.048.513,2.1.361-.21.759-.411-.132-1.031-.262-2.065C70.483,101.518,70.144,101.646,69.821,101.781Zm5.52,1.165c.032.287.061.572.091.861l.047-.025c-.022-.28-.041-.558-.06-.838C75.393,102.943,75.367,102.943,75.341,102.946ZM63.4,95.323a28.279,28.279,0,0,1,4.517,8q-1.292-4.2-2.59-8.4C64.674,95.037,64.03,95.17,63.4,95.323Zm8,5.9q.188.966.351,1.931c.287-.13.588-.254.9-.375l-.008-1.868Q72.008,101.05,71.4,101.224Zm1.667-.4c.079.577.157,1.152.227,1.726q.75-.262,1.609-.5c-.008-.5-.019-1.008-.037-1.512C74.258,100.614,73.656,100.709,73.07,100.821Zm-7.533-5.938a42.349,42.349,0,0,1,3.227,7.369,3.654,3.654,0,0,1,.414-.409q-.6-3.652-1.208-7.3C67.15,94.632,66.336,94.746,65.537,94.884Zm9.518,5.634c.06.485.116.964.172,1.447l.119-.033c-.033-.441-.062-.887-.1-1.328-.01-.035-.021-.069-.035-.1C75.162,100.509,75.109,100.513,75.055,100.517Zm-7.009-5.987q.846,3.453,1.692,6.9a7.63,7.63,0,0,1,1.027-.547l-.31-2.432a3.38,3.38,0,0,1-1.24-2.646,3.473,3.473,0,0,1,.3-1.424Q68.778,94.446,68.045,94.531Zm10.372,6.454c.011.1.02.188.031.28,1.556-.275,3.311-.513,5.3-.71a42.481,42.481,0,0,0-4.586-.254A2.365,2.365,0,0,1,78.417,100.984Zm-7.123-.31a13.715,13.715,0,0,1,1.352-.43c0-.382-.006-.767-.006-1.148a2.908,2.908,0,0,1-1.752-.351C71.031,99.39,71.165,100.032,71.294,100.674Zm1.518-1.607c.057.364.116.729.168,1.091q.878-.213,1.857-.37c-.006-.107-.01-.216-.017-.323-.156-.391-.315-.783-.487-1.169A2.967,2.967,0,0,1,72.812,99.067Zm6.82-.255a2.7,2.7,0,0,1-.051.515c2.529-.12,5.233-.1,7.84,0-2.056-.321-5.05-1.142-8.133-1.8A2.618,2.618,0,0,1,79.632,98.812Zm-1.978-5.02q.13,1.221.261,2.441c3.783.465,8.023,1.613,11.3,2.239-2.917-2.236-7.45-3.937-11.349-4.982C77.793,93.592,77.722,93.691,77.653,93.792ZM4.977,97.538,13.92,92.2l1.485-1.5A36.7,36.7,0,0,0,4.977,97.538Zm69.735-5.085c.015-.385.035-.771.062-1.156-.032-.036-.06-.075-.088-.114C74.7,91.609,74.7,92.032,74.712,92.453ZM72.3,91.506c.183.161.355.323.531.485l.108-1.366q-.494-1.19-1.04-2.359Zm-2.009-1.688c.047.036.088.073.133.107q.182-1.952.362-3.9-.546-1.04-1.132-2.059C69.863,86.129,70.078,88.255,70.289,89.819Zm4.333-1.695a2.43,2.43,0,0,1,.635-.624c.009-.046.017-.093.027-.138l-.756-2.736Q74.583,86.382,74.622,88.124Zm7.3-9.724A86.9,86.9,0,0,0,77.1,87.224a2.205,2.205,0,0,1,.653.311,30.692,30.692,0,0,1,5.618-10.189ZM67.884,86.783c.159-1.051.317-2.986.475-4.935q-.748-1.173-1.55-2.306A27.129,27.129,0,0,1,67.884,86.783ZM19.7,83.92c.285.006.569.015.86.028-.272-.06-.553-.114-.833-.168C19.713,83.827,19.7,83.872,19.7,83.92Zm44.942-1.91a5.759,5.759,0,0,0,.652-4.508Q63.6,75.336,61.7,73.337A30.016,30.016,0,0,1,64.637,82.01Zm-38.171-.394c-.183-.043-.369-.084-.551-.127a18.5,18.5,0,0,1-5.617-.657c-.054.235-.1.468-.151.7h.629C22.788,81.533,24.721,81.561,26.466,81.616ZM15.993,81.6c1.317-.035,2.631-.054,3.923-.061.03-.254.064-.511.1-.769-1.094-.252-2.19-.513-3.287-.693C16.481,80.587,16.234,81.1,15.993,81.6Zm58.264-3.5q.817,1.643,1.638,3.284-.878-2.629-1.756-5.259C74.181,76.777,74.22,77.433,74.257,78.092Zm-44.725,2.3c.03.008.062.013.094.022-.028-.011-.055-.02-.083-.028Zm32.11,0a15.7,15.7,0,0,0-1.186-8.316,56.117,56.117,0,0,0-4.7-4.162C58.6,72.172,60.771,76.355,61.641,80.387Zm-44.854-.426.706,0c-.224-.028-.446-.056-.669-.08ZM30.9,79.679c.022.01.046.022.069.035-.017-.013-.036-.028-.054-.043Zm27.89-.13q-1.74-5.99-3.479-11.98a54.361,54.361,0,0,0-5.6-3.817c-4.771-2.82-10.437-4.963-15.789-3.531-4.336,1.161-7.194,4.545-9.278,8.5a55.173,55.173,0,0,1,5.442,2.906q-1.722-1.714-3.447-3.428a35.807,35.807,0,0,1,9.085,6.5q-2.757-3.055-5.519-6.107a35.219,35.219,0,0,1,5.863,4.491,42.39,42.39,0,0,0-7.446-7.251,29.018,29.018,0,0,1,7.659,5.337q-1.565-2.677-3.132-5.353,2.236,2.629,4.469,5.259c-1.952-2.777-4.014-5.365-6.21-8.181,2.935,2.945,5.858,6.114,8.762,9.636l-1.737-2.95,4.116,4.73a56.773,56.773,0,0,0-8.241-11.89,49.072,49.072,0,0,1,8.09,8.017L41.2,67.151q1.867,2.858,3.735,5.718a25.361,25.361,0,0,0-4.951-8.791,42.255,42.255,0,0,1,7.147,9.065,23.215,23.215,0,0,0-1.615-5.716,18.043,18.043,0,0,1,2.347,3.749A43.9,43.9,0,0,0,43.181,62.2a48.46,48.46,0,0,1,5.461,6.327q-1.33-3.178-2.663-6.351a69.186,69.186,0,0,1,9.526,16.354A28.379,28.379,0,0,0,51.921,66.8,41.975,41.975,0,0,1,58.793,79.549ZM10,79.1q1.463-.136,2.935-.2a21.722,21.722,0,0,1,.771-2.528c-.466-.075-.93-.157-1.4-.224C11.44,77.231,10.656,78.244,10,79.1Zm7.331-.245q1.312.032,2.621.122l-2.42-.527C17.466,78.578,17.4,78.715,17.33,78.85Zm6.712-8.928c-.274.572-.536,1.157-.789,1.744A33.433,33.433,0,0,1,34.942,78.4c.285.176.579.343.861.524a67.89,67.89,0,0,0-11.461-9.611C24.24,69.518,24.139,69.718,24.042,69.922ZM13.033,78.886c1.141-.049,2.286-.07,3.429-.055.058-.194.112-.388.17-.582L14.2,77.72c.863-.018,1.726,0,2.59.023.077-.256.155-.514.235-.772q-1.305-.269-2.609-.49Q13.675,77.655,13.033,78.886Zm26.109-.5c-.017-.038-.036-.077-.054-.119-.03,0-.064-.006-.094-.008C39.041,78.3,39.092,78.341,39.142,78.384ZM21,78.066c.508.061,1.018.13,1.523.2-.49-.129-.984-.254-1.475-.377C21.037,77.952,21.019,78.008,21,78.066Zm-3.145-.28c.865.048,1.726.121,2.587.213.015-.082.027-.163.041-.245-.781-.192-1.563-.37-2.344-.54C18.049,77.405,17.954,77.595,17.86,77.786Zm3.653-1.416A37.347,37.347,0,0,1,26.6,77.808a34.791,34.791,0,0,0-4.717-2.564C21.752,75.616,21.631,75.993,21.513,76.37Zm48.6.172a40.728,40.728,0,0,0,.853-4.816l-.144-.521.166.337c.148-1.251.257-2.552.327-3.876q-.6-1.791-1.2-3.582A53.25,53.25,0,0,1,70.112,76.542ZM18.8,75.907c.668.088,1.337.191,2,.317.091-.438.186-.879.289-1.323-.493-.2-.99-.4-1.492-.585ZM14.981,75.6q1.217.036,2.428.153c.414-1.263.863-2.53,1.374-3.778-.233-.12-.461-.243-.7-.361A34.581,34.581,0,0,0,14.981,75.6Zm-2.241,0c.424-.013.85-.022,1.274-.019a22.765,22.765,0,0,1,2.275-4.172C15.061,72.764,13.845,74.221,12.74,75.6Zm9.343-.927c.833.163,1.664.348,2.482.57-.717-.443-1.45-.882-2.209-1.317C22.264,74.171,22.171,74.421,22.083,74.672Zm51.562-4.422q1.088,2.47,2.174,4.937-1.182-3.091-2.3-6.17C73.563,69.424,73.6,69.839,73.645,70.249ZM22.888,72.563q2.9,1.056,5.6,2.336a32.607,32.607,0,0,0-5.255-3.19C23.116,71.99,23,72.278,22.888,72.563Zm-3.272,1.709c.523.065,1.046.138,1.565.224.086-.364.166-.726.258-1.092-.359-.2-.719-.4-1.087-.6Q19.985,73.539,19.616,74.273ZM80.1,73.551c.416-.822.82-1.662,1.205-2.532A21.994,21.994,0,0,0,80.1,73.551Zm5.526-.758,3.36-3.623q-.446,1.389-.89,2.782L91.747,65.7c-.753.626-1.5,1.253-2.217,1.873-.043.052-.084.1-.129.151.032-.039.064-.08.094-.12-.852.736-1.664,1.466-2.411,2.185q-.731,1.046-1.463,2.09c1.367-1.455,2.692-2.887,3.779-4.155C88.122,69.351,86.857,71.048,85.63,72.794Zm-64.8-.949c.315.1.625.213.937.32.338-1.259.706-2.534,1.128-3.831-.082-.056-.167-.112-.254-.169C22.061,69.369,21.453,70.6,20.832,71.845Zm-2.3-.709c.18.05.353.11.531.164.186-.435.377-.868.579-1.3C19.266,70.37,18.9,70.751,18.536,71.136Zm61.3-1.5q1.693-1.714,3.387-3.434c.119-.323.238-.644.353-.971C82.447,66.682,81.212,68.149,79.838,69.634Zm12.321-4.275q-.142,1.925-.288,3.852c.327-1.047.65-2.679.977-4.422ZM22.778,67.89c.078.035.157.067.237.1.238-.722.485-1.447.749-2.178C23.448,66.493,23.116,67.186,22.778,67.89Zm71.106-3.959c-.064,1.058-.128,1.985-.193,2.532.163-1.012.343-1.946.537-2.821C94.116,63.739,94,63.834,93.885,63.931Zm2.435-2.058a16.707,16.707,0,0,0-.061,4.109,35.221,35.221,0,0,1,1.7-5.566Q97.172,61.139,96.32,61.873Zm-7.037,3.079,3.987-2.443c.088-.482.178-.956.267-1.415Zm-7.571-1.339a20.985,20.985,0,0,0,3.244-2.57c.138-.441.269-.883.405-1.326C84.217,61.016,83.009,62.316,81.711,63.612ZM94.079,60.6c-.028.471-.057.964-.084,1.462l.747-.459c.235-.83.487-1.591.756-2.291Zm3.156-2.862a26.683,26.683,0,0,0-.693,2.76l1.849-1.132a32.316,32.316,0,0,1,2.924-5.326ZM82.36,59.7Q84.432,57.752,86.5,55.8q.226-.8.45-1.595Zm6.971-4.885c-.05.519-.1.948-.157,1.25a.369.369,0,0,1,.035-.047,13.859,13.859,0,0,0,.469-1.675C89.561,54.5,89.446,54.657,89.33,54.814ZM84.754,54.1l2.99-2.732c.107-.4.218-.79.327-1.184Q86.411,52.142,84.754,54.1Zm4.837-3.04c-.041.68-.079,1.342-.12,1.954l.592-.555c.148-.782.3-1.625.444-2.5Zm-6,1.4c1.479-1.354,3.311-3.061,5.184-4.809q.2-.726.409-1.441C87.277,48.506,85.33,50.672,83.595,52.459Zm8.659-1.845c-.015.094-.028.2-.045.282.041-.121.08-.263.12-.4C92.3,50.536,92.279,50.575,92.253,50.614Zm.123-2.885a23.517,23.517,0,0,1-.088,2.642l.112-.107c.271-.956.54-2.183.814-3.531C92.933,47.064,92.656,47.395,92.376,47.729Zm-2.629.478c-.026.463-.052.932-.077,1.4l1.059-.966c.109-.663.219-1.331.332-1.985Zm2.583-3.048c.014.665.03,1.337.041,1.983l.927-.848c.188-.947.372-1.939.56-2.939Q93.094,44.255,92.331,45.158Zm-2.4.151c-.032.425-.061.876-.091,1.35.488-.454.976-.908,1.455-1.356.138-.79.275-1.544.413-2.23Q90.836,44.2,89.929,45.309ZM92.3,42.3c-.008.635,0,1.33.012,2.052.567-.528,1.118-1.04,1.646-1.528.247-1.329.495-2.646.745-3.843C93.956,40.067,93.149,41.182,92.3,42.3ZM61.288,209.253Zm-5.116-3.013Zm-5.825-1.084Zm42.742-22.88Zm38.623-33.669Zm4.071-1.468Zm-9.109-12.816Zm-76.213-.065Zm-3.778-3.709Zm95.711-.439Zm19.564-2Zm-2.777-4.138Zm.125-15.035Zm10.075-4.743ZM125.422,93.659Zm2.738-5.811Zm4.414-1.324Zm6.716-15.993Zm1.8-3.431ZM21.528,52.026c.177.065.354.13.529.2Z" transform="translate(153.414 127.75)" stroke="rgba(0,0,0,0)" stroke-miterlimit="10" stroke-width="1"/>
      <g id="cross" transform="translate(64.882 27.569)" style="mix-blend-mode: soft-light;isolation: isolate">
        <line id="Line_1" data-name="Line 1" y1="415.902" transform="translate(180.091)" fill="none" stroke="rgba(1,255,195,0.66)" stroke-width="1"/>
        <line id="Line_2" data-name="Line 2" y1="415.902" transform="translate(360.182 103.976) rotate(60)" fill="none" stroke="rgba(1,255,195,0.66)" stroke-width="1"/>
        <line id="Line_3" data-name="Line 3" y1="415.902" transform="translate(360.182 311.927) rotate(120)" fill="none" stroke="rgba(1,255,195,0.66)" stroke-width="1"/>
      </g>
    </g>
    <g id="graphql" transform="translate(280 855.317)">
      <path id="Union_4" data-name="Union 4" d="M30.235,77.391a7.607,7.607,0,0,1,.306-2.14L13.076,65.169A7.577,7.577,0,1,1,5.8,52.58V32.395a7.578,7.578,0,1,1,7.27-12.578L30.549,9.734a7.483,7.483,0,0,1-.313-2.161A7.573,7.573,0,1,1,45.066,9.737L62.54,19.829a7.575,7.575,0,1,1,9.29,11.763,7.624,7.624,0,0,1-2.014.8V52.58a7.639,7.639,0,0,1,1.992.8,7.547,7.547,0,0,1,2.776,10.35h0A7.594,7.594,0,0,1,64.238,66.5a7.494,7.494,0,0,1-1.871-1.522L45,75.007a7.574,7.574,0,1,1-14.763,2.383Zm13.173-5.1,17.4-10.047c-.053-.165-.1-.332-.142-.5H14.948c-.024.1-.051.2-.08.3L32.353,72.139a7.568,7.568,0,0,1,11.056.154ZM60.662,58.144A7.539,7.539,0,0,1,62.8,54.452L39.923,14.843a7.518,7.518,0,0,1-2.112.3v0a7.542,7.542,0,0,1-2.114-.3L12.825,54.456a7.535,7.535,0,0,1,2.131,3.688ZM9.7,52.669,32.578,13.054c-.043-.043-.086-.083-.127-.125s-.057-.056-.086-.086l-17.512,10.1a7.571,7.571,0,0,1-.715,5.865v0a7.573,7.573,0,0,1-4.731,3.56V52.588C9.507,52.613,9.606,52.639,9.7,52.669Zm56.215,0c.1-.03.2-.056.292-.078V32.376a7.558,7.558,0,0,1-5.447-9.421L43.246,12.842c-.026.028-.054.056-.081.083s-.083.082-.124.122Z" transform="translate(0)" fill="#e10098"/>
    </g>
    <g id="vue" transform="translate(279.085 549.918)">
      <g id="Group_24" data-name="Group 24" transform="translate(0 0)">
        <path id="Path_50" data-name="Path 50" d="M-114.56,0l-8.732,15.124L-132.024,0H-161.1l37.809,65.488L-85.483,0Z" transform="translate(161.101)" fill="#41b883"/>
      </g>
      <g id="Group_25" data-name="Group 25" transform="translate(15.15 0)">
        <path id="Path_51" data-name="Path 51" d="M-77.678,0l-8.636,14.958L-94.95,0h-13.8l22.436,38.861L-63.878,0Z" transform="translate(108.751)" fill="#34495e"/>
      </g>
    </g>
    <g id="react" transform="translate(442.98 466.999)">
      <g id="react-2" data-name="react" transform="translate(0 0)">
        <g id="Group" transform="translate(0 0)">
          <path id="Union_3" data-name="Union 3" d="M19,66.48c-4.348-2.5-5.334-10.3-3.113-20.1C6.273,43.436,0,38.689,0,33.68S6.241,23.953,15.83,21C13.594,11.222,14.565,3.438,18.9.942A6.863,6.863,0,0,1,22.38.078V.062c4.239,0,9.787,2.989,15.4,8.2C43.389,3.021,48.937,0,53.176,0V.015a6.734,6.734,0,0,1,3.437.865c4.347,2.5,5.333,10.3,3.114,20.1,9.619,2.944,15.892,7.692,15.892,12.7,0,4.993-6.242,9.741-15.8,12.685,2.235,9.773,1.265,17.556-3.067,20.054a6.886,6.886,0,0,1-3.483.862c-4.238,0-9.787-2.99-15.4-8.2-5.611,5.242-11.16,8.26-15.4,8.26A6.779,6.779,0,0,1,19,66.48Zm-.6-14.643C17.7,57.725,18.6,62.3,20.7,63.5a3.7,3.7,0,0,0,1.742.416c3.206,0,7.922-2.558,12.947-7.229a75.128,75.128,0,0,1-6.412-7.706,74.584,74.584,0,0,1-9.787-1.68C18.85,48.862,18.573,50.387,18.4,51.836Zm28.253-2.865a73.247,73.247,0,0,1-6.365,7.69c5.025,4.64,9.756,7.182,12.947,7.182a3.426,3.426,0,0,0,1.772-.4c2.081-1.218,2.974-5.794,2.25-11.682a43.016,43.016,0,0,0-.8-4.486A72.148,72.148,0,0,1,46.656,48.971ZM37.84,54.257a60.645,60.645,0,0,0,4.239-4.932c-1.4.075-2.837.1-4.285.1s-2.851-.043-4.238-.1A63.608,63.608,0,0,0,37.84,54.257Zm-7-32.57c-1.279,1.834-2.513,3.806-3.716,5.888-1.155,2.019-2.235,4.085-3.19,6.151.97,2.064,2.035,4.114,3.206,6.133,1.2,2.065,2.451,4.024,3.73,5.858,2.282.185,4.608.293,6.936.293,2.344,0,4.67-.109,6.967-.308,1.279-1.835,2.512-3.808,3.716-5.889,1.155-2.02,2.22-4.086,3.19-6.15q-1.456-3.1-3.206-6.136-1.805-3.1-3.73-5.856c-2.282-.185-4.608-.292-6.937-.292C35.465,21.38,33.139,21.488,30.842,21.688ZM51.466,41.525c-.71,1.248-1.465,2.466-2.221,3.654,2.2-.324,4.332-.738,6.351-1.232-.586-2-1.3-4.07-2.127-6.136C52.837,39.043,52.175,40.292,51.466,41.525ZM20.052,43.961c2.019.492,4.131.893,6.32,1.217q-1.134-1.759-2.22-3.607c-.725-1.233-1.387-2.466-2.019-3.7C21.333,39.922,20.623,41.972,20.052,43.961ZM12.408,25.879c-5.457,2.313-8.987,5.38-8.987,7.8s3.53,5.473,8.987,7.8c1.341.571,2.79,1.1,4.315,1.571a73.284,73.284,0,0,1,3.422-9.34,74.177,74.177,0,0,1-3.468-9.387C15.181,24.8,13.733,25.31,12.408,25.879Zm43.05,7.77a74.126,74.126,0,0,1,3.468,9.386c1.5-.479,2.943-.986,4.268-1.557,5.457-2.313,8.987-5.379,9-7.8,0-2.42-3.53-5.472-8.987-7.8-1.356-.569-2.8-1.093-4.331-1.571A73.258,73.258,0,0,1,55.458,33.649ZM20.006,23.4c.586,2,1.295,4.07,2.127,6.135.633-1.232,1.294-2.466,2-3.7.709-1.249,1.465-2.466,2.22-3.654C24.153,22.5,22.025,22.922,20.006,23.4Zm31.444,2.39c.725,1.234,1.387,2.467,2.019,3.7.8-2.051,1.51-4.1,2.081-6.089-2.019-.493-4.131-.893-6.32-1.218C49.986,23.353,50.74,24.554,51.45,25.787ZM22.38,3.515a3.426,3.426,0,0,0-1.773.4c-2.081,1.216-2.974,5.8-2.251,11.682.185,1.434.448,2.929.8,4.47a72.054,72.054,0,0,1,9.8-1.694,72.919,72.919,0,0,1,6.365-7.692C30.3,6.043,25.57,3.5,22.38,3.5Zm17.849,7.152a75.462,75.462,0,0,1,6.412,7.708,74.582,74.582,0,0,1,9.787,1.68c.34-1.558.617-3.084.787-4.533.708-5.887-.2-10.466-2.3-11.668a3.575,3.575,0,0,0-1.758-.4V3.438C49.955,3.445,45.246,6,40.229,10.666Zm1.818,7.369A63.482,63.482,0,0,0,37.763,13.1a60.159,60.159,0,0,0-4.238,4.932c1.4-.078,2.835-.108,4.284-.108S40.66,17.974,42.047,18.035ZM31.9,33.32a6.144,6.144,0,1,1,6.144,6.144A6.145,6.145,0,0,1,31.9,33.32Z" transform="translate(0)" fill="#61dafb"/>
        </g>
      </g>
    </g>
    <g id="redux" transform="translate(606.382 543.305)">
      <path id="Union_2" data-name="Union 2" d="M42.87,69.021c1.347-.966,3.272-2.508,4.33-3.475a24.554,24.554,0,0,0,9.43,2.027,14.124,14.124,0,0,0,13.184-7.913A13.421,13.421,0,0,0,70,48.266,25.826,25.826,0,0,0,59.8,35.911a36.583,36.583,0,0,0-20.5-6.275H37.577a5.421,5.421,0,0,1-4.714,3.282h-.193a5.408,5.408,0,0,1-.193-10.811h.193A5.285,5.285,0,0,1,37.384,25h1.539c12.317,0,23.095,4.731,30.409,13.322,7.216,8.2,7.409,17.858,4.618,23.458-2.6,5.116-9.43,10.232-18.668,10.232A29.63,29.63,0,0,1,42.87,69.021ZM2.934,63.808C-1.3,57.342-2.742,43.633,11.21,33.5c.288,1.545.866,3.668,1.251,4.923a22.72,22.72,0,0,0-6.543,7.723,14.219,14.219,0,0,0,.769,14.963C8.8,64.29,12.172,66.22,16.5,66.8a25.933,25.933,0,0,0,15.685-2.992c7.506-3.957,12.511-8.688,15.781-15.156a5.548,5.548,0,0,1-1.539-3.57,5.4,5.4,0,0,1,5.2-5.6h.191A5.424,5.424,0,0,1,52.4,50.294,36.94,36.94,0,0,1,25.451,70.951a23.533,23.533,0,0,1-5.773.676C12.557,71.627,6.11,68.636,2.934,63.808Zm22.9-6.661a5.412,5.412,0,0,1-5.389-5.211,4.341,4.341,0,0,1,.674-2.8c-5.389-9.362-8.276-21.238-3.849-33.593C20.448,6.275,28.435,0,37.1,0c9.238,0,18.861,8.109,20.015,23.747-1.443-.483-3.56-1.158-4.812-1.448-.287-5.116-4.618-17.857-14.818-17.665-3.657.1-9.045,1.834-11.836,5.406A25.932,25.932,0,0,0,19.967,25a35.462,35.462,0,0,0,5,21.43,1.625,1.625,0,0,1,.674-.1h.193a5.408,5.408,0,0,1,.191,10.812Z" transform="translate(0 0)" fill="#764abc"/>
    </g>
    <g id="css3" transform="translate(610.382 864.312)">
      <path id="path11" d="M153.893,72.349,147.8,4.08h66.87l-6.093,68.246-27.387,7.6Zm0,0" transform="translate(-147.8 -4.08)" fill="#1572b6" fill-rule="evenodd"/>
      <path id="path13" d="M296.5,93.365l22.125-6.138L323.842,28.9H296.5Zm0,0" transform="translate(-263.065 -23.319)" fill="#33a9dc" fill-rule="evenodd"/>
      <g id="Group-2" data-name="Group" transform="translate(12.489 13.366)">
        <path id="path16" d="M93.8,17.073h11.085L105.65,8.5H93.8V.125h21l-.2,2.247L112.53,25.437H93.8Zm0,0" transform="translate(-72.854 -0.125)" fill="#fff" fill-rule="evenodd"/>
        <path id="path18" d="M30.713,140.574l-.036.022-9.325-2.518-.6-6.678h-8.4l1.174,13.131L30.675,149.3l.038-.022Zm0,0" transform="translate(-9.718 -101.883)" fill="#ebebeb" fill-rule="evenodd"/>
        <path id="path20" d="M104.235,111.2l-1.012,11.2-9.334,2.518v8.724l17.158-4.767.135-1.417,1.462-16.257Zm0,0" transform="translate(-72.924 -86.225)" fill="#fff" fill-rule="evenodd"/>
        <path id="path22" d="M21.62.125V8.5H1.395L1.227,6.618.845,2.375.645.127H21.62Zm0,0" transform="translate(-0.645 -0.125)" fill="#ebebeb" fill-rule="evenodd"/>
        <path id="path24" d="M59.476,75.5v8.364H50.269L50.1,82l-.38-4.252-.2-2.246Zm0,0" transform="translate(-38.53 -58.552)" fill="#ebebeb" fill-rule="evenodd"/>
      </g>
    </g>
    <g id="rest" transform="translate(442.979 943.717)">
      <path id="Path_52" data-name="Path 52" d="M120.905,55.074,117.294,48.2a13.666,13.666,0,0,0-1.037-1.705,5.328,5.328,0,0,0-1.036-1.1,3.434,3.434,0,0,0-1.145-.585,4.934,4.934,0,0,0-1.363-.176h-2.641V55.074h-2.223V31.1h6.9a8.585,8.585,0,0,1,2.616.4,6.955,6.955,0,0,1,2.249,1.187,5.809,5.809,0,0,1,1.58,1.973,6.09,6.09,0,0,1,.594,2.758,6.869,6.869,0,0,1-.385,2.34,6.007,6.007,0,0,1-1.1,1.9,6.486,6.486,0,0,1-1.722,1.4,8.168,8.168,0,0,1-2.282.861v.067a3.729,3.729,0,0,1,.886.518,5.332,5.332,0,0,1,.778.769,9.759,9.759,0,0,1,.744,1.036q.368.585.769,1.338l4.029,7.423h-2.607ZM110.071,33.14v9.479h3.979a6.635,6.635,0,0,0,2.206-.351,4.885,4.885,0,0,0,1.714-1,4.506,4.506,0,0,0,1.1-1.572,5.239,5.239,0,0,0,.393-2.073,4.17,4.17,0,0,0-1.346-3.285,5.675,5.675,0,0,0-3.887-1.2h-4.163Z" transform="translate(-87.032 -23.156)" fill="#f9c80e"/>
      <path id="Path_53" data-name="Path 53" d="M159.9,55.074V31.1h11.687v2.04h-9.463v8.794h8.761V43.94h-8.761v9.112h10v2.023Z" transform="translate(-119.338 -23.156)" fill="#f9c80e"/>
      <path id="Path_54" data-name="Path 54" d="M107.848,145.317a8.38,8.38,0,0,0,1.329.811,10.649,10.649,0,0,0,3.018.969,9.041,9.041,0,0,0,1.471.125,6.59,6.59,0,0,0,4.079-1.053,3.606,3.606,0,0,0,1.353-3.026,4.043,4.043,0,0,0-.317-1.663,4.112,4.112,0,0,0-.987-1.329,10.227,10.227,0,0,0-1.688-1.229q-1.019-.61-2.407-1.38-1.539-.836-2.633-1.58a9.681,9.681,0,0,1-1.789-1.521,5.144,5.144,0,0,1-1.02-1.68,6.045,6.045,0,0,1-.326-2.057,5.425,5.425,0,0,1,.619-2.608,6.085,6.085,0,0,1,1.671-1.965,7.743,7.743,0,0,1,2.466-1.245,10.215,10.215,0,0,1,3.018-.434,12.461,12.461,0,0,1,4.731.785v2.458a9.824,9.824,0,0,0-4.982-1.22,7.593,7.593,0,0,0-2.015.259,5.245,5.245,0,0,0-1.655.76,3.7,3.7,0,0,0-1.12,1.246,3.524,3.524,0,0,0-.41,1.73,4.251,4.251,0,0,0,.277,1.614,3.835,3.835,0,0,0,.886,1.279,8.394,8.394,0,0,0,1.6,1.195q.995.595,2.432,1.363a28.8,28.8,0,0,1,2.625,1.564,10.194,10.194,0,0,1,1.864,1.588,5.867,5.867,0,0,1,1.112,1.756,5.553,5.553,0,0,1,.368,2.064,6.23,6.23,0,0,1-.585,2.768,5.39,5.39,0,0,1-1.639,1.981,7.457,7.457,0,0,1-2.508,1.187,11.943,11.943,0,0,1-4.547.31q-.786-.092-1.589-.268a14.931,14.931,0,0,1-1.529-.418,5.407,5.407,0,0,1-1.179-.527v-2.607Z" transform="translate(-87.032 -81.097)" fill="#f9c80e"/>
      <path id="Path_55" data-name="Path 55" d="M159.861,127.55v21.934h-2.224V127.55h-6.9v-2.04h16.05v2.04Z" transform="translate(-113.65 -81.753)" fill="#f9c80e"/>
      <g id="Group_26" data-name="Group 26" transform="translate(58.76 0)">
        <path id="Path_56" data-name="Path 56" d="M223.846,49.9q-5.677.73-5.677,10.14v12.8q0,6.575-2.582,9.668t-7.71,3.265V81.267a6.5,6.5,0,0,0,2.6-.559,4.35,4.35,0,0,0,1.813-1.611,8.136,8.136,0,0,0,1.062-2.9,24.11,24.11,0,0,0,.348-4.468V59.613q0-9.54,5.42-11.558v-.172q-5.42-2.019-5.42-11.257V24.036a21.182,21.182,0,0,0-.366-4.275,8.332,8.332,0,0,0-1.081-2.836,4.354,4.354,0,0,0-1.813-1.611,6.955,6.955,0,0,0-2.564-.6V10.158q5.128.172,7.709,3.266t2.582,9.753V36.2q0,9.195,5.677,9.839V49.9Z" transform="translate(-207.877 -10.158)" fill="#f9c80e"/>
      </g>
      <path id="Path_57" data-name="Path 57" d="M68.978,86.111q-5.127-.172-7.709-3.264t-2.582-9.668v-12.8a14.839,14.839,0,0,0-1.447-7.261,5.45,5.45,0,0,0-4.267-2.879V46.368q5.713-.731,5.713-9.839V23.51q0-6.617,2.582-9.732t7.709-3.287v4.555A5.326,5.326,0,0,0,64.51,17.43q-1.355,2.17-1.355,6.939V36.958q0,9.324-5.42,11.257v.172q5.42,1.977,5.42,11.558V72.062a26.4,26.4,0,0,0,.293,4.253,8.327,8.327,0,0,0,.989,2.922,4.563,4.563,0,0,0,1.795,1.74,6.19,6.19,0,0,0,2.747.623v4.511Z" transform="translate(-52.973 -10.365)" fill="#f9c80e"/>
      <g id="Group_27" data-name="Group 27" transform="translate(29.454 36.478)">
        <path id="Path_58" data-name="Path 58" d="M131.9,108.9a1.276,1.276,0,0,1-1.281-1.281,1.264,1.264,0,0,1,.367-.921,1.23,1.23,0,0,1,.915-.374,1.255,1.255,0,0,1,.5.1,1.342,1.342,0,0,1,.407.267,1.278,1.278,0,0,1,.28.407,1.263,1.263,0,0,1,.107.52,1.2,1.2,0,0,1-.107.5,1.383,1.383,0,0,1-.28.407,1.282,1.282,0,0,1-.407.274A1.257,1.257,0,0,1,131.9,108.9Z" transform="translate(-130.619 -106.322)" fill="#f9c80e"/>
        <path id="Path_59" data-name="Path 59" d="M147.7,108.9a1.276,1.276,0,0,1-1.282-1.281,1.262,1.262,0,0,1,.368-.921,1.229,1.229,0,0,1,.914-.374,1.255,1.255,0,0,1,.5.1,1.353,1.353,0,0,1,.407.267,1.289,1.289,0,0,1,.387.927,1.2,1.2,0,0,1-.107.5,1.389,1.389,0,0,1-.28.407,1.288,1.288,0,0,1-.407.274A1.255,1.255,0,0,1,147.7,108.9Z" transform="translate(-140.425 -106.322)" fill="#f9c80e"/>
        <path id="Path_60" data-name="Path 60" d="M163.5,108.9a1.276,1.276,0,0,1-1.281-1.281,1.263,1.263,0,0,1,.367-.921,1.23,1.23,0,0,1,.914-.374,1.256,1.256,0,0,1,.5.1,1.35,1.35,0,0,1,.407.267,1.287,1.287,0,0,1,.387.927,1.2,1.2,0,0,1-.107.5,1.382,1.382,0,0,1-.28.407,1.286,1.286,0,0,1-.407.274A1.257,1.257,0,0,1,163.5,108.9Z" transform="translate(-150.232 -106.322)" fill="#f9c80e"/>
      </g>
    </g>
  </g>
</svg>
