<svg xmlns="http://www.w3.org/2000/svg" xmlns:xlink="http://www.w3.org/1999/xlink" width="487.428" height="557.015" viewBox="0 0 487.428 557.015">
  <defs>
    <radialGradient id="radial-gradient" cx="0.436" cy="0.546" r="0.535" gradientTransform="matrix(0, -1, 1.222, 0, -0.231, 0.982)" gradientUnits="objectBoundingBox">
      <stop offset="0" stop-color="#f9c80e"/>
      <stop offset="1" stop-color="#f6019d"/>
    </radialGradient>
    <filter id="Path_13" x="118.066" y="100.016" width="290.641" height="337.508" filterUnits="userSpaceOnUse">
      <feOffset input="SourceAlpha"/>
      <feGaussianBlur stdDeviation="1.5" result="blur"/>
      <feFlood flood-color="#0d0221"/>
      <feComposite operator="in" in2="blur"/>
      <feComposite in="SourceGraphic"/>
    </filter>
    <radialGradient id="radial-gradient-2" cx="0.5" cy="0.5" r="1.759" gradientTransform="translate(0.358 0.358) scale(0.284 0.284)" gradientUnits="objectBoundingBox">
      <stop offset="0"/>
      <stop offset="1" stop-opacity="0"/>
    </radialGradient>
    <radialGradient id="radial-gradient-3" cx="0.352" cy="0.494" r="1.241" gradientTransform="translate(0.075 0.133) scale(0.818 0.731)" gradientUnits="objectBoundingBox">
      <stop offset="0" stop-color="#857c63"/>
      <stop offset="1" stop-color="#221f19"/>
    </radialGradient>
    <linearGradient id="linear-gradient" x1="1.156" y1="0.188" x2="0.381" y2="0.648" gradientTransform="matrix(1, 0, 0, 1, 0, 0)" xlink:href="#radial-gradient-2"/>
    <radialGradient id="radial-gradient-4" cx="0.5" cy="0.148" r="0.728" gradientUnits="objectBoundingBox">
      <stop offset="0" stop-color="#fff"/>
      <stop offset="1" stop-color="#b9b9b0"/>
    </radialGradient>
    <radialGradient id="radial-gradient-5" cx="0.491" cy="0.281" r="0.365" gradientTransform="matrix(1.401, 0.101, -0.166, 1.161, -0.141, -0.104)" gradientUnits="objectBoundingBox">
      <stop offset="0" stop-color="#5b676b"/>
      <stop offset="1" stop-color="#141718"/>
    </radialGradient>
    <linearGradient id="linear-gradient-2" x1="2.796" y1="0.661" x2="2.367" y2="0.311" gradientUnits="objectBoundingBox">
      <stop offset="0" stop-color="#6e3d09"/>
      <stop offset="0.242" stop-color="#ea8113"/>
      <stop offset="0.621" stop-color="#5c3307"/>
      <stop offset="1" stop-color="#e07c12"/>
    </linearGradient>
    <linearGradient id="linear-gradient-3" x1="4.116" y1="0.62" x2="4.423" y2="0.895" gradientUnits="objectBoundingBox">
      <stop offset="0" stop-color="#bdbdbd"/>
      <stop offset="0.333" stop-color="#e2e2e2"/>
      <stop offset="0.667" stop-color="#a3a3a3"/>
      <stop offset="1" stop-color="#ddd"/>
    </linearGradient>
    <radialGradient id="radial-gradient-7" cx="0.711" cy="0.224" r="0.924" gradientTransform="translate(1.077 0.011) scale(0.646 0.975)" gradientUnits="objectBoundingBox">
      <stop offset="0" stop-color="#696969"/>
      <stop offset="1" stop-color="#f6019d"/>
    </radialGradient>
    <linearGradient id="linear-gradient-4" x1="7.265" y1="-0.921" x2="6.496" y2="1.671" gradientUnits="objectBoundingBox">
      <stop offset="0" stop-color="#fff"/>
      <stop offset="1" stop-color="#fff" stop-opacity="0"/>
    </linearGradient>
    <linearGradient id="linear-gradient-5" x1="0.579" y1="0.609" x2="0.243" y2="0.75" gradientTransform="matrix(1, 0, 0, 1, 0, 0)" xlink:href="#radial-gradient-2"/>
  </defs>
  <g id="skills_backend2" transform="translate(-938.427 -562.866)">
    <g id="tool_skills" data-name="tool skills" transform="translate(938.427 604.868)">
      <g id="Group_15" data-name="Group 15" transform="translate(0 0)">
        <path id="Polygon_12" data-name="Polygon 12" d="M281.519,0l93.84,162.357-93.84,162.357H93.84L0,162.357,93.84,0Z" transform="translate(162.357 0) rotate(30)" fill="rgba(45,226,230,0.33)"/>
        <path id="Polygon_16" data-name="Polygon 16" d="M234.6,0l78.2,135.3L234.6,270.6H78.2L0,135.3,78.2,0Z" transform="translate(175.962 39.1) rotate(30)" fill="rgba(45,226,230,0.33)"/>
        <path id="Polygon_13" data-name="Polygon 13" d="M187.679,0l62.56,108.238-62.56,108.238H62.56L0,108.238,62.56,0Z" transform="translate(189.566 78.2) rotate(30)" fill="rgba(45,226,230,0.33)"/>
        <path id="Polygon_14" data-name="Polygon 14" d="M140.759,0l46.92,81.179-46.92,81.179H46.92L0,81.179,46.92,0Z" transform="translate(203.17 117.3) rotate(30)" fill="rgba(45,226,230,0.33)"/>
        <path id="Polygon_15" data-name="Polygon 15" d="M93.84,0l31.28,54.119L93.84,108.238H31.28L0,54.119,31.28,0Z" transform="translate(216.775 156.399) rotate(30)" fill="rgba(45,226,230,0.33)"/>
        <path id="Polygon_17" data-name="Polygon 17" d="M46.92,0,62.56,27.06,46.92,54.119H15.64L0,27.06,15.64,0Z" transform="translate(230.378 195.499) rotate(30)" fill="rgba(45,226,230,0.33)"/>
      </g>
      <g transform="matrix(1, 0, 0, 1, 0, -42)" filter="url(#Path_13)">
        <path id="Path_13-2" data-name="Path 13" d="M-2818.633,3278.573l74.6-8.933,46.13-92.668,61.987,66.649,98.927,11.629-78.664,93.229,26.293,63.853-67.45,6.386-41.093,86.763-34.3-98.507-60.175-3.086,15.685-58.377Z" transform="translate(2941.2 -3072.46)" fill="url(#radial-gradient)"/>
      </g>
      <path id="Intersection_9" data-name="Intersection 9" d="M71.336,165.741c.5-6.355,1.3-13.03,2.4-19.844C72,141.148,70.66,135.812,71.4,130.919c-2.157,7.093-2.756,14.712-4.025,22.182A42.314,42.314,0,0,1,68.8,137.129c-1.565,3.978-5.164,11.259-6.73,15.236.429-6.891,4.49-16.981,7.91-22.98a39.057,39.057,0,0,0-7.658,12.8,43.656,43.656,0,0,1,8.633-17.965,29,29,0,0,0-8.67,11.963C64.538,130.1,68.118,123.2,72.7,118.609c-4.185,2.833-7.634,8.057-9.922,12.565,2.909-6.922,5.979-12.561,11.329-17.83-3.649,3.446-6.073,6.193-9.721,9.638,4.251-6.4,6.649-10.494,12.587-15.368-4.688,3.517-6.506,5.709-10.931,10.758,4.308-7.192,9.588-12.492,14.983-17.564-3.347,2.919-7.984,5.837-11.33,8.754,4.081-4.714,9.454-9.428,13.535-14.142q-4.557,3.779-9.114,7.561a90.789,90.789,0,0,1,18.5-18.547c.051-.134.1-.267.154-.4-.107-.017-.215-.039-.321-.052a58.237,58.237,0,0,0-20.5,18.726q1.067-3.261,2.132-6.523l-6.111,8.481,2.045-5.588-5.8,9.156q1.532-3.883,3.066-7.768A61.369,61.369,0,0,0,53.057,125.58q1.284-5.179,2.571-10.36l-8.7,13.951a65.879,65.879,0,0,1,18.538-29.4A90.7,90.7,0,0,1,79.641,89.3c.863-2.37,2.105-4.348,4.318-5.321a12.561,12.561,0,0,0-1.455.368c.212-.155.447-.31.694-.461-3.9.5-7.087,2.948-9.33,7.967.112-3.575.5-7.055,5.648-8.937-4.43.843-7.894,3.9-10.681,8.5a17.306,17.306,0,0,1,5.333-9.049,26.438,26.438,0,0,0-8.189,9.049,16.687,16.687,0,0,1,5.756-9.126,24.132,24.132,0,0,0-8.656,11.058c.535-3.9,1.61-7.6,4.289-10.726-3.711,2.955-6.454,7.547-8.507,13.315a19.568,19.568,0,0,1,5.046-12.678c-3.82,3.825-7.126,10.04-8.981,15.166a40.623,40.623,0,0,1,5.506-14.314c-3.988,4.616-7.178,11.617-8.842,16.241.052-4.96,4.484-13.212,7.264-16.528C54.566,87.661,48.84,96.218,46.517,101.4c1.083-4.809,4.5-12.7,9.367-17.082-5.907,3.611-11.319,11.064-13.637,15.587,1.475-4.107,2.58-11.08,9.64-14.784-4.054,1.034-9.181,6.977-12.653,11.84C43.048,86.8,53.08,81.1,62.465,80.911c1.668-.034,3.4-.064,5.164-.083,1.4-2.5,3.66-4.466,8.847-4.6-4.424-.216-8.846-.19-13.228,3.141a16.266,16.266,0,0,1,7.805-5.042,24.472,24.472,0,0,0-12.13,4.484,17.828,17.828,0,0,1,8.311-5.531c-4.1.1-10.026,3.477-13.5,5.654a50.5,50.5,0,0,1,4.914-4.214c-1.052.5-2.091,1.034-3.1,1.627a16.188,16.188,0,0,1,5.77-4.023A47.812,47.812,0,0,0,48.25,78.9c1.661-1.689,5-4.476,7.242-6.548A46.276,46.276,0,0,0,50.1,75.34q1.88-1.6,3.758-3.211a49.455,49.455,0,0,0-9.627,6.406,28.488,28.488,0,0,1,5.429-5.73l-3.836,1.547,3.442-2.531a43.192,43.192,0,0,0-10.747,6.45,24.554,24.554,0,0,1,7.946-7.232,28.911,28.911,0,0,0-7.625,3.847,35.156,35.156,0,0,1,3.78-3.825,23.72,23.72,0,0,0-10.466,7.044,30.223,30.223,0,0,1,9.131-8.662,26.655,26.655,0,0,0-8.105,4.318A20.184,20.184,0,0,1,35.865,70.7,30.6,30.6,0,0,0,26.9,78.13a22.437,22.437,0,0,1,10.165-9.411,32.224,32.224,0,0,0-8.15,4.248l.96-.94a33.126,33.126,0,0,0-7.1,6.176,47.654,47.654,0,0,1,7.3-8.531,31.974,31.974,0,0,0-6.473,5.47,16.585,16.585,0,0,1,1.894-3.177,49.153,49.153,0,0,0-6.874,6.2,31.415,31.415,0,0,1,6.319-7.577,43.2,43.2,0,0,0-8.387,6.527,19.384,19.384,0,0,1,1.726-2.542,75.588,75.588,0,0,0-6.516,5.347,38.794,38.794,0,0,1,9.829-9.409A61.6,61.6,0,0,0,7.229,81.752,34.7,34.7,0,0,1,18.26,70.778,74.4,74.4,0,0,0,4.071,82.554a56.075,56.075,0,0,1,9.014-10.412A89.384,89.384,0,0,0,.431,82.914c2.277-2.6,3.629-4.886,6.475-7.186L0,80.484c8.153-9.918,21.415-14.531,34.25-14.9S59.706,68.6,72.018,72.245c5.465,1.617,11.083,3.4,16.019,6.166a78.168,78.168,0,0,0-7.583-5.385,32.934,32.934,0,0,1,10.134,4.738,43.04,43.04,0,0,0-13.329-7.453,31.752,31.752,0,0,1,11.923,3.464c-.031-.054-.06-.107-.091-.16l-8.3-5.22a39.153,39.153,0,0,0-11.92-.548,20.777,20.777,0,0,1,10.569-1.456,30.357,30.357,0,0,0-13.815-.944,28.566,28.566,0,0,1,9.831-1.938l-11.367-.22,11.144-2.311L62.685,61.1A16.107,16.107,0,0,1,70.9,58.924a30.507,30.507,0,0,0-12.776,2.4,18.011,18.011,0,0,1,11.253-4.482A18.928,18.928,0,0,0,56.453,59.71,25.121,25.121,0,0,1,66.276,53.4a44.742,44.742,0,0,0-14.261,6.5l7.813-7.863-6.7,5.137a18.714,18.714,0,0,1,6.457-8.3A18.363,18.363,0,0,0,48.75,56.32a12.8,12.8,0,0,1,6.37-8.34,14.446,14.446,0,0,0-8.979,7.274,18.218,18.218,0,0,1,5.416-8.68,18.519,18.519,0,0,0-8.373,9.3A16.767,16.767,0,0,1,47.856,46.6a24.638,24.638,0,0,0-8.379,10.671,20.585,20.585,0,0,1,5.719-11.775A64.639,64.639,0,0,0,30.787,65.385a66.911,66.911,0,0,1,10.26-19.075c-2.634,2.666-7.761,7.824-10.4,10.49,1.883-3.083,6.259-8.659,8.143-11.742L30.8,54.237c1.768-3.552,3.128-5.066,4.9-8.618-4.755,2.684-3.65,8.4-9.994,10.251,3.327-2.568,4.759-6.772,7.15-9.6a26.825,26.825,0,0,1-10.883,7.421q5.108-4.612,10.215-9.227c-3.854,2.588-7.261,5.221-14.391,9.644a36.939,36.939,0,0,1,11.1-8.934,55.352,55.352,0,0,0-16.55,11.045,37.267,37.267,0,0,1,5.914-6.666L8.1,56.414C14.57,50.143,15.958,47.789,22,45.245c-4.858.625-6.911.923-13.908,4.686,5.762-5.207,14.051-7.6,21.5-7.135l-12.561-.807a36.794,36.794,0,0,1,15.088.429c-2.779-1.311-8.288-3.71-11.067-5.021A50.957,50.957,0,0,1,36,42.424c-1.661-2.6-4.95-5.857-8.2-6.833a28.216,28.216,0,0,1,12.777,7.258c-3-3.424-5.907-6.753-10.227-8.187,6.6,1.178,9.033,4.927,13.205,8.329L36.5,35.038c4.154,1.06,6.347,3.644,9.034,7.979-2.009-3.587-3.266-5.993-5.275-9.579a30.5,30.5,0,0,1,7.763,10.5L43.56,33.057,50.867,43.73c-.956-2.408-2.53-8.263-3.486-10.673,1.71,2.223,4.038,7.891,5.749,10.115-.314-1.907-2.027-6.6-2.342-8.511,1.288,1.393,4.98,6.585,6.267,7.979.031-1.318-2.73-5.429-2.7-6.746.864.992,3.515,4.588,4.379,5.58.293-.811-1.349-4.376-1.055-5.188.413,1.136,2.76,4.207,3.173,5.343.259-.722-.1-5.007.156-5.73.155,1.549,1.5,5.317,1.651,6.866L63.795,37.4l.929,6.71,1.859-6.71.465,6.245L69.37,37.4a36.219,36.219,0,0,0,1.317,5.9l-.158-5.31q.478,3.848.955,7.7c.069.195.135.384.209.587.354.972.771,1.91,1.213,2.832q.134-3.712.269-7.427l-1.341-1.275L83.8,47.228,71.884,34.263,83.3,43.132c-3.213-5.731-9.027-10.217-14.41-13.411,3.742,1.193,11.2,6.116,14.661,10.141-3.752-4.7-10.292-10.5-15.242-13.173,3.115.227,8.19,3.642,11.725,7.036L67.909,22.03l11.37,7.926L66.773,17.9l10.4,6.946L66.309,13.925l10.385,8.332C74.66,18.542,67.052,11.89,63.521,9.849c1.843.076,7.852,4.542,11.266,7.98-2.5-3.226-8.273-10.372-11.73-12.368,2.219.225,6.741,3.65,8.726,6.345C69.921,9.27,66.3,2.535,64.441,0a91.98,91.98,0,0,1,9.07,12.687c-.934-3.39-1.645-7.821-.118-9.406-.857,2.7.862,7.794,1.513,11.709l.075-10.148,1.18,10.985,1.4-9.592.225,11.007L79.265,7.32l-.246,12.8,2.1-11.618-1.044,13.68,3.213-11.306L81.847,24.364l4.387-13.07L83.784,27.452,88.967,14.34,84.773,31.513,91.394,19.14,85.7,34.195l9.851-10.856L87.186,36.714l7.477-9.576c-2.475,3.371-3.965,8.2-5.287,12.244a37.864,37.864,0,0,1,7.918-11.03L89.453,42.613l7.121-10.879c-.158-.341-.319-.67-.478-.976a3.132,3.132,0,0,1,.711.62l.022-.033-.017.039a9.037,9.037,0,0,1,1.529,2.795l.385-.594c-.238-.907-.487-1.811-.739-2.709Q99,33.493,100,36.111a12.6,12.6,0,0,0-3.132-8.759,11.448,11.448,0,0,1,4.85,5.162,14.452,14.452,0,0,0-1.442-4.551,20.742,20.742,0,0,1,2.443,5.379c.032.117.059.236.089.354.442-3.851-.918-5.6-3.979-8.114,2.176,1.61,6.173,2.159,5.987,5.927.044-.241.07-.465.1-.688a13.789,13.789,0,0,0-3.641-6.458,7.57,7.57,0,0,1,1.6.755,8.639,8.639,0,0,1-1.565-2.05c2.62,2.09,6.925,2.76,7.845,7.227,2.326-1.958,5.291-1.76,8.353-1.563a22.919,22.919,0,0,0,5.248-.063c-4.162,1.022-10.834-.477-13.405,4.735,3-2.354,7.369-3.078,11.551-3.7a29.779,29.779,0,0,0-11.115,5.819,66.776,66.776,0,0,1,7.889-3,29.321,29.321,0,0,0-6.184,2.912A29.438,29.438,0,0,1,119,33.555c.086-.165.171-.339.258-.5-.062.158-.123.325-.184.488.7-.094,1.416-.178,2.158-.26.824-1.949,1.648-3.721,2.425-5.147-.467,1.459-1,3.2-1.547,5.055l.206-.022-.218.062a104.527,104.527,0,0,0-3.007,12.586,77.217,77.217,0,0,1,9.289-20.545,39.159,39.159,0,0,0-2.985,8.995,27.38,27.38,0,0,1,3.759-6.235q-.9,2.42-1.619,4.9a36.92,36.92,0,0,1,6.58-9.739c-.752,1.758-1.393,3.5-2,5.243a21.308,21.308,0,0,1,2.195-2.932A38.847,38.847,0,0,0,132,31.525,42.058,42.058,0,0,1,141.235,21c-2.406,4.788-5.809,9.576-8.216,14.364a43.124,43.124,0,0,1,14.359-15.181,42.25,42.25,0,0,0-10.258,13.933,36,36,0,0,1,17.9-14.263c-5.463,3.785-10.855,8.274-14.857,13.581,5.272-6.517,13.006-9.877,20.354-11.337a97.033,97.033,0,0,0-9.539,5.068,19.1,19.1,0,0,1,3.633-1.44,28.35,28.35,0,0,0-3.658,3.31,69.946,69.946,0,0,1,13.825-5.506c-5.273,2.417-10.407,4.994-14.369,8.927,5.469-2.633,11.107-4.439,17.19-4.092-5.075,1.164-7.47,1.433-11.641,4.341,4.641-2.237,12.328-1.635,17.011.528a33.17,33.17,0,0,0-10.878.426c6.259.1,8.53,2.646,13.07,6.027-3.538-1.932-8.035-4.3-11.948-4.557,6.089,3.338,7.6,7.2,9.186,10.779-3.289-4.08-4.411-6.97-12.2-11.163,5.908,3.594,7.008,7.717,6.085,12.364-.357-5.683-2.534-9.651-9.4-11.646,5.053,2.927,7.959,6.776,6.732,11.333-1.073-6-7.331-10.335-13.02-10.972,3.852,2.389,9.584,5.87,9.884,10.064-2.27-4.346-11.382-8.81-16.3-9.351,4.955,1.974,11.152,5.189,12.581,9.1-1.783-2.476-5.6-4.255-9.2-5.171q1.776,1.031,3.456,2.213a21.862,21.862,0,0,0-7.712-2.124c3.778.892,8.912,2.574,9.08,6.476-.112-2.191-3.406-3.72-7.364-4.722A28.019,28.019,0,0,1,150.029,48q-3.671-3.229-7.637-6.1,2.824,4.134,5.386,8.439a30.242,30.242,0,0,0-7.547-7.754,14.234,14.234,0,0,1,1.63,2,53.352,53.352,0,0,1,3.968,6.649,28.028,28.028,0,0,0-8.685-9c3.825,3,6.7,8.669,6.709,12.027-.7-3.088-6.118-11.472-11.288-13.224,3.455,2.259,9.222,10.7,9.665,14.059-2.519-4.086-7.6-10.854-12.1-12.512,4.764,2.171,7.461,8.591,8.2,11.614-1.407-2.265-2.619-5.026-4.662-6.974a17.006,17.006,0,0,1,2.405,3.908,16.747,16.747,0,0,0-7.883-6.316c-.08-.006-.152-.02-.233-.024,3.108,1.565,6.563,6.86,8.169,9.948-2.926-2.885-7.089-7.42-11.188-7.123,3.6.6,6.733,4.222,8.943,7.123-2.635-1.512-5.419-4.152-8.144-5.036a23.359,23.359,0,0,1,2.878,2.458,19.879,19.879,0,0,0-5.08-1.809c3.4,1.106,6.879,4.221,9.107,5.626-3.157-.86-7.919-3.829-11.614-3.306a12.884,12.884,0,0,1,3.541,1.117,15.731,15.731,0,0,0-4.985-.018c3.174.25,8.383.674,10.31,3.174a22.878,22.878,0,0,0-11.06,1.962,11.2,11.2,0,0,1,2.414.6,17.822,17.822,0,0,0-5.861,1.564,19.851,19.851,0,0,1,6.417-1.1,59.243,59.243,0,0,1-5.483,2.408c2.254-.841,4.376-1.348,5.715-1.131-4.481,1.272-11.451,5.8-17.46,10.8.5-.357.971-.682,1.412-.966,8.824-5.7,18.685-10.371,29.18-10.83,10.377-.456,25.608,3.121,31.575,11.654-1.914-2.55-8.471-5.407-11.308-6.244,2.653,1.943,6.906,5.2,6.785,8.052-1.6-3.632-7.636-7.005-11.2-8.749,2.524,1.791,6.876,4.826,7.406,8.207-1.764-3.157-6.007-5.4-9.264-7.737,1.771,1.474,3.49,3.226,3.768,5.646-2-2.839-5.741-5.037-8.209-7.7,2.553,3.107,6.418,7.9,6.3,10.67-1.064-3.681-8.077-9.605-11.654-10.978,3.616,1.572,9.792,7.195,7.471,10-1.8-5.568-9.62-10.169-13.833-10.582,2.022,1.4,9.087,4.405,11.569,7.9-3.957-3.323-12.151-5.576-15.181-6.134,2.926.769,8.084,2.646,10.608,4.59A61.623,61.623,0,0,0,124.91,65c3.281.771,11.207,3.222,13.693,5.61-5.66-2.033-15.24-3.8-18.642-3.177,3.521.143,9.371.351,12.061,2.628a26.322,26.322,0,0,0-9.832-.5,27.715,27.715,0,0,1-6.183.1c2.4,1.015,6.342.491,8.743,1.506-7.943-.518-20.682,5.861-28.06,10.581l-.011.027c19.59-10.176,49.7-11.37,70.119-3.109,5.278,2.136,10.559,7.006,10.622,7.843a54.164,54.164,0,0,1-6.834-4.266c3.975,3.42,4.172,5.421,4.783,9.634-3.1-6.263-5.329-8.544-10.748-12.406a21.194,21.194,0,0,1,7.312,11.9,26.8,26.8,0,0,0-12.348-12c4.6,2.759,7.009,6.5,7.169,11.236-2.531-5.573-6.658-9.32-11.495-12.252a15.488,15.488,0,0,1,7.188,10.977,20.53,20.53,0,0,0-6.055-7.768,15.316,15.316,0,0,1,.875,4.538,15.738,15.738,0,0,0-6.885-8.052q-1.419-.6-2.909-1.082c5.372,2.37,9.462,5.827,8.264,12.08-1.77-5.786-4.792-9.124-8.415-10.854a15.778,15.778,0,0,1,3.113,6.735,17.621,17.621,0,0,0-4.23-5.5c1.736,2.425,2.534,6.1,3.119,9.52a19.245,19.245,0,0,0-6.094-8.808,20.812,20.812,0,0,1,1.092,6.158,19.989,19.989,0,0,0-5.165-7.926,17.07,17.07,0,0,1,3.589,7.144,12.8,12.8,0,0,0-2.04-3.352,13.4,13.4,0,0,1,2.28,5.771c-3.162-4.3-7.628-8.043-11.77-9.017a18.009,18.009,0,0,1,6.4,6.128,53.519,53.519,0,0,0-5.182-4.061,37.092,37.092,0,0,1,6.108,7c-4.378-3.572-8.752-7.16-13.446-9.747A33.4,33.4,0,0,1,134.156,87,47.951,47.951,0,0,0,121.99,79.24c2.9,1.52,5.44,4.6,7.167,7.256-3.683-3.5-7.365-6.431-11.031-7.733,3.576,1.559,6.3,6.2,6.442,9.108a20.015,20.015,0,0,0-5.254-5.641,9.362,9.362,0,0,1,2.477,3.673,33.99,33.99,0,0,0-3.336-2.84,9.86,9.86,0,0,1,1.959,3.175,26.831,26.831,0,0,0-4.792-1.605,9.66,9.66,0,0,1,.691,1.71c1.031.5,2.05,1.024,3.042,1.6l-8.463-1.677c4.565,1.538,10.791,2.885,14.237,6.251-4.02-2.432-9.985-3.476-12.145-1.853,13.16,4.447,21.523,13.235,24.6,25.44-1.061-3.188-6.689-11.981-9.749-13.368,4.929,4.563,12.163,15.527,14.214,25.794-1.629-3.194-5.175-10.3-5.929-9.767,3.5,8.535,7.219,21.5,7.314,30.721a167.066,167.066,0,0,0-8.237-29.013c1.435,6.5.961,10.807.7,14.861-.524-8.189-2.466-16.318-4.234-23.724.718,3.364.977,10.141.269,12.884-.311-8.612-4.166-18.041-9.458-22.658,2.285,2.014,4.831,7.806,3.654,9.882a43.839,43.839,0,0,0-15.68-19.3,49.236,49.236,0,0,1-4.028-2.985h0c-2.311-.426-5.647-3.252-7.958-3.676L112.1,93.682l-9.347-2.373c6.827,2.323,10.605,5.87,14.1,12.213-3.357-3.661-6.907-6.49-11.136-6.4,5.659,2.4,9.8,6.8,12.85,11.943-3.474-3.162-5.926-7.23-11.76-8.29,7.971,3.664,12.571,11.317,16.387,19.1-4.44-4.01-5.961-10.206-12.612-13.183,6.763,6.328,11.266,12.567,14.223,20.5-3.474-3.625-5.679-10.3-11.164-12.923,6.657,6.623,10.262,15.813,13.856,22.968-3.835-4.522-5.635-12.692-11.83-16.092,6.975,6.241,9.83,18.207,11.995,27.622-2.928-5.21-5.857-13.56-8.787-18.77,4.235,9.2,5.439,21.668,4.409,30.779q-1.417-7.727-2.836-15.453l-.6,16.276a94.716,94.716,0,0,1-.9-21c-.735,6.043-3.1,12.88-5,17.849a70.283,70.283,0,0,0,3.089-23.48c-1.051,6.436-2.391,12.082-5.144,17.309a105.49,105.49,0,0,0,3.79-21.671c-1.4,7.677-4.315,13.127-7.452,18.247a74.3,74.3,0,0,0,6.3-23.548,38.264,38.264,0,0,1-7.887,18.523c4.086-6.311,6-14.042,5.882-22.668a32.756,32.756,0,0,1-7.978,18.109c4.029-6.7,5.583-12.81,6.046-20.685a46.178,46.178,0,0,1-6.042,14.835c2.656-6.968,3.484-10.905,4.409-18.717-1.658,7.15-3.648,9.48-7.248,13.9,3.2-6.017,4.415-10.939,5.26-19.047-1.543,6.378-3.743,9.305-7.36,13.8,3.308-5.638,4.317-10.823,5.113-19.054-1.79,7.217-4.311,10.372-7.727,15.127,2.937-5.879,4.667-13.279,6.115-21.031-1.609,8.171-4.856,12.352-8.541,15.463,3.508-5.5,5.493-12.14,6.816-19.283-2.288,8.073-6.787,13.347-12.065,17.882A39.377,39.377,0,0,0,99.653,92.781a30.467,30.467,0,0,1-10.487,15.114,64.515,64.515,0,0,0,8.814-18.082,45.632,45.632,0,0,1-8.619,13.4,73.578,73.578,0,0,0,7.424-15.141,27.383,27.383,0,0,1-5.422,7.67c-.562,2.106-1.124,4.1-1.686,5.76.008-.3.015-.653.023-1.026-7.1,21.595-11.588,44.8-11.732,66-.159,23.451,6.077,49.067,15.7,71.985l-6.4,13.523A170.865,170.865,0,0,1,71.336,165.741Zm2.579-20.976q.729-4.394,1.631-8.847a38.3,38.3,0,0,1-1.886-12.038A78.348,78.348,0,0,0,73.914,144.765Zm2.141-11.306q.7-3.286,1.5-6.575a40.551,40.551,0,0,1-.941-9.89A112.011,112.011,0,0,0,76.055,133.46Zm2.4-10.157q.363-1.4.743-2.8a29.011,29.011,0,0,1-1.333-6.682C77.964,116.788,78.217,120.065,78.45,123.3Zm1.817-6.61q.352-1.2.716-2.405-.272-3.508-.547-7.016A55.5,55.5,0,0,0,80.267,116.692Zm2.477-7.934c.264-.789.537-1.573.809-2.356a20.2,20.2,0,0,1-.1-3.351Q83.1,105.905,82.744,108.758Zm3.694-13.867a40.113,40.113,0,0,0-1.1,6.614c.258-.677.516-1.355.78-2.028a34.66,34.66,0,0,1,.371-4.634Zm.111-.437.02-.023c.031-.156.063-.306.1-.446C86.622,94.137,86.591,94.3,86.549,94.455Zm19.881-5.024a65.142,65.142,0,0,0-6.491-5.3L98.63,83.86A53.667,53.667,0,0,1,106.43,89.431ZM94.136,88.073l-.086.223.231-.352Zm-12.354.015a56.734,56.734,0,0,1,9.519-4.2q-.22-.008-.439-.008A12.205,12.205,0,0,0,81.782,88.089Zm32.858-2.531c.534.235,1.059.49,1.583.743A14.791,14.791,0,0,0,114.5,84.37c-.3-.064-.607-.123-.914-.183A13.136,13.136,0,0,1,114.64,85.557Zm-5.161-1.9-.386-.155c-.092-.011-.18-.023-.271-.033C109.041,83.533,109.261,83.59,109.479,83.657ZM76.632,80.851c1.929.035,3.859.094,5.763.184a15.591,15.591,0,0,1,5.057-1.351c-.775-.033-1.545-.053-2.307-.053A25.788,25.788,0,0,0,76.632,80.851Zm-8.754-.025c2.293-.023,4.649-.028,7.018,0a13.331,13.331,0,0,1,6.3-2.535,24.469,24.469,0,0,0-3.953-.339A15.29,15.29,0,0,0,67.877,80.826Zm44.585-.876a15.545,15.545,0,0,1,2.093.6q-.556-.305-1.121-.592c-.2-.013-.391-.02-.587-.02Q112.655,79.939,112.462,79.949Zm29.8-3.155-.073-.035c-.094-.011-.187-.027-.282-.035C142.029,76.738,142.141,76.772,142.261,76.794ZM97.046,70.985c-.672,1.777-1.374,3.6-2.185,5.624a8.693,8.693,0,0,1,2.487-2.425c.846-2.415,1.706-4.959,2.572-7.51Q98.484,68.829,97.046,70.985Zm-2.86-2.166,2.07-2.459q.1-1.414.134-2.85ZM45.077,67.353c.04,0,.079.011.117.017l.16-.076C45.261,67.311,45.171,67.334,45.077,67.353Zm-11.81-.416c.043-.006.087-.009.131-.013.111-.082.215-.168.325-.25C33.57,66.76,33.419,66.849,33.266,66.937ZM99.1,65.543c-.165.435-.332.872-.493,1.3l2.017-2.227q.174-.508.347-1.016Q99.976,64.559,99.1,65.543Zm-14.567-.865c.136.2.275.387.416.579l.093-.917-.651-.729C84.436,63.966,84.484,64.322,84.531,64.678Zm20.238-4.442c-.115,1.611-.225,3.19-.377,4.641.216-1.52.5-3.234.847-5.032C105.082,59.975,104.926,60.105,104.769,60.236ZM92.915,64.068c.832-1.028,1.673-2.122,2.521-3.232-.166-.271-.332-.541-.5-.808Q93.924,62.048,92.915,64.068ZM86.666,61.9l1.478,1.06-1.553-1.523C86.614,61.589,86.642,61.742,86.666,61.9Zm-5.208-.631.214.244c.007-.194.014-.387.022-.581l-.035-.376-.346-.387C81.361,60.533,81.409,60.9,81.458,61.267Zm2.434-1.36,1.486,1.065.066-.662L83.72,58.619Zm11.374-.549c.231.267.46.533.68.809.135-.177.269-.351.4-.528-.147-.5-.31-.986-.491-1.469Zm12.919-1.891c-.069.912-.122,1.738-.165,2.415.242-.894.5-1.871.763-2.9C108.587,57.146,108.386,57.308,108.185,57.468Zm-7.2.974c-.241.222-.477.455-.707.693A16.829,16.829,0,0,1,102.459,58q.322-.236.651-.464.242-.659.483-1.3C102.7,56.941,101.824,57.669,100.988,58.441Zm-8.707.516,1.042-1.245c-.063-.083-.128-.164-.193-.249ZM81,57.835l.782.562.06-1.613-1.126-1.1Q80.863,56.757,81,57.835Zm-2.859-.518c.208.266.412.533.624.8l.043-.746-.85-.951Zm8.044.053.85.562-.862-.812C86.18,57.2,86.187,57.286,86.19,57.37Zm7.062-.118c.084.08.175.155.259.236L94.843,55.9c-.128-.248-.262-.492-.4-.736Zm-9.956-1.8,2.473,1.636.033-.324-2.666-2.509Q83.215,54.857,83.3,55.455Zm21.73,1.484v0c.3-.118.605-.236.912-.354.028-.119.058-.239.086-.358C105.687,56.461,105.355,56.7,105.026,56.939Zm-2.886-.873c-.15.2-.3.4-.45.607a19.689,19.689,0,0,1,2.347-1.6c.127-.332.256-.658.382-.98Q103.237,55.031,102.139,56.066Zm-24.357-.543,1.091.783Q78.938,55.151,79,54l-1.912-1.874Zm27.44-.514c-.05.424-.1.851-.136,1.284.35-.2.7-.4,1.062-.582.135-.549.274-1.1.423-1.644C106.114,54.37,105.668,54.688,105.223,55.008Zm3.2-.346c-.033.34-.064.673-.093,1,.3-.118.6-.237.886-.356.549-2.116,1.14-4.386,1.772-6.635-.656.378-1.308.767-1.95,1.178-.263,1.581-.461,3.238-.615,4.806l.018-.008Zm-13.731.058c.2.219.392.439.576.668l.712-.851c-.043-.409-.083-.82-.129-1.228-.045-.127-.091-.256-.138-.382ZM80.443,53.567l1.487.985q.027-.69.052-1.38l-1.817-1.709Q80.3,52.515,80.443,53.567Zm25.008-.275q-.08.531-.152,1.079.682-.355,1.378-.679.221-.8.462-1.582Q106.279,52.676,105.451,53.291Zm-19.295.8.283.2-.279-.266C86.159,54.048,86.157,54.071,86.156,54.093ZM82.8,51.754l3.276,2.282.009-.084L82.658,50.7C82.705,51.049,82.753,51.4,82.8,51.754Zm9.261,1.981,2.766-2.989c-.18-.4-.365-.8-.562-1.188ZM74.484,52.053c.228.384.467.762.708,1.137l.027-2.906-.549-.537.55.364q.015-1.638.029-3.275l-1.4-1.321,1.407.98q.013-1.409.025-2.816l-2.035-1.934Zm2.426-.823,2.168,1.435.119-2.112-3-2.82Q76.556,49.48,76.91,51.23Zm28.945.933c.476-.226.963-.427,1.457-.608.073-.23.147-.457.222-.684C106.966,51.275,106.4,51.7,105.855,52.163Zm-25.915-2.4,2.113,1.473.04-1.075-2.4-2.282Zm14.631-.784c.279.387.547.782.79,1.192l.062-.066q-.158-1.062-.332-2.11Zm-3.219.894,1.8-2.33c-.134-.228-.263-.457-.4-.682.178.174.346.355.517.535l1.4-1.811q-.2-1.072-.41-2.122ZM76.065,47.062,79.27,49.3q.05-.865.1-1.727L75.4,43.8Q75.734,45.431,76.065,47.062Zm36.7.616q-.1.7-.187,1.386c.1-.491.21-.979.331-1.465Zm-6.415,1.195c.725-.229,1.429-.413,2.129-.578.155-.385.314-.763.478-1.131Q107.616,47.959,106.35,48.874Zm-.777-1.207c-.261.378-.522.778-.782,1.194a28.816,28.816,0,0,1,4.514-2.435c.294-.614.6-1.2.925-1.747A28.464,28.464,0,0,0,105.573,47.667Zm4.113-.922q-.169.647-.316,1.346c.636-.142,1.271-.281,1.913-.438.2-.687.4-1.37.6-2.041Q110.767,46.136,109.687,46.745ZM96.758,44.834c.329.955.61,1.926.851,2.906l.083-.09c-.027-.564-.064-1.113-.108-1.653-.116-.664-.246-1.324-.395-1.979Zm17.064-3.047c-.372,1.74-.718,3.619-.992,5.444.064-.02.127-.037.191-.058a39.2,39.2,0,0,1,2.028-5.874,32.254,32.254,0,0,0-.773,5.1c.648-2.226,1.35-4.471,2.1-6.587-.794.235-1.556.5-2.292.792q-.128.556-.252,1.137c.294-.066.587-.134.883-.194C114.414,41.619,114.119,41.706,113.822,41.787ZM90.227,46.714l3.56-5.5c-.023-.106-.045-.216-.069-.322.024.1.064.188.092.284l.8-1.232c-.031-.071-.059-.143-.091-.214.035.064.066.131.1.2l1.259-1.945c-.261-.683-.542-1.356-.868-2.01a15.149,15.149,0,0,1,1.151,1.574l.757-1.168c-.08-.19-.154-.384-.238-.572.1.165.186.336.282.5l.866-1.338a26.251,26.251,0,0,0-1.209-3.139Zm5.958-.794c.149.254.291.513.431.772q-.1-.591-.219-1.174Zm14.193-1.312a15.22,15.22,0,0,0-.543,1.591q1.039-.423,2.108-.763.284-.914.574-1.8Q111.428,44.078,110.378,44.608Zm-1.2-1.053a18.581,18.581,0,0,0-1.656,1.629,29.754,29.754,0,0,1,3.089-1.122c.038-.058.071-.121.108-.177-.028.052-.052.115-.079.168.63-.188,1.266-.351,1.906-.5q.264-.8.537-1.558A25.907,25.907,0,0,0,109.176,43.554ZM98.142,42.21a10.351,10.351,0,0,1,.231,2.747l.015.059c.107-.4.189-.813.258-1.223-.044-.7-.123-1.4-.231-2.1Zm-3.649.727c.281.574.594,1.131.92,1.681L96,43.861q-.344-1.256-.8-2.475Zm.779-1.72q.543,1.127,1,2.291l.6-.78c-.267-1.015-.578-2.018-.924-3.008Zm22.318,1.866c1.074-3.254,2.31-6.617,3.551-9.578q-1.167.337-2.3.695a48.143,48.143,0,0,0-1.485,5.408c.689-1.572,1.461-3.111,2.291-4.608A66.836,66.836,0,0,0,117.59,43.083Zm-87.845-.278Zm80.484-.1q1.427-.45,2.883-.8c.131-.364.262-.718.395-1.065A16.936,16.936,0,0,0,110.229,42.709ZM96.6,38.278a14.612,14.612,0,0,1,1.322,3.089l.358-.464a23.128,23.128,0,0,0-1.105-3.9ZM99.521,39.6c.042.467.073.933.084,1.392.046-.625.113-1.255.18-1.892Zm-3.472-.1c.252.431.5.867.72,1.314-.15-.608-.316-1.2-.507-1.787Zm13.017.96a12.493,12.493,0,0,1,4.981-.971c.229-.547.461-1.075.7-1.56-.132.485-.266,1.009-.4,1.558.714,0,1.424.018,2.132.038a53.809,53.809,0,0,1,2.166-5.264,32.463,32.463,0,0,0-6.963,3.026,33.015,33.015,0,0,1,5.26-1.246,26.409,26.409,0,0,0-8.019,3.258c-.417.364-.824.743-1.216,1.154a28.719,28.719,0,0,1,7.1-2.931A22.823,22.823,0,0,0,109.066,40.464Zm-11.808-3.63a32.194,32.194,0,0,1,1.558,3.213,21.959,21.959,0,0,0-.875-4.719Zm1.137-2.51a21.834,21.834,0,0,1,1.1,5.011l.3-.392.009-.08a42.873,42.873,0,0,0-1.081-5.274Zm-18.249-.491Zm91.786,57.528Zm-5.179-.767ZM106.431,89.432Zm56.016-.112ZM134.156,87Zm-5-.5Zm15.167-.209Zm12.943-.2ZM121.791,85.9Zm20.956-.4Zm-5.135-.47Zm12.824-.117Zm7.987-11.757Zm8.318-1.266q.111.147.2.293C166.875,72.09,166.808,71.992,166.741,71.9Zm-13.814-.825Zm-8.356-.7Zm-12.548-.318ZM140,68.831Zm-6.117-14.1Zm4.45-.541Zm-13.762-.408Zm4.046-1.629Zm7.459-1.03Zm24.4-5.235Zm-3.716-.254Zm-5.742-2.958Zm21.95-9.444Zm-74.5-7.947.362.294C98.706,25.487,98.585,25.39,98.472,25.288Z" transform="translate(162.02 126.393)" stroke="rgba(0,0,0,0)" stroke-miterlimit="10" stroke-width="1"/>
      <g id="cross" transform="translate(64.413 27.37)" style="mix-blend-mode: soft-light;isolation: isolate">
        <line id="Line_1" data-name="Line 1" y1="412.894" transform="translate(178.788 0)" fill="none" stroke="rgba(1,255,195,0.66)" stroke-width="1"/>
        <line id="Line_2" data-name="Line 2" y1="412.894" transform="translate(357.577 103.224) rotate(60)" fill="none" stroke="rgba(1,255,195,0.66)" stroke-width="1"/>
        <line id="Line_3" data-name="Line 3" y1="412.894" transform="translate(357.577 309.671) rotate(120)" fill="none" stroke="rgba(1,255,195,0.66)" stroke-width="1"/>
      </g>
    </g>
    <path id="git" d="M73.556,34.145,40.823,1.414a4.828,4.828,0,0,0-6.827,0l-6.8,6.8,8.622,8.622a5.734,5.734,0,0,1,7.261,7.309l8.31,8.31a5.738,5.738,0,1,1-3.441,3.239L40.2,27.942V48.336a5.8,5.8,0,0,1,1.519,1.086,5.74,5.74,0,1,1-6.243-1.253V27.585a5.675,5.675,0,0,1-1.88-1.254,5.743,5.743,0,0,1-1.238-6.28l-8.5-8.5L1.414,33.993a4.83,4.83,0,0,0,0,6.83L34.147,73.554a4.828,4.828,0,0,0,6.828,0l32.58-32.579a4.831,4.831,0,0,0,0-6.83" transform="translate(1144.537 1044.913)" fill="#de4c36"/>
    <g id="vim" transform="translate(982.537 639.866)">
      <path id="Path_117" data-name="Path 117" d="M39.089,1.952,1.945,38.977l37.144,37.2,36.974-37.2L39.089,1.952" transform="translate(-1.373 -1.378)" fill="#019833"/>
      <path id="Path_118" data-name="Path 118" d="M39.668,6.011V2.885L2.774,39.642H5.935L39.668,6.011" transform="translate(-1.958 -2.037)" fill="#66fe98"/>
      <path id="Path_119" data-name="Path 119" d="M128.264,6.011V2.885l37.009,36.757h-3.421L128.264,6.011" transform="translate(-90.554 -2.037)" fill="#45fe02"/>
      <path id="Path_120" data-name="Path 120" d="M39.668,161.7v3.46L2.774,127.908H5.935L39.668,161.7" transform="translate(-1.958 -90.303)" fill="#017d17"/>
      <path id="Path_121" data-name="Path 121" d="M128.264,161.7v3.46l37.009-37.249h-3.421L128.264,161.7" transform="translate(-90.554 -90.303)" fill="#005d04"/>
      <path id="Path_122" data-name="Path 122" d="M31.464,75.611H24.313L21.52,72.889V20.915H19.3l-1.9-1.9V13.2l1.966-2.132H44.383l2.249,2.251v5.514l-1.869,2.278h-1.89V38.684L60.657,21.115h-.993L57.6,18.885V13.038l2.032-1.865H84.874l2,2V18.7L31.464,75.611" transform="translate(-12.288 -7.817)"/>
      <path id="Path_123" data-name="Path 123" d="M37.71,75.365,0,37.605,37.71,0,75.264,37.605ZM1.155,37.605l36.555,36.6,36.4-36.6L37.71,1.157Z"/>
      <path id="Path_124" data-name="Path 124" d="M47.3,18.189l1.111-.718-1.135-1.178H23.22L22,17.517v4.631L23.353,23.5,24,22.148l-.85-.852V18.032l.638-.568,22.716.028.8.7" transform="translate(-15.531 -11.503)" fill="#fefefe"/>
      <path id="Path_125" data-name="Path 125" d="M37.973,35.833V90.027l.762.726-.611,1.154-1.6-1.579V37.238l1.451-1.405" transform="translate(-25.784 -25.298)" fill="#fefefe"/>
      <path id="Path_126" data-name="Path 126" d="M27.087,35.833,26.608,37.3h2.906L31.2,35.833H27.087" transform="translate(-18.785 -25.298)" fill="gray"/>
      <path id="Path_127" data-name="Path 127" d="M112.865,22.329l-1.016-.718V18.7l1.063-1.065h22.182l.851,1.135,1.21-.955-1.246-1.138H112.061l-1.187,1.189v4.666l1.25,1.131M92.833,46.1l-2.316,5.628,26.151-26.257L116.54,22.3,92.833,46.1" transform="translate(-63.905 -11.775)" fill="#fefefe"/>
      <path id="Path_128" data-name="Path 128" d="M61.355,21l1.163-.7v4.566L61.19,26.2H58.609l-.048,22.46-2.308,5.615V24.867h4.31l.8-.652L61.355,21m40.239.015,1.289-.638v4.17l-54.9,56.4H41.973l.586-1.108h4.614L101.6,23.558l-.008-2.545m-19.326,3.84L80.931,26.2l-3.078.026.752-1.349,3.664-.02" transform="translate(-29.633 -14.332)" fill="gray"/>
      <path id="Path_129" data-name="Path 129" d="M66.843,19.79l-.85.851v3.123l.744.745h3.931v3.018l-26.007,26.4V24.546h4.322l.887-.888V20.5l-.819-.633H26.306l-.744.745v3.229l.756.758h3.956v54.1l.744.745h4.5l54.5-56.314V20.641l-.85-.851H66.843" transform="translate(-18.047 -13.972)" fill="#ccc"/>
      <path id="Path_130" data-name="Path 130" d="M35.373,79.337H30.817l-.786-.787V24.495H26.117l-.8-.8V20.407l.786-.787H48.9l.866.67v3.226l-.929.93h-4.28v29.13L70.425,27.324V24.408H66.536l-.786-.787V20.438l.891-.893H89.024l.892.893V22.98L89.9,23Zm-4.5-.144h4.436l54.46-56.271V20.5l-.808-.809H66.7l-.808.809v3.064l.7.7h3.974v3.119l-.021.021L44.418,53.926V24.3h4.364l.845-.846v-3.1l-.771-.6H26.164l-.7.7v3.169l.715.716h4V78.49l.7.7Z" transform="translate(-17.874 -13.799)" fill="gray"/>
      <path id="Path_131" data-name="Path 131" d="M112.556,143.816a.245.245,0,0,0-.112.056l-1.054.906a.247.247,0,0,0-.068.106l-1.054,2.956a.245.245,0,0,0,.056.255l.806.807a.245.245,0,0,0,.174.068h3.255a.244.244,0,0,0,.173-.068l.85-.857a.245.245,0,0,0,.062-.106l.906-3.111a.246.246,0,0,0-.062-.242l-.7-.7a.243.243,0,0,0-.173-.068h-3.008a.233.233,0,0,0-.05,0Zm-5.965,8.333a.245.245,0,0,0-.186.18l-.4,1.6a.245.245,0,0,0,.236.3h1.916l-4.75,13.58a.245.245,0,0,0,.23.323h6.914a.245.245,0,0,0,.236-.168l.453-1.459a.245.245,0,0,0-.236-.317h-1.563l4.7-13.723a.245.245,0,0,0-.23-.323H106.64A.281.281,0,0,0,106.591,152.149Zm22,.05a.245.245,0,0,0-.137.081l-1.439,1.627h-2.288l-1.526-1.583a.244.244,0,0,0-.173-.075h-5.463a.245.245,0,0,0-.23.161l-.5,1.5a.245.245,0,0,0,.229.323h1.464l-4.552,13.431a.246.246,0,0,0,.23.323h5.817a.245.245,0,0,0,.23-.161l.446-1.31a.245.245,0,0,0-.229-.323h-1.017l2.9-9.147h5.252l-3.311,10.625a.245.245,0,0,0,.236.317h5.612a.245.245,0,0,0,.223-.149l.5-1.2a.245.245,0,0,0-.223-.335h-1.017l2.952-9.3h5l-3.361,10.674a.245.245,0,0,0,.236.317h6.164a.245.245,0,0,0,.23-.155l.5-1.31a.245.245,0,0,0-.229-.329H139.9l3.715-12.077a.246.246,0,0,0-.037-.224l-1.153-1.552a.244.244,0,0,0-.2-.093h-4.409a.244.244,0,0,0-.18.075l-1.389,1.527h-2.431l-1.439-1.577a.244.244,0,0,0-.18-.075h-3.553A.275.275,0,0,0,128.592,152.2Z" transform="translate(-72.993 -101.533)" fill="#ccc"/>
      <path id="Path_132" data-name="Path 132" d="M109.353,147.935a.808.808,0,0,0,.559.229h3.259a.81.81,0,0,0,.592-.238l.848-.855a.819.819,0,0,0,.208-.351l.905-3.111a.819.819,0,0,0-.207-.809l-.708-.709a.8.8,0,0,0-.572-.229h-2.987a.806.806,0,0,0-.128,0l-.06.009a.816.816,0,0,0-.368.182l-1.054.907-.012.011a.823.823,0,0,0-.225.343l-1.052,2.949a.826.826,0,0,0,.19.855Zm4.749-4.925.463.464-.828,2.845-.69.7h-2.989l-.558-.559.958-2.684.886-.762Zm28.555,9.16-1.153-1.552-.01-.013a.821.821,0,0,0-.654-.312h-4.395a.812.812,0,0,0-.6.249l-1.23,1.353h-1.923l-1.268-1.39-.012-.013a.828.828,0,0,0-.593-.249h-3.533a.8.8,0,0,0-.128,0l-.059.009a.818.818,0,0,0-.45.263l-1.267,1.433h-1.785l-1.357-1.408a.826.826,0,0,0-.587-.25h-5.465a.822.822,0,0,0-.768.54l-.507,1.516a.821.821,0,0,0,.774,1.08h.662l-4.3,12.674a.821.821,0,0,0,.517,1.037.834.834,0,0,0,.258.042h5.818a.825.825,0,0,0,.772-.551l.447-1.313a.821.821,0,0,0-.774-1.08h-.232l2.538-8h4.051l-3.08,9.882a.821.821,0,0,0,.543,1.023.912.912,0,0,0,.242.036h5.617a.82.82,0,0,0,.749-.5l.506-1.214a.82.82,0,0,0-.758-1.122h-.232l2.587-8.152h3.794l-3.127,9.932a.821.821,0,0,0,.781,1.059h6.164a.828.828,0,0,0,.77-.524l.505-1.319a.821.821,0,0,0-.769-1.1H139.3l3.483-11.324A.82.82,0,0,0,142.657,152.171Zm-4.917,13.218h1.52l-.248.645h-5.491l3.461-10.991h-6.2l-3.316,10.451h1.3l-.225.539H123.6l3.41-10.941h-6.454l-3.267,10.3h1.339l-.22.645H113.29l4.661-13.754h-1.8l.28-.838h5.082l1.6,1.658H125.9l1.51-1.708h3.268l1.506,1.652h2.939l1.457-1.6h4.107l.951,1.281-3.9,12.666Zm-27.877-1.113a.886.886,0,0,0-.242-.036h-.759l4.441-12.965a.821.821,0,0,0-.774-1.08h-7.247a.818.818,0,0,0-.128,0l-.063.01a.814.814,0,0,0-.622.6l-.4,1.6a.819.819,0,0,0,.793,1.018h1.106l-4.485,12.823a.821.821,0,0,0,.774,1.08h6.918a.82.82,0,0,0,.781-.572l.453-1.461A.821.821,0,0,0,109.864,164.276Zm-7.142,1.907,4.863-13.9h-2.3l.236-.937h6.546l-4.811,14.046h1.921l-.246.794Z" transform="translate(-71.615 -100.153)"/>
    </g>
    <g id="vsc" transform="translate(1307.537 640.866)">
      <path id="Path_133" data-name="Path 133" d="M3.436,252.053s-1.819-1.311.364-3.062l5.086-4.548a2.159,2.159,0,0,1,2.994-.2l46.937,35.536v17.04s-.023,2.676-3.457,2.38Z" transform="translate(-2.725 -226.285)" fill="#2489ca"/>
      <path id="Path_134" data-name="Path 134" d="M17.462,498.8l-12.1,11s-1.243.925,0,2.577l5.617,5.109s1.334,1.433,3.3-.2l12.826-9.725Z" transform="translate(-4.653 -462.048)" fill="#1070b3"/>
      <path id="Path_135" data-name="Path 135" d="M310.59,58.394l22.187-16.942L332.633,24.5s-.948-3.7-4.108-1.774L299,49.6Z" transform="translate(-276.542 -21.551)" fill="#0877b9"/>
      <path id="Path_136" data-name="Path 136" d="M689.152,86.9a3.051,3.051,0,0,0,2.85.887l17.29-8.52a3.646,3.646,0,0,0,1.9-3.381V25.009A3.4,3.4,0,0,0,708.906,22L693.92,14.776a4.161,4.161,0,0,0-5.42.364s2.759-1.986,4.109,1.774V84.187a3.057,3.057,0,0,1-.3,1.327c-.394.8-1.251,1.539-3.3,1.228Z" transform="translate(-636.517 -13.962)" fill="#3c99d4"/>
    </g>
    <g id="gimp" transform="translate(1305.537 970.866)">
      <path id="path6490" d="M64.588,57c0,7.187-13.4,13.013-29.919,13.013S4.75,64.191,4.75,57s13.4-13.013,29.919-13.013S64.588,49.817,64.588,57Z" transform="translate(4.852 -18.965)" fill-rule="evenodd" fill="url(#radial-gradient-2)"/>
      <path id="path4323" d="M13.991,14.855S18.7,24.573,29.728,24.3c23.1-.58,27.155-12.632,27.734-14.37s1.467-1.475,1.672.132C66.669,78.455,6.842,49.109,4.718,37.46,16.6,33.982,13.7,27.317,13.7,27.317Z" transform="translate(4.626 -8.735)" stroke="#2e3436" stroke-miterlimit="10" stroke-width="1" fill-rule="evenodd" fill="url(#radial-gradient-3)"/>
      <path id="path6480" d="M15.738,31.913c11.048,2.21,16.674.161,19.967-2.382a18.58,18.58,0,0,0-2.355-2.355S37.208,28.249,38.566,30s.5,2.826.148,5.063c-.789-1.965-2.262-2.7-2.462-3.483C33.292,35.677,25.914,35.506,15.738,31.913Z" transform="translate(11.672 3.057)" fill-rule="evenodd" fill="url(#linear-gradient)"/>
      <path id="path8520" d="M56.631,11.844a20.085,20.085,0,0,1-4.406,5.072c-4.315,3.572-11.559,6.824-23.413,7.121a18,18,0,0,1-14.14-6.148l-.2,7.326a6.58,6.58,0,0,1-.1,4.457c-.843,2.343-3.532,4.74-8.146,6.558a8.821,8.821,0,0,0,2.049,2.92,34.387,34.387,0,0,0,6.814,5.021c5.571,3.2,12.79,5.727,19.519,5.84s12.881-2.024,17.111-8.2C55.612,36.123,57.749,26.489,56.631,11.844Z" transform="translate(5.586 -6.747)" fill="none" stroke="#707070" stroke-miterlimit="10" stroke-width="1" fill-rule="evenodd" opacity="0.185"/>
      <path id="path4357" d="M98.037,30.5a6.666,6.666,0,1,1-6.666-6.666A6.666,6.666,0,0,1,98.037,30.5Z" transform="translate(-67.392 -9.747)" stroke="#888a85" stroke-miterlimit="10" stroke-width="1" fill-rule="evenodd" fill="url(#radial-gradient-4)"/>
      <path id="path5198" d="M14.2,10c0,5.522-3.179,10-7.1,10S0,15.52,0,10,3.179,0,7.1,0,14.2,4.476,14.2,10Z" transform="translate(0 23.466) rotate(-35.808)" stroke="#000" stroke-miterlimit="10" stroke-width="1" fill-rule="evenodd" fill="url(#radial-gradient-5)"/>
      <path id="path4359" d="M22.983,19.854a3.209,3.209,0,1,1-3.209-3.209A3.209,3.209,0,0,1,22.983,19.854Z" transform="translate(5.764 1.889)" fill="#2e3436" stroke="#000" stroke-miterlimit="10" stroke-width="1" fill-rule="evenodd"/>
      <path id="path6450" d="M5.379,0A4.461,4.461,0,0,0,1.793,2.2,10.787,10.787,0,0,0,0,8.3a10.787,10.787,0,0,0,1.793,6.1,4.461,4.461,0,0,0,3.586,2.2,4.622,4.622,0,0,0,3.637-2.254A10.542,10.542,0,0,0,10.81,8.3,10.542,10.542,0,0,0,9.017,2.254,4.622,4.622,0,0,0,5.379,0Z" transform="matrix(0.8, -0.599, 0.599, 0.8, 2.034, 24.002)" fill="none" stroke="#707070" stroke-miterlimit="10" stroke-width="1" fill-rule="evenodd" opacity="0.281"/>
      <path id="path6446" d="M8.094,24.608a3.228,3.228,0,0,1-2.9,3.478,3.228,3.228,0,0,1-2.9-3.478A3.228,3.228,0,0,1,5.2,21.13a3.228,3.228,0,0,1,2.9,3.478Z" transform="translate(3.079 -0.809)" fill="#fff" fill-rule="evenodd"/>
      <path id="path4361" d="M19.488,16.931a2.222,2.222,0,1,1-2.222-2.222A2.222,2.222,0,0,1,19.488,16.931Z" transform="translate(7.038 3.331)" fill="#fff" fill-rule="evenodd"/>
      <path id="path6462" d="M115.087,35.807a7.825,7.825,0,1,1-7.825-7.825A7.825,7.825,0,0,1,115.087,35.807Z" transform="translate(-69.517 -14.328)" stroke="#888a85" stroke-miterlimit="10" stroke-width="1" fill-rule="evenodd" fill="url(#radial-gradient-4)"/>
      <path id="path6464" d="M26.98,23.306a3.768,3.768,0,1,1-3.768-3.768A3.768,3.768,0,0,1,26.98,23.306Z" transform="translate(16.362 -0.667)" fill="#2e3436" stroke="#000" stroke-miterlimit="10" stroke-width="1" fill-rule="evenodd"/>
      <path id="path6466" d="M22.877,19.875a2.608,2.608,0,1,1-2.608-2.608A2.608,2.608,0,0,1,22.877,19.875Z" transform="translate(17.857 1.025)" fill="#fff" fill-rule="evenodd"/>
      <g id="g8463" transform="translate(53.239 62.574) rotate(-106.415)">
        <path id="path6937" d="M0,13.02l2.472,2.311C8.034,11.08,13.862,1.939,13.862,1.939c1.317-1.494-.078-2.5-1.442-1.6C12.419.341,3.777,7.081,0,13.02Z" transform="translate(14.643 0)" stroke="#673907" stroke-linecap="round" stroke-width="1" fill="url(#linear-gradient-2)"/>
        <path id="path6935" d="M0,7.023,1.5,8.311,7.155,3.4l.183-.47.729-.012C7.776,1.88,6.108,0,4.859,0l.055.726L4.467.98Z" transform="translate(9.922 12.157)" stroke="#888a85" stroke-linecap="round" stroke-width="1" fill="url(#linear-gradient-3)"/>
        <path id="path6985" d="M2.908,0,0,3.509" transform="translate(11.444 16.224)" fill="none" stroke="#fff" stroke-linecap="round" stroke-linejoin="round" stroke-width="1"/>
        <path id="path6933" d="M0,8.547c6.959,0,12.24.829,13.24-4.234.806-4.08-4.8-6.035-7.584-2.393C2.977,5.429,0,8.547,0,8.547Z" transform="translate(0 17.267)" fill="url(#radial-gradient-7)"/>
        <path id="path6971" d="M3.448,1.724A1.724,1.724,0,1,1,1.724,0,1.724,1.724,0,0,1,3.448,1.724Z" transform="translate(9.186 19.998)" fill="#fff" opacity="0.528"/>
        <path id="path6983" d="M2.326,1.163A1.163,1.163,0,1,1,1.163,0,1.163,1.163,0,0,1,2.326,1.163Z" transform="translate(14.785 14.041)" fill="#fff"/>
        <path id="path1571" d="M0,1.031A8.6,8.6,0,0,0,4.075.09c.565-.355,1.01.433.329.725C2.934,1.444,0,1.031,0,1.031Z" transform="translate(4.529 23.543)" opacity="0.428" fill="url(#linear-gradient-4)"/>
      </g>
      <path id="path8532" d="M23,33.715a13.437,13.437,0,0,0,5.593-.777,3.3,3.3,0,0,1,3.354-2.773l-.869-1.521A20.415,20.415,0,0,1,24.416,31.5Z" transform="translate(16.318 3.995)" fill-rule="evenodd" fill="url(#linear-gradient-5)"/>
    </g>
    <g id="xd" transform="translate(982.537 965.866)">
      <g id="Surfaces">
        <g id="UI_UX_Surface">
          <g id="Outline_no_shadow">
            <path id="Path_137" data-name="Path 137" d="M13.373,0H62.143A13.361,13.361,0,0,1,75.516,13.373V60.255A13.361,13.361,0,0,1,62.143,73.628H13.373A13.361,13.361,0,0,1,0,60.255V13.373A13.361,13.361,0,0,1,13.373,0Z" fill="#470137"/>
          </g>
        </g>
      </g>
      <g id="Outlined_Mnemonics_Logos" transform="translate(11 16.137)">
        <g id="Xd-2" data-name="Xd">
          <path id="Path_138" data-name="Path 138" d="M63.669,60.472,54.23,76.047,64.3,92.566a.542.542,0,0,1,.063.378c-.031.126-.157.031-.346.063H56.81c-.5,0-.85-.031-1.07-.346-.661-1.322-1.353-2.612-2.014-3.933-.661-1.29-1.384-2.612-2.14-3.965s-1.51-2.706-2.265-4.09h-.063c-.661,1.353-1.384,2.706-2.108,4.059s-1.447,2.706-2.14,4.028c-.724,1.322-1.447,2.675-2.171,3.965-.126.315-.378.346-.724.346H35.193c-.126,0-.22.063-.22-.094a.437.437,0,0,1,.063-.346l9.786-16.047L35.288,60.441c-.094-.126-.126-.252-.063-.315A.365.365,0,0,1,35.539,60h7.143a1.857,1.857,0,0,1,.441.063.892.892,0,0,1,.315.283c.6,1.353,1.29,2.706,2.014,4.059.755,1.353,1.479,2.675,2.265,4,.755,1.322,1.447,2.643,2.108,4h.063c.661-1.384,1.353-2.737,2.045-4.059s1.416-2.643,2.14-3.965,1.416-2.675,2.108-3.965a.535.535,0,0,1,.189-.315.6.6,0,0,1,.409-.063h6.639a.29.29,0,0,1,.346.22c.031.031-.031.157-.094.22Z" transform="translate(-34.961 -57.258)" fill="#ff61f6"/>
          <path id="Path_139" data-name="Path 139" d="M143.544,87.694a15.643,15.643,0,0,1-6.765-1.416A10.969,10.969,0,0,1,132.028,82a13.615,13.615,0,0,1-1.731-7.174,12.923,12.923,0,0,1,1.731-6.639,13.067,13.067,0,0,1,5-4.877,16.1,16.1,0,0,1,7.961-1.825,5.619,5.619,0,0,1,.661.031c.283.031.6.031.975.063V51.635c0-.22.094-.346.315-.346h6.387a.282.282,0,0,1,.315.22V81.527c0,.566.031,1.2.063,1.888.063.661.094,1.29.126,1.825a.511.511,0,0,1-.315.5,24.032,24.032,0,0,1-5.129,1.51A27.756,27.756,0,0,1,143.544,87.694Zm3.084-6.293V67.557a8.049,8.049,0,0,0-.85-.157c-.346-.031-.692-.063-1.038-.063a7.756,7.756,0,0,0-3.555.818,7.054,7.054,0,0,0-2.675,2.328,6.975,6.975,0,0,0-1.038,4,8.769,8.769,0,0,0,.535,3.241,6.149,6.149,0,0,0,1.416,2.234,5.436,5.436,0,0,0,2.14,1.259,8.236,8.236,0,0,0,2.612.409c.472,0,.912-.031,1.322-.063A2.752,2.752,0,0,0,146.628,81.4Z" transform="translate(-100.299 -51.284)" fill="#ff61f6"/>
        </g>
      </g>
    </g>
    <g id="devos" transform="translate(1144.537 562.866)">
      <g id="layer1" transform="translate(0 0)">
        <g id="g14217">
          <g id="path14209" transform="translate(0 17.892)">
            <path id="Path_14" data-name="Path 14" d="M7.613,0,0,9.944V31.212l7.613,1.414Z" transform="translate(0 0)" fill="#0078d7"/>
          </g>
          <g id="path14211" transform="translate(56.765 13.679)">
            <path id="Path_15" data-name="Path 15" d="M0,3.352V61.426L18.369,46.28V0Z" transform="translate(0 0)" fill="#0078d7"/>
          </g>
          <g id="path14213">
            <path id="Path_16" data-name="Path 16" d="M0,27.835l56.766-10.8L33.434,0V7.8L7.613,17.892Z" transform="translate(0 0)" fill="#0078d7"/>
          </g>
          <g id="path14215" transform="translate(7.613 50.518)">
            <path id="Path_17" data-name="Path 17" d="M0,0,67.522,9.442,49.153,24.587,20.837,15.127v9.491Z" transform="translate(0 0)" fill="#0078d7"/>
          </g>
        </g>
      </g>
    </g>
  </g>
</svg>
