<svg xmlns="http://www.w3.org/2000/svg" xmlns:xlink="http://www.w3.org/1999/xlink" width="1191.998" height="698" viewBox="0 0 1191.998 698">
  <defs>
    <linearGradient id="linear-gradient" x2="1" y2="1.032" gradientUnits="objectBoundingBox">
      <stop offset="0" stop-color="#0d0221"/>
      <stop offset="0.227" stop-color="#241734"/>
      <stop offset="1" stop-color="#791e94"/>
    </linearGradient>
    <filter id="Intersection_10" x="29" y="0" width="1145" height="698" filterUnits="userSpaceOnUse">
      <feOffset dx="10" dy="10" input="SourceAlpha"/>
      <feGaussianBlur stdDeviation="24" result="blur"/>
      <feFlood flood-color="#a619c4"/>
      <feComposite operator="in" in2="blur"/>
      <feComposite in="SourceGraphic"/>
    </filter>
  </defs>
  <g id="sun_city" transform="translate(-427.999 -50)">
    <g id="sun_purple" transform="translate(-669.201 98.145)">
      <g transform="matrix(1, 0, 0, 1, 1097.2, -48.14)" filter="url(#Intersection_10)">
        <path id="Intersection_10-2" data-name="Intersection 10" d="M2.747,554A507.607,507.607,0,0,1,0,501.179C0,224.385,224.082,0,500.5,0S1001,224.385,1001,501.179A507.6,507.6,0,0,1,998.253,554Z" transform="translate(91 62)" fill="url(#linear-gradient)"/>
      </g>
    </g>
    <path id="Intersection_12" data-name="Intersection 12" d="M5712.359-4793.015v-54.532h44.589v51.052h1.375l.372-52.794h-41.229v-9.026h3.069v-3.159l47.749-.086v44.5h1.987v-77.324h36.062l-.029-5.107h1.793v-2.631h25.061v1.374h-24.135v.882h24.135v.375h2.517l.177,6.537h14.127v41.268h-47.673v52.585h1.375v-50.162l48.757.324v-5.521h4v5.521l6.746.247-.006,48.1h1.814v-47.04h12.2v-5.73H5889.8v5.73l28.14-.321v44.378h2.036l-.033-46.8h-19.838l-.212-119.067,59.522-.608,16.31,8.805-.216,68.171-47.3-.006v.006h-.173l.173,52.581h2.033v-50.527l67.952.5-.29,3.784h-37.5l.171,32.445-5.7.182h-.03v52.588h2.038v-50.717l80.991.541v-8.135l80.43-.4v59.732h2.038v-61.416l-9.688-.369v-57.138l44.861-.037v108.941h2.037l.231-110.99h-16.6v-28.916h10.3v-5.261h41.764v5.261h13.625v136.709h2.04v-135.6l8.141,10.02v23.2h16.574v103.255h2.04l-.081-213.7,15.582-.69v-7.367h36.2l8.911,6.839,14.758,7.364-.248.031H6311v131.981l-63.159.006h-.05v81.349h2.037v-79.306l76.606.562v7.981l-48.453.157v.879h-.054v81.35h2.04v-80.18l75.152.041v75.2h2.039l-.24-77.541-1.8,0-24.61.079v-81.77h3.075v-4.454h3.9v-6.2H6387.5v10.651h4.3v4.458h1.445v78.652h2.04v-78.652h15.381v-42.225l17.837-11.3v-7.685h66.219v6.393l11.529,14.172h.738v.911l.651.8-.651.062v84.394h-64.484v2.053l66.991.22v-4.29h5.167V-4914h2.892v-5.047h3.808v-9.444h3.81V-4955.7h1.666v27.209h11.424v9.444h12.142V-4914h3.468l.25,7.38h9.708v16.189h-53.053l.255,81.649h2.039v-79.6h105.589v-2.053h-25.207v-27.62h2.525v-4.644h5.365v-7.145h27.529v7.145h10.974l25.082,14.768-.121,9.847v21.221l-14.674-.352v26.275l-6.255-.066v51.208h2.043v-49.089h103.847v49.457h2.038l.1-51.51h-18.531v-21.492l67.972-.166v65.047h2.036l.492-67.1h-33.313v-36.707h49.229v2.417h26.6l10,7.263.052,9.1h1.946v-26.1h-1.69v-2.179h1.843v-3.485h5.3v-18.523h1.475v18.523h8.756v3.485h14.609v2.179h-2v42.545H6821.04l-.544,40.156h2.033v-38.1l81.511-.288.316,81.341Zm904.564-13.181h2.035v-81.349h-2.035Zm-171.7-19.437h2.038v-81.347h-2.038Zm206.951-25.3v-23.871h35.261v-2.053h-19.854v-6.3h6.682v-5.477h37.315l14.747,11.2v26.5Zm-668.629-3.359v-13.983l51.114.163v13.82Zm-20.927,0v-30.393l51.9.157,13.226,12.056-.053,2.145-45.955.181h-.225v15.854Zm-82.96-1.309v-4.957h1.694v-18.158h3.844v18.158h1.844v4.957Zm166.89-6.688v-107.171H6056.8v-5.811h26.856v5.811h4.922l5.331,5.231c-.609,12.653.044,26.611-.259,39.555h-19.071l-.239,62.285h2.036v-60.232l45.047.343v.8h-12.707v.146h-.089v59.045Zm-322.487-1.011-.012-74.4h73.75v41.8h-29.511v32.6Zm1019.767-11.341v-62.326h14.149v-7.41h32.135v7.845h9.534v23.132h-30.959v.388h-.157v38.371Zm-417.4-3.089v-.07l4.075-.014v.083Zm-8.7-13.315v-22.808h2.146v22.808Zm-517.062-4.851v-41.035c1.981,2.692,2.445,2.441,5.461,5.954l-.08,35.081Zm18.26-8.637v-5.842h13.4v5.842Zm6.7-7.789v-21.419h2.405v21.419Zm269.335-12.352v-3.393h3.622v-11.838h3.618v11.838h8.074v3.393Zm513.026-7.6v-50.528h2.152v50.528Zm-865.7-7.09v-9.171h19.326v-28.37h2.91v28.37h21.435v9.171Zm438.906-18.471v-5.2h11.707v5.2Zm-15.075-.14v-5.2h11.707v5.2Zm-14.9,0v-5.2h11.706v5.2Zm-250.411-14.052v-7.141h21.04v7.141Zm153.847-4.832v-3.172h31.388v3.172Zm.384-5.555v-4.867h31v4.867Zm9.273-9.732v-34.726h2.153v34.726Zm364.16-26.669v-4.943h65.058v4.943Z" transform="translate(-5284.359 5458.986)" fill="#0d0221"/>
  </g>
</svg>
